<svg width="56" height="56" viewBox="0 0 56 56" fill="none" xmlns="http://www.w3.org/2000/svg">
<circle cx="28" cy="28" r="28" fill="#F1FAF3"/>
<path d="M28 32.4238C27.6971 32.4238 27.4011 32.5136 27.1493 32.6819C26.8975 32.8501 26.7012 33.0893 26.5853 33.3691C26.4694 33.6489 26.4391 33.9568 26.4982 34.2538C26.5573 34.5508 26.7031 34.8237 26.9172 35.0378C27.1314 35.252 27.4042 35.3978 27.7013 35.4569C27.9983 35.516 28.3062 35.4857 28.586 35.3698C28.8658 35.2539 29.1049 35.0576 29.2732 34.8058C29.4414 34.554 29.5313 34.2579 29.5313 33.9551C29.5313 33.549 29.3699 33.1595 29.0828 32.8723C28.7956 32.5852 28.4061 32.4238 28 32.4238Z" fill="#459F5E"/>
<path d="M29.0208 21.1943H26.9792V30.3818H29.0208V21.1943Z" fill="#459F5E"/>
<path d="M41.2709 39.5694H14.7292C14.5538 39.5694 14.3814 39.5242 14.2285 39.4382C14.0757 39.3521 13.9476 39.2282 13.8566 39.0783C13.7655 38.9284 13.7147 38.7575 13.7089 38.5822C13.7031 38.4069 13.7426 38.2331 13.8235 38.0775L27.0943 12.5567C27.1805 12.3909 27.3106 12.252 27.4703 12.1551C27.63 12.0581 27.8132 12.0068 28 12.0068C28.1868 12.0068 28.3701 12.0581 28.5298 12.1551C28.6895 12.252 28.8195 12.3909 28.9057 12.5567L42.1765 38.0775C42.2575 38.2331 42.2969 38.4069 42.2911 38.5822C42.2853 38.7575 42.2345 38.9284 42.1435 39.0783C42.0525 39.2282 41.9244 39.3521 41.7715 39.4382C41.6187 39.5242 41.4462 39.5694 41.2709 39.5694V39.5694ZM16.4143 37.5277H39.5858L39.5878 37.5243L28.0021 15.2443H27.998L16.4122 37.5243L16.4143 37.5277Z" fill="#459F5E"/>
</svg>
