<svg width="143" height="26" viewBox="0 0 143 26" fill="none" xmlns="http://www.w3.org/2000/svg">
<ellipse cx="12.8706" cy="15.9529" rx="8.41059" ry="8.41138" fill="#F1FAF3"/>
<path d="M12.421 21.3364C12.365 18.5326 13.0939 15.6166 14.6639 13.7661C12.2528 13.8783 10.4025 15.5605 9.8418 17.4671C10.7626 19.0214 12.2528 21.112 12.421 21.3364Z" fill="#3A375F"/>
<ellipse cx="10.4031" cy="12.5883" rx="1.45784" ry="1.45797" fill="#3A375F"/>
<path d="M19.8102 8.34549C20.2388 8.05324 20.6912 7.76635 21.1685 7.48584C20.6973 7.77386 20.2445 8.05985 19.8102 8.34549C12.8877 13.0656 12.1824 19.1855 13.3445 22.4825L12.9822 22.6824L12.1105 21.1683L10.1732 17.8038C10.2907 18.5328 9.22549 22.402 7.4873 24.7011C9.17805 22.1655 9.37417 20.1101 9.47997 17.2845L9.73013 17.0343L10.1732 17.8038L12.1105 21.1683C12.1105 15.0663 14.6638 11.7302 19.8102 8.34549Z" fill="#459F5E"/>
<path fill-rule="evenodd" clip-rule="evenodd" d="M21.449 7.31765C21.5413 7.47163 21.4922 7.67123 21.339 7.76484C20.8712 8.05075 20.4223 8.33429 19.9921 8.61718C13.1834 13.261 12.5444 19.229 13.6529 22.3737C13.706 22.5245 13.6424 22.6915 13.5025 22.7688L13.1402 22.9687C12.984 23.0548 12.7877 23.0001 12.6987 22.8455L10.3888 18.8338C10.3818 18.8674 10.3745 18.9015 10.3668 18.9361C10.2532 19.4517 10.0729 20.088 9.83491 20.7712C9.36042 22.1331 8.64602 23.7106 7.74811 24.8983C7.64146 25.0394 7.44198 25.0701 7.29781 24.9677C7.15364 24.8653 7.11702 24.6668 7.21513 24.5196C8.85411 22.0617 9.04787 20.0821 9.15308 17.2722C9.15616 17.1898 9.19029 17.1115 9.24863 17.0532L9.49879 16.803C9.57073 16.7311 9.67206 16.6967 9.77293 16.71C9.8738 16.7234 9.96271 16.7829 10.0135 16.8711L11.8158 20.0013C11.9622 17.4484 12.6035 15.3762 13.7542 13.5627C15.071 11.4874 17.0385 9.77708 19.6281 8.07368C20.0623 7.77774 20.5202 7.48746 21.0028 7.20383C21.1575 7.11287 21.3567 7.16367 21.449 7.31765ZM12.6183 18.5662C12.5016 19.3477 12.4413 20.1827 12.4376 21.0812L12.7746 21.6665C12.5741 20.7507 12.5034 19.6986 12.6183 18.5662ZM9.85444 17.9057L9.78681 17.7882C9.77176 18.1287 9.75402 18.4594 9.73087 18.7826C9.78306 18.5444 9.81867 18.34 9.83796 18.1767C9.85287 18.0506 9.85637 17.9618 9.85444 17.9057Z" fill="#459F5E"/>
<path fill-rule="evenodd" clip-rule="evenodd" d="M19.234 7.52432C19.6719 7.3415 20.8554 6.72638 21.2696 5.28863C21.6819 3.85753 21.2515 1.89061 21.0679 1.1773C21.0284 2.51482 20.9399 3.55521 20.7638 4.41781C20.5841 5.29791 20.3131 5.99356 19.9095 6.63209C19.7157 6.93873 19.4919 7.23137 19.234 7.52432ZM20.9099 0.972168C20.5174 1.29505 18.8519 2.74318 18.3601 4.45029C17.8735 6.13936 18.7713 7.26489 19.0115 7.52766C19.3068 7.203 19.5572 6.88304 19.7696 6.54738C19.9715 6.16444 19.9443 5.79703 19.7695 5.49383C19.5926 5.187 19.2608 4.94006 18.8464 4.81624C18.8031 4.80331 18.7785 4.75776 18.7915 4.71449C18.8044 4.67123 18.8499 4.64663 18.8932 4.65956C19.3396 4.79294 19.7096 5.06246 19.9112 5.41218C20.0148 5.59199 20.0729 5.79144 20.0744 6.00126C20.3056 5.52676 20.4772 5.00398 20.6036 4.38509C20.7856 3.49387 20.8735 2.40403 20.9099 0.972168Z" fill="#459F5E"/>
<path d="M21.2696 5.28863L21.285 5.29306L21.2696 5.28863ZM19.234 7.52432L19.2219 7.51374C19.217 7.51934 19.2166 7.5276 19.2209 7.53366C19.2253 7.53972 19.2333 7.54198 19.2401 7.5391L19.234 7.52432ZM21.0679 1.1773L21.0834 1.17331C21.0814 1.16558 21.074 1.1605 21.0661 1.16138C21.0581 1.16227 21.0521 1.16885 21.0518 1.17683L21.0679 1.1773ZM20.7638 4.41781L20.7795 4.42101L20.7638 4.41781ZM19.9095 6.63209L19.923 6.64065L19.9095 6.63209ZM18.3601 4.45029L18.3755 4.45473L18.3601 4.45029ZM20.9099 0.972168L20.9259 0.972575C20.9261 0.966307 20.9226 0.960523 20.9169 0.957774C20.9113 0.955025 20.9046 0.955816 20.8997 0.959799L20.9099 0.972168ZM19.0115 7.52766L18.9997 7.53846C19.0028 7.54179 19.007 7.54368 19.0116 7.54367C19.0161 7.54367 19.0203 7.54176 19.0234 7.53843L19.0115 7.52766ZM19.7696 6.54738L19.7832 6.55598L19.7837 6.55485L19.7696 6.54738ZM19.7695 5.49383L19.7834 5.48584L19.7695 5.49383ZM18.8464 4.81624L18.8418 4.83159H18.8418L18.8464 4.81624ZM18.7915 4.71449L18.8068 4.71908L18.7915 4.71449ZM18.8932 4.65956L18.8978 4.64422H18.8978L18.8932 4.65956ZM19.9112 5.41218L19.925 5.40418L19.9112 5.41218ZM20.0744 6.00126L20.0584 6.00138C20.0585 6.00881 20.0637 6.01523 20.0709 6.01688C20.0782 6.01852 20.0856 6.01496 20.0888 6.00827L20.0744 6.00126ZM20.6036 4.38509L20.6193 4.38829L20.6036 4.38509ZM21.2542 5.28419C20.842 6.71493 19.6641 7.32738 19.2278 7.50954L19.2401 7.5391C19.6797 7.35561 20.8687 6.73784 21.285 5.29306L21.2542 5.28419ZM21.0523 1.1813C21.1441 1.53751 21.2974 2.20673 21.3763 2.96545C21.4552 3.72444 21.4595 4.57155 21.2542 5.28419L21.285 5.29306C21.4919 4.57461 21.4872 3.72271 21.4081 2.96214C21.329 2.20129 21.1753 1.5304 21.0834 1.17331L21.0523 1.1813ZM21.0518 1.17683C21.0124 2.51402 20.924 3.55334 20.7481 4.4146L20.7795 4.42101C20.9559 3.55708 21.0444 2.51562 21.0839 1.17777L21.0518 1.17683ZM20.7481 4.4146C20.5688 5.2931 20.2983 5.98688 19.896 6.62353L19.923 6.64065C20.3278 6.00024 20.5995 5.30271 20.7795 4.42101L20.7481 4.4146ZM19.896 6.62353C19.7027 6.92935 19.4794 7.22131 19.2219 7.51374L19.246 7.5349C19.5043 7.24142 19.7287 6.94812 19.923 6.64065L19.896 6.62353ZM18.3755 4.45473C18.6205 3.60433 19.1582 2.81756 19.6844 2.20256C20.2105 1.58773 20.7242 1.14563 20.9201 0.984537L20.8997 0.959799C20.703 1.12159 20.1878 1.565 19.6601 2.18173C19.1325 2.79829 18.5915 3.58914 18.3447 4.44586L18.3755 4.45473ZM19.0234 7.51685C18.7846 7.25573 17.8912 6.13586 18.3755 4.45473L18.3447 4.44586C17.8558 6.14285 18.758 7.27404 18.9997 7.53846L19.0234 7.51685ZM19.0234 7.53843C19.3191 7.21323 19.5701 6.89254 19.7831 6.55595L19.756 6.53882C19.5442 6.87354 19.2945 7.19277 18.9997 7.51688L19.0234 7.53843ZM19.7837 6.55485C19.9882 6.16704 19.9609 5.79379 19.7834 5.48584L19.7556 5.50183C19.9276 5.80027 19.9547 6.16185 19.7554 6.53992L19.7837 6.55485ZM19.7834 5.48584C19.6041 5.17481 19.2685 4.92565 18.851 4.8009L18.8418 4.83159C19.253 4.95447 19.5812 5.1992 19.7556 5.50183L19.7834 5.48584ZM18.851 4.8009C18.8162 4.7905 18.7964 4.75387 18.8068 4.71908L18.7761 4.70991C18.7607 4.76165 18.7901 4.81612 18.8418 4.83159L18.851 4.8009ZM18.8068 4.71908C18.8172 4.68429 18.8538 4.66451 18.8886 4.67491L18.8978 4.64422C18.8461 4.62875 18.7916 4.65816 18.7761 4.70991L18.8068 4.71908ZM18.8886 4.67491C19.3318 4.80735 19.6981 5.07466 19.8973 5.42018L19.925 5.40418C19.721 5.05026 19.3473 4.77853 18.8978 4.64422L18.8886 4.67491ZM19.8973 5.42018C19.9996 5.59775 20.0569 5.79452 20.0584 6.00138L20.0905 6.00114C20.0889 5.78837 20.03 5.58622 19.925 5.40418L19.8973 5.42018ZM20.0888 6.00827C20.3207 5.53236 20.4927 5.00826 20.6193 4.38829L20.5879 4.38188C20.4618 4.99969 20.2905 5.52115 20.06 5.99424L20.0888 6.00827ZM20.6193 4.38829C20.8015 3.49568 20.8895 2.40474 20.9259 0.972575L20.8939 0.971761C20.8575 2.40333 20.7696 3.49205 20.5879 4.38188L20.6193 4.38829Z" fill="#459F5E"/>
<g clip-path="url(#clip0_14028_119388)">
<path d="M46.1663 19.1584V15.1842C46.1663 14.4641 46.0014 13.8594 45.677 13.3812C45.3582 12.8975 44.913 12.5402 44.3523 12.2983C43.7916 12.0565 43.1485 11.9355 42.4284 11.9355C41.8292 11.9355 41.285 12.0125 40.7958 12.1664C40.3121 12.3203 39.8998 12.5347 39.548 12.8095C39.1962 13.0789 38.9323 13.3922 38.7509 13.744C38.5695 14.1013 38.4761 14.4751 38.4761 14.8709H40.9497C40.9497 14.6345 41.0047 14.4311 41.1146 14.2607C41.2246 14.0848 41.3785 13.9474 41.5764 13.8594C41.7742 13.7605 42.0161 13.711 42.291 13.711C42.6098 13.711 42.8736 13.7715 43.0715 13.8924C43.2804 14.0134 43.4288 14.1838 43.5278 14.3981C43.6267 14.6125 43.6762 14.8654 43.6762 15.1622V15.7394H42.5658C41.8567 15.7394 41.23 15.8053 40.6914 15.9483C40.1527 16.0802 39.7019 16.2781 39.3446 16.5419C38.9873 16.8003 38.718 17.1191 38.5366 17.4929C38.3552 17.8667 38.2617 18.3009 38.2617 18.7901C38.2617 19.3288 38.3991 19.807 38.674 20.2303C38.9543 20.6481 39.3336 20.9779 39.8063 21.2197C40.2901 21.4561 40.8233 21.5715 41.4114 21.5715C41.8732 21.5715 42.2745 21.5056 42.6153 21.3627C42.9506 21.2197 43.2419 21.0383 43.4838 20.824C43.5882 20.725 43.6817 20.6261 43.7751 20.5216C43.8356 20.8679 43.9235 21.1648 44.0335 21.4011H46.5346V21.2527C46.4136 21.0109 46.3202 20.7305 46.2597 20.4117C46.1993 20.0874 46.1663 19.6696 46.1663 19.1584ZM42.9286 19.4992C42.6537 19.6476 42.3294 19.7246 41.9556 19.7246C41.7083 19.7246 41.4939 19.6806 41.3125 19.5872C41.1311 19.4882 40.9882 19.3563 40.8892 19.1914C40.7903 19.021 40.7408 18.8286 40.7408 18.6142C40.7408 18.3998 40.7738 18.2075 40.8453 18.0316C40.9222 17.8557 41.0322 17.7017 41.1861 17.5698C41.34 17.4324 41.5379 17.328 41.7797 17.251C42.0216 17.174 42.3019 17.1411 42.6318 17.1411H43.6707V18.7516C43.6377 18.8176 43.6102 18.8836 43.5607 18.955C43.4123 19.1749 43.1979 19.3563 42.9231 19.5047L42.9286 19.4992Z" fill="#3A375F"/>
<path d="M52.4104 19.5827C52.2895 19.5937 52.152 19.5992 51.9981 19.5992C51.7783 19.5992 51.6024 19.5717 51.4594 19.5223C51.3165 19.4673 51.2066 19.3629 51.1351 19.2199C51.0692 19.077 51.0307 18.8681 51.0307 18.6043V13.8605H52.6303V12.107H51.0307V10.6613C51.0307 10.2656 51.2835 10.0347 51.4265 9.96873C51.5969 9.88627 51.6078 9.82031 51.4924 9.82031H48.5571V12.107H47.2158V13.8605H48.5571V18.8516C48.5571 19.5058 48.667 20.0335 48.8814 20.4347C49.1013 20.836 49.4091 21.1273 49.8104 21.3087C50.2171 21.4846 50.6899 21.5726 51.2341 21.5726C51.5309 21.5726 51.8057 21.5506 52.0476 21.5121C52.295 21.4736 52.5203 21.4187 52.7347 21.3472L52.7237 19.5278C52.6358 19.5442 52.5313 19.5607 52.4049 19.5772L52.4104 19.5827Z" fill="#3A375F"/>
<path d="M68.3908 11.9355C67.9566 11.9355 67.5718 12.04 67.231 12.2434C66.8957 12.4523 66.6043 12.7436 66.3734 13.1174C66.346 13.1613 66.3295 13.2163 66.302 13.2603L66.2195 12.1005H63.8943V20.5381C63.8943 20.9449 63.6415 21.1758 63.4986 21.2472C63.3282 21.3297 63.3172 21.3956 63.4326 21.3956H66.368V15.2941C66.4504 15.1072 66.5494 14.9368 66.6868 14.7939C66.8572 14.6235 67.0716 14.4916 67.3244 14.4091C67.5828 14.3157 67.8851 14.2717 68.2369 14.2717C68.3743 14.2717 68.5282 14.2827 68.6931 14.2992C68.8635 14.3102 69.012 14.3267 69.1329 14.3432L69.1769 12.051C69.0834 12.018 68.968 11.9905 68.8251 11.974C68.6821 11.952 68.5392 11.941 68.4018 11.941L68.3908 11.9355Z" fill="#3A375F"/>
<path d="M78.2518 16.4869C78.2518 15.8053 78.1639 15.1897 77.988 14.629C77.8121 14.0683 77.5482 13.5846 77.1964 13.1888C76.8556 12.7876 76.4269 12.4797 75.9157 12.2599C75.4044 12.04 74.8218 11.9355 74.1621 11.9355C73.5025 11.9355 72.8814 12.051 72.3427 12.2873C71.804 12.5182 71.3477 12.848 70.9684 13.2768C70.5947 13.7055 70.3088 14.2112 70.1109 14.7994C69.913 15.3876 69.8086 16.0252 69.8086 16.7343V17.0751C69.8086 17.6908 69.913 18.2789 70.1274 18.8286C70.3418 19.3728 70.6441 19.851 71.0399 20.2633C71.4412 20.6755 71.9249 20.9999 72.5021 21.2362C73.0738 21.4671 73.7224 21.577 74.4425 21.577C75.0416 21.577 75.5803 21.4946 76.0476 21.3352C76.5148 21.1703 76.9161 20.9559 77.2514 20.6975C77.5867 20.4392 77.8561 20.1698 78.0485 19.8895L76.8446 18.5812C76.5643 18.9385 76.229 19.2024 75.8387 19.3783C75.4539 19.5487 75.0417 19.6366 74.5909 19.6366C74.2281 19.6366 73.9093 19.5762 73.618 19.4497C73.3376 19.3233 73.0957 19.1474 72.8979 18.9166C72.7055 18.6857 72.5516 18.4163 72.4416 18.103C72.3811 17.9216 72.3427 17.7237 72.3207 17.5204H78.2518V16.4869ZM75.8222 15.8713H72.3537C72.3647 15.7778 72.3757 15.6844 72.3921 15.5965C72.4691 15.2447 72.5735 14.9423 72.7165 14.684C72.8649 14.4256 73.0573 14.2277 73.2936 14.0848C73.53 13.9419 73.8103 13.8704 74.1347 13.8704C74.5194 13.8704 74.8328 13.9529 75.0801 14.1123C75.3275 14.2717 75.5089 14.4916 75.6298 14.7664C75.7562 15.0358 75.8167 15.3436 75.8167 15.6844V15.8713H75.8222Z" fill="#3A375F"/>
<path d="M37.0364 8.896H34.0076V17.2842L28.9669 8.896H26.3943V20.5438C26.3943 20.9506 26.1415 21.1815 25.9986 21.2529C25.8282 21.3354 25.8172 21.4013 25.9326 21.4013H28.9669V13.0186L33.9911 21.4013H36.5691V9.75351C36.5691 9.34674 36.822 9.11587 36.9649 9.04441C37.1353 8.96196 37.1463 8.896 37.0309 8.896H37.0364Z" fill="#3A375F"/>
<path d="M62.4647 12.1055H59.5293V18.6742C59.4029 18.9326 59.227 19.1469 58.9906 19.3118C58.6993 19.5207 58.298 19.6197 57.7868 19.6197C57.5889 19.6197 57.402 19.5922 57.2371 19.5427C57.0777 19.4932 56.9348 19.4053 56.8138 19.2844C56.6929 19.1634 56.5995 19.0095 56.528 18.8226C56.4675 18.6357 56.4345 18.3994 56.4345 18.1245V12.886C56.4675 12.5342 56.6874 12.3198 56.8193 12.2594C56.9897 12.1769 57.0007 12.111 56.8853 12.111H53.9609V18.1135C53.9609 18.7292 54.0379 19.2624 54.1863 19.7021C54.3402 20.1364 54.5546 20.4937 54.824 20.774C55.0988 21.0489 55.4231 21.2522 55.8024 21.3842C56.1872 21.5106 56.6049 21.5711 57.0557 21.5711C57.6439 21.5711 58.1606 21.4666 58.5948 21.2522C59.0016 21.0489 59.3369 20.7685 59.6118 20.4167L59.6777 21.3952H62.0029V12.963C62.0029 12.5562 62.2558 12.3253 62.3987 12.2539C62.5691 12.1714 62.5801 12.1055 62.4647 12.1055Z" fill="#3A375F"/>
<path d="M83.1901 12.9634C83.3001 12.4632 83.4595 12.0509 83.6793 11.7266C83.8992 11.4023 84.1686 11.155 84.4874 10.9956C84.8062 10.8361 85.1855 10.7537 85.6142 10.7537C86.1859 10.7537 86.6477 10.8471 86.9885 11.0285C87.3403 11.2044 87.5986 11.4738 87.769 11.8256C87.9394 12.1774 88.0384 12.6006 88.0714 13.1063H90.6494C90.567 12.2598 90.3306 11.5013 89.9293 10.8416C89.5335 10.1765 88.9784 9.65432 88.2528 9.28053C87.5382 8.90125 86.6587 8.71436 85.6142 8.71436C84.8282 8.71436 84.1191 8.85727 83.4814 9.13761C82.8438 9.41795 82.2996 9.81922 81.8434 10.3414C81.3926 10.8636 81.0408 11.4958 80.7935 12.2378C80.5516 12.9744 80.4307 13.8044 80.4307 14.7224V15.5909C80.4307 16.5089 80.5461 17.3334 80.7825 18.0755C81.0188 18.8121 81.3596 19.4442 81.8049 19.9664C82.2556 20.4886 82.7998 20.8899 83.4375 21.1702C84.0751 21.4451 84.7897 21.5825 85.5923 21.5825C86.6147 21.5825 87.4942 21.4011 88.2198 21.0328C88.9509 20.6645 89.5225 20.1588 89.9293 19.5047C90.3416 18.8506 90.5725 18.103 90.6274 17.262H88.0604C88.0274 17.7677 87.912 18.1854 87.7251 18.5262C87.5437 18.8616 87.2743 19.1199 86.928 19.2903C86.5762 19.4607 86.1365 19.5487 85.5978 19.5487C85.1415 19.5487 84.7457 19.4662 84.4214 19.3013C84.1026 19.1309 83.8387 18.878 83.6299 18.5427C83.432 18.2074 83.2781 17.7952 83.1846 17.3059C83.0857 16.8112 83.0362 16.245 83.0362 15.5964V14.7114C83.0362 14.0463 83.0857 13.4691 83.1901 12.9744V12.9634Z" fill="#459F5E"/>
<path d="M99.4267 13.2824C99.0529 12.8591 98.5912 12.5293 98.0415 12.293C97.4918 12.0511 96.8652 11.9302 96.1616 11.9302C95.458 11.9302 94.8313 12.0511 94.2871 12.293C93.7429 12.5293 93.2867 12.8591 92.9129 13.2824C92.5391 13.7057 92.2588 14.2059 92.0609 14.783C91.8685 15.3547 91.7695 15.9814 91.7695 16.663V16.8444C91.7695 17.5205 91.8685 18.1471 92.0609 18.7243C92.2533 19.296 92.5391 19.7962 92.9129 20.2249C93.2922 20.6482 93.7539 20.978 94.2981 21.2144C94.8478 21.4507 95.4744 21.5662 96.178 21.5662C96.8817 21.5662 97.5083 21.4507 98.0525 21.2144C98.5967 20.978 99.0529 20.6482 99.4267 20.2249C99.806 19.7962 100.092 19.296 100.284 18.7243C100.477 18.1471 100.576 17.5205 100.576 16.8444V16.663C100.576 15.9814 100.477 15.3547 100.284 14.783C100.092 14.2059 99.8005 13.7057 99.4267 13.2824ZM98.0965 16.8444C98.0965 17.2346 98.058 17.5974 97.9865 17.9327C97.9206 18.268 97.8106 18.5704 97.6622 18.8232C97.5138 19.0761 97.3159 19.274 97.0685 19.4169C96.8212 19.5598 96.5299 19.6313 96.1835 19.6313C95.8372 19.6313 95.5294 19.5598 95.2821 19.4169C95.0347 19.274 94.8368 19.0761 94.6829 18.8232C94.5345 18.5649 94.4245 18.268 94.3586 17.9327C94.2926 17.5974 94.2541 17.2291 94.2541 16.8444V16.663C94.2541 16.2837 94.2871 15.9319 94.3586 15.5966C94.4245 15.2613 94.5345 14.9589 94.6829 14.7061C94.8368 14.4422 95.0347 14.2389 95.2766 14.0904C95.5239 13.942 95.8208 13.8651 96.1671 13.8651C96.5134 13.8651 96.8157 13.942 97.0576 14.0904C97.3049 14.2389 97.5028 14.4477 97.6512 14.7061C97.8051 14.9644 97.9151 15.2613 97.9865 15.5966C98.0635 15.9264 98.0965 16.2837 98.0965 16.663V16.8444Z" fill="#459F5E"/>
<path d="M126.154 19.5809C126.033 19.5919 125.896 19.5974 125.742 19.5974C125.522 19.5974 125.346 19.5699 125.203 19.5204C125.06 19.4655 124.95 19.361 124.879 19.2181C124.807 19.0752 124.774 18.8663 124.774 18.6025V13.8587H126.374V12.1052H124.774V10.6045C124.802 10.2417 125.027 10.0274 125.159 9.9614C125.33 9.87895 125.341 9.81299 125.225 9.81299H122.295V12.1052H120.954V13.8587H122.295V18.8498C122.295 19.5039 122.405 20.0316 122.62 20.4329C122.84 20.8342 123.147 21.1255 123.549 21.3069C123.955 21.4828 124.428 21.5708 124.972 21.5708C125.269 21.5708 125.544 21.5488 125.786 21.5103C126.033 21.4718 126.259 21.4168 126.473 21.3454L126.462 19.5259C126.374 19.5424 126.27 19.5589 126.143 19.5754L126.154 19.5809Z" fill="#459F5E"/>
<path d="M134.811 13.1893C134.47 12.788 134.041 12.4802 133.53 12.2603C133.019 12.0405 132.436 11.936 131.776 11.936C131.117 11.936 130.496 12.0515 129.957 12.2878C129.418 12.5187 128.962 12.8485 128.583 13.2773C128.209 13.706 127.923 14.2117 127.725 14.7999C127.527 15.3881 127.423 16.0257 127.423 16.7348V17.0756C127.423 17.6912 127.527 18.2794 127.742 18.8291C127.956 19.3733 128.258 19.8515 128.654 20.2638C129.055 20.676 129.539 21.0003 130.116 21.2367C130.688 21.4676 131.337 21.5775 132.057 21.5775C132.656 21.5775 133.195 21.4951 133.662 21.3357C134.129 21.1708 134.53 20.9564 134.866 20.698C135.201 20.4397 135.47 20.1703 135.663 19.89L134.459 18.5817C134.179 18.939 133.843 19.2029 133.453 19.3788C133.068 19.5492 132.656 19.6371 132.205 19.6371C131.842 19.6371 131.524 19.5767 131.232 19.4502C130.952 19.3238 130.71 19.1479 130.512 18.917C130.32 18.6862 130.166 18.4168 130.056 18.1035C129.995 17.9221 129.957 17.7242 129.935 17.5208H135.866V16.4874C135.866 15.8058 135.778 15.1902 135.602 14.6295C135.426 14.0688 135.162 13.5851 134.811 13.1893ZM133.436 15.8718H129.968C129.979 15.7783 129.99 15.6849 130.006 15.5969C130.083 15.2451 130.188 14.9428 130.331 14.6845C130.479 14.4261 130.672 14.2282 130.908 14.0853C131.144 13.9424 131.425 13.8709 131.749 13.8709C132.134 13.8709 132.447 13.9534 132.694 14.1128C132.942 14.2722 133.123 14.4921 133.244 14.7669C133.371 15.0363 133.431 15.3441 133.431 15.6849V15.8718H133.436Z" fill="#459F5E"/>
<path d="M119.119 12.726C118.86 12.4511 118.552 12.2533 118.19 12.1268C117.827 12.0004 117.431 11.9399 116.997 11.9399C116.447 11.9399 115.947 12.0444 115.502 12.2588C115.062 12.4676 114.683 12.7645 114.358 13.1602C114.342 13.1822 114.325 13.2097 114.309 13.2372L114.221 12.1158H111.901V20.5535C111.901 20.9603 111.648 21.1911 111.505 21.2626C111.335 21.3451 111.324 21.411 111.439 21.411H114.375V14.8258C114.413 14.7598 114.446 14.6829 114.485 14.6224C114.644 14.386 114.848 14.2046 115.084 14.0727C115.331 13.9408 115.617 13.8748 115.952 13.8748C116.288 13.8748 116.541 13.9243 116.76 14.0232C116.986 14.1167 117.151 14.2761 117.266 14.507C117.382 14.7378 117.437 15.0567 117.437 15.4689V20.603C117.415 20.9713 117.184 21.1857 117.052 21.2516C116.881 21.3341 116.87 21.4 116.986 21.4H119.932V15.4744C119.932 14.8203 119.861 14.2706 119.718 13.8144C119.58 13.3636 119.382 13.0008 119.119 12.726Z" fill="#459F5E"/>
<path d="M142.2 11.969C142.057 11.947 141.914 11.936 141.777 11.936C141.342 11.936 140.958 12.0405 140.617 12.2439C140.281 12.4527 139.99 12.7441 139.759 13.1179C139.732 13.1618 139.715 13.2168 139.688 13.2608L139.605 12.1009H137.28V20.5386C137.28 20.9454 137.027 21.1763 136.884 21.2477C136.714 21.3302 136.703 21.3961 136.818 21.3961H139.754V15.2946C139.836 15.1077 139.935 14.9373 140.073 14.7944C140.243 14.624 140.457 14.4921 140.71 14.4096C140.969 14.3162 141.271 14.2722 141.623 14.2722C141.76 14.2722 141.914 14.2832 142.079 14.2997C142.249 14.3107 142.398 14.3272 142.519 14.3437L142.563 12.0515C142.469 12.0185 142.354 11.991 142.211 11.9745L142.2 11.969Z" fill="#459F5E"/>
<path d="M110.531 12.1035H107.596V18.6723C107.469 18.9306 107.293 19.145 107.057 19.3099C106.766 19.5188 106.364 19.6177 105.853 19.6177C105.655 19.6177 105.468 19.5902 105.303 19.5408C105.144 19.4913 105.001 19.4033 104.88 19.2824C104.759 19.1615 104.666 19.0076 104.594 18.8207C104.534 18.6338 104.501 18.3974 104.501 18.1226V12.9555C104.501 12.5543 104.754 12.3234 104.897 12.2574C105.067 12.175 105.078 12.109 104.963 12.109H102.027V18.1116C102.027 18.7272 102.104 19.2604 102.253 19.7002C102.407 20.1344 102.621 20.4917 102.89 20.7721C103.165 21.0469 103.49 21.2503 103.869 21.3822C104.254 21.5086 104.671 21.5691 105.122 21.5691C105.71 21.5691 106.227 21.4647 106.661 21.2503C107.068 21.0469 107.403 20.7666 107.678 20.4148L107.744 21.3932H110.069V12.961C110.069 12.5543 110.322 12.3234 110.465 12.2519C110.635 12.1695 110.646 12.1035 110.531 12.1035Z" fill="#459F5E"/>
</g>
<defs>
<clipPath id="clip0_14028_119388">
<rect width="116.694" height="12.8571" fill="white" transform="translate(25.8574 8.71436)"/>
</clipPath>
</defs>
</svg>
