<svg width="24" height="24" viewBox="0 0 24 24" fill="none" xmlns="http://www.w3.org/2000/svg">
<g clip-path="url(#clip0_14028_119347)">
<path d="M11.9998 14.2498C11.1335 14.2506 10.2805 14.0366 9.51706 13.6271C8.75365 13.2177 8.10359 12.6254 7.625 11.9033L8.8745 11.0728C9.21663 11.5884 9.68105 12.0114 10.2264 12.3041C10.7717 12.5967 11.3809 12.7498 11.9998 12.7498C12.6186 12.7498 13.2278 12.5967 13.7731 12.3041C14.3184 12.0114 14.7829 11.5884 15.125 11.0728L16.3745 11.9033C15.8959 12.6254 15.2459 13.2177 14.4824 13.6271C13.719 14.0366 12.866 14.2506 11.9998 14.2498V14.2498Z" fill="#459F5E"/>
<path d="M15 6.00007C14.7033 6.00007 14.4133 6.08805 14.1666 6.25287C13.92 6.41769 13.7277 6.65196 13.6142 6.92605C13.5006 7.20014 13.4709 7.50174 13.5288 7.79271C13.5867 8.08368 13.7296 8.35095 13.9393 8.56073C14.1491 8.77051 14.4164 8.91337 14.7074 8.97125C14.9983 9.02913 15.2999 8.99942 15.574 8.88589C15.8481 8.77236 16.0824 8.5801 16.2472 8.33343C16.412 8.08675 16.5 7.79674 16.5 7.50007C16.5019 7.30255 16.4645 7.10662 16.3898 6.92375C16.3151 6.74089 16.2047 6.57476 16.065 6.43508C15.9253 6.2954 15.7592 6.18499 15.5763 6.11029C15.3935 6.0356 15.1975 5.99813 15 6.00007V6.00007Z" fill="#459F5E"/>
<path d="M9 6.00007C8.70333 6.00007 8.41332 6.08805 8.16665 6.25287C7.91997 6.41769 7.72771 6.65196 7.61418 6.92605C7.50065 7.20014 7.47094 7.50174 7.52882 7.79271C7.5867 8.08368 7.72956 8.35095 7.93934 8.56073C8.14912 8.77051 8.41639 8.91337 8.70737 8.97125C8.99834 9.02913 9.29994 8.99942 9.57403 8.88589C9.84811 8.77236 10.0824 8.5801 10.2472 8.33343C10.412 8.08675 10.5 7.79674 10.5 7.50007C10.5019 7.30255 10.4645 7.10662 10.3898 6.92375C10.3151 6.74089 10.2047 6.57476 10.065 6.43508C9.92532 6.2954 9.75918 6.18499 9.57632 6.11029C9.39345 6.0356 9.19752 5.99813 9 6.00007V6.00007Z" fill="#459F5E"/>
<path d="M13.3018 22.5L12 21.75L15 16.5H19.5C19.6971 16.5003 19.8923 16.4618 20.0744 16.3865C20.2566 16.3112 20.4221 16.2008 20.5614 16.0614C20.7008 15.9221 20.8112 15.7566 20.8865 15.5744C20.9618 15.3923 21.0003 15.1971 21 15V4.5C21.0003 4.30292 20.9618 4.10772 20.8865 3.92558C20.8112 3.74344 20.7008 3.57795 20.5614 3.43859C20.4221 3.29924 20.2566 3.18876 20.0744 3.1135C19.8923 3.03823 19.6971 2.99966 19.5 3H4.5C4.30292 2.99966 4.10772 3.03823 3.92558 3.1135C3.74344 3.18876 3.57795 3.29924 3.43859 3.43859C3.29924 3.57795 3.18876 3.74344 3.1135 3.92558C3.03823 4.10772 2.99966 4.30292 3 4.5V15C2.99966 15.1971 3.03823 15.3923 3.1135 15.5744C3.18876 15.7566 3.29924 15.9221 3.43859 16.0614C3.57795 16.2008 3.74344 16.3112 3.92558 16.3865C4.10772 16.4618 4.30292 16.5003 4.5 16.5H11.25V18H4.5C4.10601 18.0001 3.71588 17.9225 3.35187 17.7718C2.98786 17.621 2.65712 17.4001 2.37853 17.1215C2.09994 16.8429 1.87896 16.5121 1.72822 16.1481C1.57748 15.7841 1.49993 15.394 1.5 15V4.5C1.49988 4.106 1.5774 3.71584 1.72812 3.35181C1.87884 2.98778 2.09982 2.65702 2.37842 2.37842C2.65702 2.09982 2.98778 1.87884 3.35181 1.72812C3.71584 1.5774 4.106 1.49988 4.5 1.5H19.5C19.894 1.49988 20.2842 1.5774 20.6482 1.72812C21.0122 1.87884 21.343 2.09982 21.6216 2.37842C21.9002 2.65702 22.1212 2.98778 22.2719 3.35181C22.4226 3.71584 22.5001 4.106 22.5 4.5V15C22.5001 15.394 22.4225 15.7841 22.2718 16.1481C22.121 16.5121 21.9001 16.8429 21.6215 17.1215C21.3429 17.4001 21.0121 17.621 20.6481 17.7718C20.2841 17.9225 19.894 18.0001 19.5 18H15.8735L13.3018 22.5Z" fill="#459F5E"/>
</g>
<defs>
<clipPath id="clip0_14028_119347">
<rect width="24" height="24" fill="white"/>
</clipPath>
</defs>
</svg>
