<svg width="24" height="24" viewBox="0 0 24 24" fill="none" xmlns="http://www.w3.org/2000/svg">
<g clip-path="url(#clip0_14028_119343)">
<path d="M11.5826 1.5C5.9363 1.5 1.44824 6.15 1.44824 12C1.44824 17.85 5.9363 22.5 11.5826 22.5C17.2288 22.5 21.7169 17.85 21.7169 12C21.7169 6.15 17.2288 1.5 11.5826 1.5ZM11.5826 21C6.80496 21 2.896 16.95 2.896 12C2.896 7.05 6.80496 3 11.5826 3C16.3602 3 20.2691 7.05 20.2691 12C20.2691 16.95 16.3602 21 11.5826 21Z" fill="#459F5E"/>
<path d="M12.0427 14.7969H10.5895C10.5947 14.2969 10.639 13.888 10.7223 13.5703C10.8109 13.2474 10.9541 12.9531 11.152 12.6875C11.3499 12.4219 11.613 12.1198 11.9411 11.7812C12.1807 11.5365 12.3994 11.3073 12.5973 11.0938C12.8005 10.875 12.9645 10.6406 13.0895 10.3906C13.2145 10.1354 13.277 9.83073 13.277 9.47656C13.277 9.11719 13.2119 8.80729 13.0817 8.54688C12.9567 8.28646 12.7692 8.08594 12.5192 7.94531C12.2744 7.80469 11.9697 7.73438 11.6052 7.73438C11.3031 7.73438 11.0166 7.78906 10.7458 7.89844C10.4749 8.00781 10.2562 8.17708 10.0895 8.40625C9.92286 8.63021 9.83692 8.92448 9.83172 9.28906H8.3864C8.39682 8.70052 8.54265 8.19531 8.8239 7.77344C9.11036 7.35156 9.49578 7.02865 9.98015 6.80469C10.4645 6.58073 11.0062 6.46875 11.6052 6.46875C12.2666 6.46875 12.8291 6.58854 13.2927 6.82812C13.7614 7.06771 14.1182 7.41146 14.363 7.85938C14.6078 8.30208 14.7302 8.82812 14.7302 9.4375C14.7302 9.90625 14.6338 10.3385 14.4411 10.7344C14.2536 11.125 14.0114 11.4922 13.7145 11.8359C13.4177 12.1797 13.1025 12.5078 12.7692 12.8203C12.4828 13.0859 12.29 13.3854 12.1911 13.7188C12.0921 14.0521 12.0427 14.4115 12.0427 14.7969ZM10.527 17.2734C10.527 17.0391 10.5999 16.8411 10.7458 16.6797C10.8916 16.5182 11.1025 16.4375 11.3786 16.4375C11.6598 16.4375 11.8734 16.5182 12.0192 16.6797C12.165 16.8411 12.238 17.0391 12.238 17.2734C12.238 17.4974 12.165 17.6901 12.0192 17.8516C11.8734 18.013 11.6598 18.0938 11.3786 18.0938C11.1025 18.0938 10.8916 18.013 10.7458 17.8516C10.5999 17.6901 10.527 17.4974 10.527 17.2734Z" fill="#459F5E"/>
</g>
<defs>
<clipPath id="clip0_14028_119343">
<rect width="23.1642" height="24" fill="white"/>
</clipPath>
</defs>
</svg>
