<svg width="56" height="56" viewBox="0 0 56 56" fill="none" xmlns="http://www.w3.org/2000/svg">
<circle cx="28" cy="28" r="28" fill="#F1FAF3"/>
<g clip-path="url(#clip0_906_59699)">
<path d="M28 32.333C27.7033 32.333 27.4133 32.421 27.1666 32.5858C26.92 32.7506 26.7277 32.9849 26.6142 33.259C26.5006 33.5331 26.4709 33.8347 26.5288 34.1256C26.5867 34.4166 26.7296 34.6839 26.9393 34.8937C27.1491 35.1034 27.4164 35.2463 27.7074 35.3042C27.9983 35.3621 28.2999 35.3324 28.574 35.2188C28.8481 35.1053 29.0824 34.913 29.2472 34.6664C29.412 34.4197 29.5 34.1297 29.5 33.833C29.5 33.4352 29.342 33.0537 29.0607 32.7723C28.7794 32.491 28.3978 32.333 28 32.333Z" fill="#459F5E"/>
<path d="M29 21.333H27V30.333H29V21.333Z" fill="#459F5E"/>
<path d="M41 39.333H15C14.8282 39.333 14.6593 39.2888 14.5096 39.2045C14.3598 39.1202 14.2344 38.9988 14.1452 38.852C14.056 38.7051 14.0062 38.5378 14.0005 38.366C13.9949 38.1943 14.0335 38.024 14.1128 37.8716L27.1128 12.8716C27.1972 12.7093 27.3246 12.5732 27.4811 12.4782C27.6375 12.3832 27.817 12.333 28 12.333C28.183 12.333 28.3625 12.3832 28.519 12.4782C28.6754 12.5732 28.8028 12.7093 28.8872 12.8716L41.8872 37.8716C41.9665 38.024 42.0051 38.1943 41.9995 38.366C41.9938 38.5378 41.944 38.7051 41.8548 38.852C41.7657 38.9988 41.6402 39.1202 41.4904 39.2045C41.3407 39.2888 41.1718 39.333 41 39.333ZM16.6507 37.333H39.3493L39.3513 37.3297L28.002 15.5044H27.998L16.6487 37.3297L16.6507 37.333Z" fill="#459F5E"/>
</g>
<defs>
<clipPath id="clip0_906_59699">
<rect width="32" height="32" fill="white" transform="translate(12 12)"/>
</clipPath>
</defs>
</svg>
