<svg width="223" height="25" viewBox="0 0 223 25" fill="none" xmlns="http://www.w3.org/2000/svg">
<g clip-path="url(#clip0_877_22155)">
<path d="M38.6988 19.9006V12.3284C38.6988 10.9564 38.3846 9.80433 37.7667 8.89315C37.1592 7.9715 36.3109 7.29074 35.2426 6.82991C34.1743 6.36908 32.949 6.13867 31.577 6.13867C30.4354 6.13867 29.3985 6.2853 28.4664 6.57855C27.5447 6.8718 26.7592 7.28026 26.0889 7.80393C25.4186 8.31712 24.9159 8.9141 24.5703 9.58439C24.2247 10.2652 24.0466 10.9773 24.0466 11.7314H28.7596C28.7596 11.2811 28.8644 10.8936 29.0738 10.5689C29.2833 10.2337 29.5766 9.9719 29.9536 9.80433C30.3306 9.61581 30.7915 9.52155 31.3151 9.52155C31.9226 9.52155 32.4253 9.63676 32.8023 9.86717C33.2003 10.0976 33.4831 10.4223 33.6716 10.8307C33.8601 11.2392 33.9544 11.7209 33.9544 12.2865V13.3862H31.8388C30.4877 13.3862 29.2938 13.5119 28.2674 13.7842C27.241 14.0355 26.3822 14.4126 25.7014 14.9153C25.0207 15.4075 24.5075 16.015 24.1618 16.7272C23.8162 17.4394 23.6382 18.2668 23.6382 19.1989C23.6382 20.2253 23.9 21.1364 24.4237 21.9429C24.9578 22.7389 25.6805 23.3673 26.5812 23.8281C27.5028 24.2784 28.5187 24.4984 29.6394 24.4984C30.5191 24.4984 31.2837 24.3727 31.933 24.1004C32.5719 23.8281 33.127 23.4825 33.5878 23.074C33.7868 22.8855 33.9649 22.697 34.1429 22.498C34.2581 23.1578 34.4257 23.7234 34.6352 24.1737H39.4005V23.8909C39.1701 23.4301 38.9921 22.896 38.8768 22.2885C38.7616 21.6706 38.6988 20.8746 38.6988 19.9006ZM32.53 20.5499C32.0064 20.8327 31.3884 20.9794 30.6762 20.9794C30.205 20.9794 29.7965 20.8956 29.4509 20.7175C29.1053 20.529 28.8329 20.2776 28.6444 19.9634C28.4559 19.6388 28.3616 19.2722 28.3616 18.8637C28.3616 18.4553 28.4245 18.0887 28.5606 17.7536C28.7073 17.4184 28.9167 17.1252 29.21 16.8738C29.5032 16.612 29.8803 16.413 30.3411 16.2664C30.8019 16.1197 31.3361 16.0569 31.9645 16.0569H33.9439V19.1256C33.8811 19.2513 33.8287 19.3769 33.7345 19.5131C33.4517 19.932 33.0432 20.2776 32.5195 20.5604L32.53 20.5499Z" fill="#3A375F"/>
<path d="M50.596 20.7061C50.3656 20.727 50.1038 20.7375 49.8105 20.7375C49.3916 20.7375 49.0564 20.6851 48.7841 20.5909C48.5118 20.4861 48.3024 20.2871 48.1662 20.0148C48.0405 19.7425 47.9672 19.3445 47.9672 18.8418V9.80335H51.0149V6.46237H47.9672V3.70788C47.9672 2.95381 48.449 2.51393 48.7213 2.38825C49.046 2.23115 49.0669 2.10547 48.847 2.10547H43.2542V6.46237H40.6987V9.80335H43.2542V19.3131C43.2542 20.5594 43.4637 21.5649 43.8721 22.3294C44.2911 23.094 44.8776 23.6491 45.6421 23.9947C46.4172 24.3298 47.3179 24.4974 48.3547 24.4974C48.9203 24.4974 49.4439 24.4555 49.9048 24.3822C50.3761 24.3089 50.8055 24.2041 51.2139 24.068L51.193 20.6013C51.0254 20.6328 50.8264 20.6642 50.5855 20.6956L50.596 20.7061Z" fill="#3A375F"/>
<path d="M81.0427 6.13867C80.2153 6.13867 79.4822 6.33766 78.8328 6.72518C78.194 7.12316 77.6389 7.67825 77.199 8.39043C77.1466 8.47422 77.1152 8.57895 77.0629 8.66274L76.9058 6.45287H72.4755V22.5294C72.4755 23.3044 71.9938 23.7443 71.7215 23.8805C71.3968 24.0376 71.3759 24.1632 71.5958 24.1632H77.1885V12.5379C77.3456 12.1818 77.5342 11.8571 77.796 11.5848C78.1207 11.2601 78.5291 11.0088 79.0109 10.8517C79.5031 10.6736 80.0792 10.5898 80.7495 10.5898C81.0113 10.5898 81.3045 10.6108 81.6187 10.6422C81.9434 10.6631 82.2262 10.6946 82.4566 10.726L82.5404 6.35861C82.3624 6.29577 82.1424 6.2434 81.8701 6.21198C81.5978 6.17009 81.3255 6.14914 81.0637 6.14914L81.0427 6.13867Z" fill="#3A375F"/>
<path d="M99.8316 14.8106C99.8316 13.5119 99.6641 12.3389 99.3289 11.2706C98.9938 10.2023 98.4911 9.28067 97.8208 8.52659C97.1714 7.76204 96.3545 7.17553 95.3805 6.7566C94.4065 6.33766 93.2963 6.13867 92.0395 6.13867C90.7827 6.13867 89.5992 6.35861 88.5728 6.80896C87.5464 7.24884 86.6772 7.87724 85.9545 8.69416C85.2423 9.51108 84.6977 10.4746 84.3207 11.5953C83.9436 12.7159 83.7446 13.9308 83.7446 15.2819V15.9312C83.7446 17.1042 83.9436 18.2249 84.3521 19.2722C84.7605 20.3091 85.3366 21.2202 86.0906 22.0057C86.8552 22.7912 87.7769 23.4092 88.8766 23.8595C89.9658 24.2994 91.2016 24.5089 92.5736 24.5089C93.7152 24.5089 94.7416 24.3518 95.6318 24.048C96.5221 23.7338 97.2866 23.3254 97.9255 22.8331C98.5644 22.3409 99.0776 21.8277 99.4441 21.2936L97.1505 18.8009C96.6163 19.4817 95.9775 19.9844 95.2339 20.3195C94.5007 20.6442 93.7152 20.8118 92.8564 20.8118C92.1652 20.8118 91.5577 20.6966 91.0026 20.4557C90.4685 20.2148 90.0077 19.8797 89.6306 19.4398C89.2641 18.9999 88.9708 18.4867 88.7613 17.8897C88.6461 17.5441 88.5728 17.1671 88.5309 16.7796H99.8316V14.8106ZM95.2024 13.6376H88.5938C88.6147 13.4595 88.6357 13.2815 88.6671 13.1139C88.8137 12.4436 89.0127 11.8676 89.285 11.3753C89.5678 10.8831 89.9344 10.506 90.3847 10.2337C90.8351 9.96143 91.3692 9.82528 91.9871 9.82528C92.7203 9.82528 93.3172 9.98238 93.7885 10.2861C94.2598 10.5898 94.6055 11.0088 94.8359 11.5324C95.0768 12.0456 95.192 12.6321 95.192 13.2815V13.6376H95.2024Z" fill="#3A375F"/>
<path d="M21.3027 0.34668H15.5319V16.329L5.92784 0.34668H1.02633V22.5396C1.02633 23.3146 0.544561 23.7545 0.272255 23.8907C-0.0524181 24.0478 -0.0733647 24.1735 0.146575 24.1735H5.92784V8.20166L15.5004 24.1735H20.4124V1.98052C20.4124 1.20549 20.8942 0.765612 21.1665 0.629459C21.4912 0.472359 21.5121 0.34668 21.2922 0.34668H21.3027Z" fill="#3A375F"/>
<path d="M69.752 6.46289H64.1593V18.9785C63.9184 19.4707 63.5832 19.8792 63.1329 20.1934C62.5778 20.5914 61.8132 20.7799 60.8392 20.7799C60.4622 20.7799 60.1061 20.7275 59.7919 20.6333C59.4882 20.539 59.2159 20.3714 58.9855 20.141C58.755 19.9106 58.577 19.6174 58.4408 19.2613C58.3256 18.9052 58.2628 18.4548 58.2628 17.9312V7.9501C58.3256 7.27981 58.7446 6.87135 58.9959 6.75614C59.3206 6.59904 59.3415 6.47336 59.1216 6.47336H53.5498V17.9102C53.5498 19.0832 53.6964 20.0991 53.9792 20.937C54.2725 21.7644 54.6809 22.4452 55.1941 22.9793C55.7178 23.503 56.3357 23.8905 57.0584 24.1418C57.7915 24.3827 58.5875 24.4979 59.4463 24.4979C60.5669 24.4979 61.5514 24.2989 62.3788 23.8905C63.1538 23.503 63.7927 22.9688 64.3164 22.2985L64.442 24.1628H68.8723V8.09673C68.8723 7.3217 69.354 6.88182 69.6263 6.74567C69.951 6.58857 69.972 6.46289 69.752 6.46289Z" fill="#3A375F"/>
<path d="M109.237 8.09587C109.446 7.1428 109.75 6.3573 110.169 5.73937C110.588 5.12145 111.101 4.65015 111.708 4.34642C112.316 4.0427 113.038 3.8856 113.855 3.8856C114.945 3.8856 115.824 4.06364 116.474 4.40926C117.144 4.74441 117.636 5.2576 117.961 5.92789C118.286 6.59819 118.474 7.40463 118.537 8.36817H123.449C123.292 6.75528 122.841 5.30997 122.077 4.05317C121.323 2.7859 120.265 1.79094 118.883 1.07875C117.521 0.356093 115.845 0 113.855 0C112.358 0 111.007 0.272306 109.792 0.806445C108.577 1.34058 107.54 2.10514 106.671 3.1001C105.812 4.09506 105.142 5.29949 104.67 6.71339C104.209 8.11681 103.979 9.69829 103.979 11.4473V13.1021C103.979 14.8512 104.199 16.4221 104.649 17.836C105.1 19.2395 105.749 20.4439 106.597 21.4389C107.456 22.4338 108.493 23.1984 109.708 23.7325C110.923 24.2562 112.284 24.518 113.813 24.518C115.761 24.518 117.437 24.1724 118.82 23.4707C120.213 22.769 121.302 21.8054 122.077 20.5591C122.862 19.3128 123.302 17.8884 123.407 16.286H118.516C118.453 17.2495 118.233 18.0455 117.877 18.6949C117.531 19.3337 117.018 19.826 116.358 20.1506C115.688 20.4753 114.85 20.6429 113.824 20.6429C112.955 20.6429 112.201 20.4858 111.583 20.1716C110.975 19.8469 110.472 19.3651 110.074 18.7263C109.697 18.0874 109.404 17.3019 109.226 16.3698C109.038 15.4272 108.943 14.3484 108.943 13.1126V11.4264C108.943 10.1591 109.038 9.05941 109.237 8.11681V8.09587Z" fill="#459F5E"/>
<path d="M140.175 8.70339C139.463 7.89694 138.583 7.26854 137.535 6.81819C136.488 6.35737 135.294 6.12695 133.954 6.12695C132.613 6.12695 131.419 6.35737 130.382 6.81819C129.345 7.26854 128.476 7.89694 127.764 8.70339C127.052 9.50983 126.518 10.4629 126.141 11.5626C125.774 12.6518 125.585 13.8458 125.585 15.1445V15.4901C125.585 16.7783 125.774 17.9723 126.141 19.072C126.507 20.1612 127.052 21.1143 127.764 21.9312C128.487 22.7376 129.366 23.366 130.403 23.8164C131.451 24.2667 132.644 24.4867 133.985 24.4867C135.326 24.4867 136.52 24.2667 137.556 23.8164C138.593 23.366 139.463 22.7376 140.175 21.9312C140.897 21.1143 141.442 20.1612 141.809 19.072C142.175 17.9723 142.364 16.7783 142.364 15.4901V15.1445C142.364 13.8458 142.175 12.6518 141.809 11.5626C141.442 10.4629 140.887 9.50983 140.175 8.70339ZM137.64 15.4901C137.64 16.2337 137.567 16.9249 137.431 17.5638C137.305 18.2027 137.096 18.7787 136.813 19.2605C136.53 19.7423 136.153 20.1193 135.682 20.3916C135.21 20.6639 134.655 20.8001 133.996 20.8001C133.336 20.8001 132.749 20.6639 132.278 20.3916C131.807 20.1193 131.43 19.7423 131.136 19.2605C130.854 18.7682 130.644 18.2027 130.518 17.5638C130.393 16.9249 130.319 16.2232 130.319 15.4901V15.1445C130.319 14.4218 130.382 13.7515 130.518 13.1127C130.644 12.4738 130.854 11.8977 131.136 11.416C131.43 10.9133 131.807 10.5257 132.267 10.243C132.739 9.96018 133.304 9.81356 133.964 9.81356C134.624 9.81356 135.2 9.96018 135.661 10.243C136.132 10.5257 136.509 10.9237 136.792 11.416C137.085 11.9082 137.295 12.4738 137.431 13.1127C137.577 13.741 137.64 14.4218 137.64 15.1445V15.4901Z" fill="#459F5E"/>
<path d="M191.096 20.7058C190.866 20.7267 190.604 20.7372 190.311 20.7372C189.892 20.7372 189.557 20.6848 189.284 20.5906C189.012 20.4859 188.803 20.2869 188.666 20.0146C188.53 19.7423 188.467 19.3443 188.467 18.8415V9.80308H191.515V6.4621H188.467V3.60288C188.52 2.91164 188.949 2.50319 189.201 2.37751C189.525 2.22041 189.546 2.09473 189.326 2.09473H183.744V6.4621H181.188V9.80308H183.744V19.3128C183.744 20.5592 183.953 21.5646 184.362 22.3292C184.781 23.0937 185.367 23.6488 186.132 23.9944C186.907 24.3296 187.808 24.4971 188.844 24.4971C189.41 24.4971 189.934 24.4552 190.395 24.3819C190.866 24.3086 191.295 24.2039 191.704 24.0677L191.683 20.6011C191.515 20.6325 191.316 20.6639 191.075 20.6953L191.096 20.7058Z" fill="#459F5E"/>
<path d="M207.592 8.52561C206.942 7.76106 206.125 7.17455 205.151 6.75562C204.177 6.33669 203.067 6.1377 201.81 6.1377C200.554 6.1377 199.37 6.35763 198.344 6.80799C197.317 7.24787 196.448 7.87626 195.725 8.69318C195.013 9.5101 194.469 10.4736 194.092 11.5943C193.715 12.7149 193.516 13.9298 193.516 15.2809V15.9302C193.516 17.1033 193.715 18.2239 194.123 19.2712C194.532 20.3081 195.108 21.2193 195.862 22.0048C196.626 22.7903 197.548 23.4082 198.648 23.8585C199.737 24.2984 200.973 24.5079 202.345 24.5079C203.486 24.5079 204.513 24.3508 205.403 24.0471C206.293 23.7329 207.058 23.3244 207.696 22.8321C208.335 22.3399 208.849 21.8267 209.215 21.2926L206.921 18.7999C206.387 19.4807 205.748 19.9834 205.005 20.3186C204.272 20.6432 203.486 20.8108 202.627 20.8108C201.936 20.8108 201.329 20.6956 200.774 20.4547C200.239 20.2138 199.779 19.8787 199.402 19.4388C199.035 18.9989 198.742 18.4857 198.532 17.8887C198.417 17.5431 198.344 17.1661 198.302 16.7786H209.603V14.8096C209.603 13.5109 209.435 12.3379 209.1 11.2696C208.765 10.2013 208.262 9.27969 207.592 8.52561ZM204.973 13.6366H198.365C198.386 13.4585 198.407 13.2805 198.438 13.1129C198.585 12.4426 198.784 11.8666 199.056 11.3743C199.339 10.8821 199.705 10.5051 200.156 10.2328C200.606 9.96045 201.14 9.8243 201.758 9.8243C202.491 9.8243 203.088 9.9814 203.56 10.2851C204.031 10.5889 204.376 11.0078 204.607 11.5314C204.848 12.0446 204.963 12.6311 204.963 13.2805V13.6366H204.973Z" fill="#459F5E"/>
<path d="M177.69 7.64514C177.198 7.12148 176.611 6.74444 175.92 6.50355C175.229 6.26267 174.475 6.14746 173.647 6.14746C172.6 6.14746 171.647 6.34645 170.798 6.75491C169.961 7.1529 169.238 7.71846 168.62 8.47254C168.589 8.51443 168.557 8.5668 168.526 8.61916L168.358 6.48261H163.938V22.5591C163.938 23.3342 163.457 23.774 163.184 23.9102C162.86 24.0673 162.839 24.193 163.059 24.193H168.651V11.6459C168.725 11.5203 168.788 11.3736 168.861 11.2584C169.165 10.8081 169.552 10.4625 170.002 10.2111C170.474 9.95975 171.018 9.83407 171.657 9.83407C172.296 9.83407 172.778 9.92833 173.197 10.1168C173.626 10.2949 173.94 10.5986 174.16 11.0385C174.38 11.4784 174.485 12.0858 174.485 12.8713V22.6534C174.443 23.3551 174.003 23.7636 173.752 23.8892C173.427 24.0463 173.406 24.172 173.626 24.172H179.24V12.8818C179.24 11.6355 179.104 10.5881 178.831 9.71886C178.57 8.86005 178.193 8.16881 177.69 7.64514Z" fill="#459F5E"/>
<path d="M221.668 6.20054C221.395 6.15864 221.123 6.1377 220.861 6.1377C220.034 6.1377 219.301 6.33669 218.651 6.7242C218.012 7.12219 217.457 7.67727 217.017 8.38946C216.965 8.47324 216.934 8.57798 216.881 8.66176L216.724 6.45189H212.294V22.5284C212.294 23.3034 211.812 23.7433 211.54 23.8795C211.215 24.0366 211.194 24.1623 211.414 24.1623H217.007V12.5369C217.164 12.1808 217.353 11.8561 217.614 11.5838C217.939 11.2591 218.347 11.0078 218.829 10.8507C219.322 10.6726 219.898 10.5889 220.568 10.5889C220.83 10.5889 221.123 10.6098 221.437 10.6412C221.762 10.6622 222.045 10.6936 222.275 10.725L222.359 6.35763C222.181 6.2948 221.961 6.24243 221.688 6.21101L221.668 6.20054Z" fill="#459F5E"/>
<path d="M161.331 6.46191H155.738V18.9775C155.497 19.4698 155.162 19.8782 154.711 20.1924C154.156 20.5904 153.392 20.7789 152.418 20.7789C152.041 20.7789 151.685 20.7266 151.371 20.6323C151.067 20.538 150.794 20.3705 150.564 20.1401C150.334 19.9096 150.156 19.6164 150.019 19.2603C149.904 18.9042 149.841 18.4539 149.841 17.9302V8.08528C149.841 7.32073 150.323 6.88085 150.595 6.75517C150.92 6.59807 150.941 6.47239 150.721 6.47239H145.128V17.9092C145.128 19.0823 145.275 20.0982 145.558 20.936C145.851 21.7634 146.26 22.4442 146.773 22.9783C147.296 23.502 147.914 23.8895 148.637 24.1409C149.37 24.3817 150.166 24.497 151.025 24.497C152.146 24.497 153.13 24.298 153.957 23.8895C154.732 23.502 155.371 22.9679 155.895 22.2976L156.021 24.1618H160.451V8.09575C160.451 7.32073 160.933 6.88085 161.205 6.74469C161.53 6.58759 161.551 6.46191 161.331 6.46191Z" fill="#459F5E"/>
</g>
<defs>
<clipPath id="clip0_877_22155">
<rect width="222.338" height="24.4971" fill="white"/>
</clipPath>
</defs>
</svg>
