<svg width="200" height="200" viewBox="0 0 200 200" fill="none" xmlns="http://www.w3.org/2000/svg">
<g clip-path="url(#clip0_103_72811)">
<rect x="-29.0615" y="-35.5557" width="257.948" height="257.972" rx="68.4799" fill="#F1FAF3"/>
<ellipse cx="99.9126" cy="93.4305" rx="128.974" ry="128.986" fill="#F1FAF3"/>
<path d="M93.1723 156.934C92.569 126.768 100.412 95.3943 117.303 75.4844C91.3625 76.691 71.4544 94.791 65.4216 115.304C75.3283 132.027 91.3625 154.521 93.1723 156.934Z" fill="#3A375F"/>
<ellipse cx="71.4549" cy="62.8145" rx="15.6851" ry="15.6866" fill="#3A375F"/>
<path d="M172.668 17.1612C177.28 14.0169 182.148 10.9302 187.283 7.91211C182.213 11.011 177.341 14.088 172.668 17.1612C98.1882 67.9463 90.5996 133.791 103.103 169.264L99.2049 171.415L89.8254 155.125L68.982 118.925C70.2464 126.768 58.7855 168.398 40.084 193.135C58.2751 165.854 60.3852 143.739 61.5235 113.338L64.215 110.646L68.982 118.925L89.8254 155.125C89.8254 89.4723 117.297 53.5783 172.668 17.1612Z" fill="#459F5E"/>
<path fill-rule="evenodd" clip-rule="evenodd" d="M190.301 6.10189C191.294 7.75861 190.766 9.90607 189.118 10.9133C184.085 13.9894 179.255 17.0401 174.627 20.0837C101.371 70.0471 94.4957 134.258 106.422 168.093C106.994 169.715 106.309 171.513 104.803 172.343L100.905 174.495C99.2256 175.421 97.1131 174.832 96.1558 173.169L71.3033 130.007C71.2275 130.368 71.1485 130.735 71.0665 131.107C69.8435 136.654 67.9043 143.501 65.3433 150.851C60.2383 165.504 52.5519 182.477 42.8911 195.256C41.7436 196.773 39.5974 197.104 38.0463 196.002C36.4951 194.9 36.101 192.765 37.1566 191.181C54.7908 164.736 56.8755 143.437 58.0074 113.205C58.0406 112.318 58.4078 111.476 59.0355 110.848L61.727 108.157C62.501 107.383 63.5912 107.013 64.6765 107.156C65.7618 107.3 66.7184 107.94 67.2647 108.889L86.6566 142.568C88.2311 115.101 95.1313 92.8052 107.512 73.2933C121.68 50.9646 142.849 32.5633 170.711 14.2361C175.382 11.052 180.308 7.9289 185.5 4.87726C187.166 3.89859 189.309 4.44518 190.301 6.10189ZM95.2902 127.128C94.0348 135.536 93.3857 144.519 93.3463 154.186L96.9723 160.484C94.8145 150.631 94.054 139.311 95.2902 127.128ZM65.5535 120.021L64.8259 118.757C64.6639 122.42 64.473 125.978 64.224 129.455C64.7855 126.893 65.1686 124.694 65.3762 122.937C65.5366 121.579 65.5743 120.625 65.5535 120.021Z" fill="#459F5E"/>
</g>
<defs>
<clipPath id="clip0_103_72811">
<rect width="200" height="200" rx="100" fill="white"/>
</clipPath>
</defs>
</svg>
