<svg width="217" height="222" viewBox="0 0 217 222" fill="none" xmlns="http://www.w3.org/2000/svg">
<ellipse cx="107.342" cy="137.131" rx="75.3449" ry="75.3519" fill="#F1FAF3"/>
<path d="M103.324 185.357C102.821 160.239 109.351 134.117 123.416 117.54C101.817 118.545 85.2408 133.615 80.2178 150.695C88.4662 164.619 101.817 183.347 103.324 185.357Z" fill="#3A375F"/>
<ellipse cx="85.2414" cy="106.991" rx="13.0598" ry="13.061" fill="#3A375F"/>
<path d="M169.514 68.9783C173.354 66.3603 177.407 63.7903 181.683 61.2773C177.461 63.8575 173.405 66.4195 169.514 68.9783C107.5 111.263 101.182 166.087 111.593 195.622L108.347 197.413L100.537 183.85L83.1827 153.709C84.2354 160.24 74.6929 194.901 59.1216 215.498C74.2678 192.783 76.0248 174.37 76.9725 149.057L79.2136 146.816L83.1827 153.709L100.537 183.85C100.537 129.186 123.411 99.2999 169.514 68.9783Z" fill="#459F5E"/>
<path fill-rule="evenodd" clip-rule="evenodd" d="M184.196 59.7707C185.022 61.1501 184.583 62.9381 183.21 63.7768C179.02 66.338 174.998 68.8781 171.144 71.4123C110.15 113.013 104.426 166.476 114.356 194.648C114.832 195.998 114.262 197.495 113.008 198.187L109.762 199.978C108.364 200.75 106.605 200.259 105.808 198.875L85.1151 162.937C85.052 163.237 84.9862 163.543 84.9179 163.853C83.8996 168.471 82.285 174.172 80.1527 180.292C75.9021 192.492 69.5022 206.625 61.4585 217.264C60.5031 218.528 58.7161 218.803 57.4246 217.886C56.1331 216.968 55.8049 215.19 56.6839 213.872C71.3664 191.852 73.1022 174.119 74.0447 148.947C74.0723 148.208 74.3781 147.508 74.9006 146.985L77.1417 144.744C77.7861 144.099 78.6939 143.791 79.5975 143.911C80.5011 144.03 81.2976 144.563 81.7524 145.353L97.8985 173.395C99.2096 150.526 104.955 131.962 115.263 115.716C127.059 97.1244 144.685 81.803 167.884 66.5434C171.773 63.8923 175.875 61.2919 180.198 58.751C181.585 57.9362 183.369 58.3913 184.196 59.7707ZM105.087 160.539C104.042 167.54 103.501 175.02 103.469 183.069L106.488 188.312C104.691 180.108 104.058 170.684 105.087 160.539ZM80.3277 154.622L79.7218 153.57C79.587 156.619 79.4281 159.582 79.2207 162.477C79.6883 160.344 80.0072 158.513 80.1801 157.05C80.3136 155.92 80.345 155.125 80.3277 154.622Z" fill="#459F5E"/>
<path fill-rule="evenodd" clip-rule="evenodd" d="M164.351 61.6236C168.274 59.986 178.876 54.4757 182.587 41.5953C186.281 28.7729 182.424 11.149 180.779 4.76152C180.425 16.7453 179.633 26.0666 178.055 33.7948C176.446 41.6791 174.017 47.911 170.402 53.6311C168.666 56.378 166.661 58.9993 164.351 61.6236ZM179.364 2.92773C175.846 5.82174 160.928 18.7936 156.523 34.0852C152.164 49.216 160.206 59.2988 162.359 61.6531C165.003 58.745 167.246 55.8789 169.149 52.8723C170.957 49.4418 170.714 46.1504 169.148 43.4343C167.564 40.6856 164.591 38.4734 160.879 37.3642C160.491 37.2483 160.271 36.8402 160.386 36.4526C160.502 36.0651 160.91 35.8447 161.298 35.9606C165.297 37.1554 168.611 39.5698 170.417 42.7028C171.346 44.3135 171.866 46.1003 171.88 47.9799C173.951 43.7292 175.488 39.046 176.62 33.5017C178.25 25.5179 179.038 15.7548 179.364 2.92773Z" fill="#459F5E"/>
<path d="M182.587 41.5953L182.449 41.5556L182.587 41.5953ZM164.351 61.6236L164.243 61.5288C164.199 61.5789 164.195 61.6529 164.234 61.7072C164.273 61.7615 164.345 61.7817 164.406 61.756L164.351 61.6236ZM180.779 4.76152L180.918 4.72573C180.9 4.65653 180.834 4.61099 180.763 4.61893C180.692 4.62687 180.638 4.68585 180.636 4.75728L180.779 4.76152ZM178.055 33.7948L177.915 33.7661L178.055 33.7948ZM170.402 53.6311L170.523 53.7078L170.402 53.6311ZM156.523 34.0852L156.385 34.0455L156.523 34.0852ZM179.364 2.92773L179.508 2.93138C179.509 2.87523 179.477 2.82342 179.427 2.79879C179.377 2.77416 179.316 2.78125 179.273 2.81693L179.364 2.92773ZM162.359 61.6531L162.253 61.7499C162.28 61.7797 162.318 61.7966 162.359 61.7966C162.399 61.7965 162.438 61.7795 162.465 61.7496L162.359 61.6531ZM169.149 52.8723L169.27 52.9493L169.276 52.9392L169.149 52.8723ZM169.148 43.4343L169.024 43.5059L169.148 43.4343ZM160.879 37.3642L160.837 37.5016L160.879 37.3642ZM160.386 36.4526L160.249 36.4116L160.386 36.4526ZM161.298 35.9606L161.257 36.098H161.257L161.298 35.9606ZM170.417 42.7028L170.293 42.7744L170.417 42.7028ZM171.88 47.9799L171.736 47.981C171.737 48.0476 171.783 48.1051 171.848 48.1198C171.913 48.1346 171.98 48.1026 172.009 48.0428L171.88 47.9799ZM176.62 33.5017L176.761 33.5304L176.62 33.5017ZM182.449 41.5556C178.757 54.3731 168.204 59.8596 164.296 61.4912L164.406 61.756C168.343 60.1125 178.996 54.5783 182.725 41.635L182.449 41.5556ZM180.64 4.7973C181.462 7.98706 182.835 13.9825 183.543 20.7802C184.25 27.5803 184.289 35.1704 182.449 41.5556L182.725 41.635C184.579 35.1978 184.537 27.5648 183.828 20.7505C183.119 13.9337 181.742 7.92342 180.918 4.72573L180.64 4.7973ZM180.636 4.75728C180.282 16.7381 179.49 26.0498 177.915 33.7661L178.196 33.8235C179.776 26.0833 180.569 16.7525 180.923 4.76575L180.636 4.75728ZM177.915 33.7661C176.308 41.636 173.885 47.8512 170.281 53.5545L170.523 53.7078C174.149 47.9708 176.583 41.7221 178.196 33.8235L177.915 33.7661ZM170.281 53.5545C168.549 56.2939 166.549 58.9092 164.243 61.5288L164.459 61.7184C166.773 59.0894 168.783 56.462 170.523 53.7078L170.281 53.5545ZM156.661 34.1249C158.855 26.5074 163.671 19.4599 168.385 13.9507C173.098 8.44302 177.7 4.48243 179.455 3.03854L179.273 2.81693C177.51 4.26705 172.894 8.23941 168.167 13.7641C163.442 19.2872 158.596 26.3714 156.385 34.0455L156.661 34.1249ZM162.465 61.5563C160.326 59.2168 152.322 49.1848 156.661 34.1249L156.385 34.0455C152.006 49.2473 160.087 59.3808 162.253 61.7499L162.465 61.5563ZM162.465 61.7496C165.114 58.8367 167.362 55.964 169.27 52.949L169.027 52.7956C167.13 55.7939 164.893 58.6533 162.253 61.5565L162.465 61.7496ZM169.276 52.9392C171.107 49.4651 170.862 46.1214 169.272 43.3626L169.024 43.5059C170.565 46.1794 170.807 49.4185 169.022 52.8054L169.276 52.9392ZM169.272 43.3626C167.666 40.5763 164.66 38.3443 160.92 37.2267L160.837 37.5016C164.521 38.6025 167.461 40.7948 169.024 43.5059L169.272 43.3626ZM160.92 37.2267C160.608 37.1335 160.431 36.8054 160.524 36.4937L160.249 36.4116C160.111 36.8751 160.374 37.3631 160.837 37.5016L160.92 37.2267ZM160.524 36.4937C160.617 36.182 160.945 36.0049 161.257 36.098L161.339 35.8231C160.876 35.6846 160.387 35.9481 160.249 36.4116L160.524 36.4937ZM161.257 36.098C165.227 37.2845 168.509 39.6791 170.293 42.7744L170.541 42.6311C168.714 39.4606 165.366 37.0264 161.339 35.8231L161.257 36.098ZM170.293 42.7744C171.21 44.3652 171.723 46.1279 171.736 47.981L172.023 47.9788C172.009 46.0728 171.481 44.2619 170.541 42.6311L170.293 42.7744ZM172.009 48.0428C174.086 43.7794 175.627 39.0844 176.761 33.5304L176.48 33.473C175.35 39.0076 173.816 43.679 171.751 47.9171L172.009 48.0428ZM176.761 33.5304C178.393 25.5342 179.181 15.7611 179.508 2.93138L179.221 2.92409C178.895 15.7485 178.107 25.5016 176.48 33.473L176.761 33.5304Z" fill="#459F5E"/>
</svg>
