<svg width="56" height="56" viewBox="0 0 56 56" fill="none" xmlns="http://www.w3.org/2000/svg">
<rect width="56" height="56" rx="28" fill="#4F90DD"/>
<g clip-path="url(#clip0_7300_214227)">
<path d="M25 20.5H23.5C23.1022 20.5 22.7206 20.658 22.4393 20.9393C22.158 21.2206 22 21.6022 22 22V34C22 34.3978 22.158 34.7794 22.4393 35.0607C22.7206 35.342 23.1022 35.5 23.5 35.5H25C25.3978 35.5 25.7794 35.342 26.0607 35.0607C26.342 34.7794 26.5 34.3978 26.5 34V22C26.5 21.6022 26.342 21.2206 26.0607 20.9393C25.7794 20.658 25.3978 20.5 25 20.5V20.5Z" fill="white"/>
<path d="M32.5 20.5H31C30.6022 20.5 30.2206 20.658 29.9393 20.9393C29.658 21.2206 29.5 21.6022 29.5 22V34C29.5 34.3978 29.658 34.7794 29.9393 35.0607C30.2206 35.342 30.6022 35.5 31 35.5H32.5C32.8978 35.5 33.2794 35.342 33.5607 35.0607C33.842 34.7794 34 34.3978 34 34V22C34 21.6022 33.842 21.2206 33.5607 20.9393C33.2794 20.658 32.8978 20.5 32.5 20.5V20.5Z" fill="white"/>
</g>
<defs>
<clipPath id="clip0_7300_214227">
<rect width="24" height="24" fill="white" transform="translate(16 16)"/>
</clipPath>
</defs>
</svg>
