<svg width="56" height="56" viewBox="0 0 56 56" fill="none" xmlns="http://www.w3.org/2000/svg">
<rect x="0.5" y="0.5" width="55" height="55" rx="27.5" fill="white"/>
<g clip-path="url(#clip0_11374_72713)">
<path d="M29.5 37C31.28 37 33.0201 36.4722 34.5001 35.4832C35.9802 34.4943 37.1337 33.0887 37.8149 31.4442C38.4961 29.7996 38.6743 27.99 38.3271 26.2442C37.9798 24.4984 37.1226 22.8947 35.864 21.636C34.6053 20.3774 33.0016 19.5202 31.2558 19.1729C29.51 18.8257 27.7004 19.0039 26.0559 19.6851C24.4113 20.3663 23.0057 21.5198 22.0168 22.9999C21.0278 24.4799 20.5 26.22 20.5 28V32.65L17.8 29.95L16.75 31L21.25 35.5L25.75 31L24.7 29.95L22 32.65V28C22 26.5166 22.4399 25.0666 23.264 23.8332C24.0881 22.5999 25.2594 21.6386 26.6299 21.0709C28.0003 20.5033 29.5083 20.3547 30.9632 20.6441C32.418 20.9335 33.7544 21.6478 34.8033 22.6967C35.8522 23.7456 36.5665 25.082 36.8559 26.5368C37.1453 27.9917 36.9968 29.4997 36.4291 30.8701C35.8614 32.2406 34.9001 33.4119 33.6668 34.236C32.4334 35.0601 30.9834 35.5 29.5 35.5V37Z" fill="#3A375F"/>
</g>
<rect x="0.5" y="0.5" width="55" height="55" rx="27.5" stroke="#3A375F"/>
<defs>
<clipPath id="clip0_11374_72713">
<rect width="24" height="24" fill="white" transform="translate(16 16)"/>
</clipPath>
</defs>
</svg>
