<svg width="56" height="56" viewBox="0 0 56 56" fill="none" xmlns="http://www.w3.org/2000/svg">
<rect width="56" height="56" rx="28" fill="#459F5E"/>
<g clip-path="url(#clip0_7300_214255)">
<path d="M22.5 37.0001C22.3011 37.0001 22.1103 36.921 21.9697 36.7804C21.829 36.6397 21.75 36.449 21.75 36.2501V19.7501C21.75 19.6197 21.7839 19.4916 21.8485 19.3784C21.9131 19.2652 22.0061 19.1708 22.1182 19.1044C22.2304 19.0381 22.358 19.0021 22.4883 19.0001C22.6186 18.9981 22.7472 19.03 22.8614 19.0928L37.8614 27.3428C37.9791 27.4075 38.0773 27.5027 38.1456 27.6183C38.214 27.7339 38.25 27.8657 38.25 28C38.25 28.1343 38.214 28.2662 38.1456 28.3818C38.0773 28.4974 37.9791 28.5925 37.8614 28.6572L22.8614 36.9072C22.7507 36.9681 22.6264 37 22.5 37.0001Z" fill="white"/>
</g>
<defs>
<clipPath id="clip0_7300_214255">
<rect width="24" height="24" fill="white" transform="translate(16 16)"/>
</clipPath>
</defs>
</svg>
