<svg width="24" height="24" viewBox="0 0 24 24" fill="none" xmlns="http://www.w3.org/2000/svg">
<g clip-path="url(#clip0_586_74562)">
<path d="M12.75 8.25H11.25V15H12.75V8.25Z" fill="#459F5E"/>
<path d="M14.25 1.5H9.75V3H14.25V1.5Z" fill="#459F5E"/>
<path d="M21 6.74984L19.935 5.69234L18.2475 7.37984C16.8661 5.78461 14.9233 4.78292 12.8226 4.58287C10.7219 4.38283 8.62491 4.99982 6.9673 6.30565C5.30969 7.61148 4.21891 9.50575 3.9216 11.5949C3.62429 13.684 4.1433 15.8074 5.3708 17.5238C6.5983 19.2402 8.43991 20.4177 10.513 20.8117C12.5861 21.2056 14.7312 20.7857 16.5028 19.6392C18.2743 18.4926 19.536 16.7077 20.0257 14.6551C20.5155 12.6025 20.1955 10.4402 19.1325 8.61734L21 6.74984ZM12 19.4998C10.6649 19.4998 9.35989 19.104 8.24986 18.3623C7.13982 17.6206 6.27466 16.5664 5.76377 15.333C5.25288 14.0996 5.1192 12.7424 5.37965 11.433C5.6401 10.1236 6.28298 8.92087 7.22698 7.97687C8.17099 7.03287 9.37372 6.38999 10.6831 6.12954C11.9925 5.86909 13.3497 6.00276 14.5831 6.51365C15.8165 7.02455 16.8707 7.88971 17.6124 8.99974C18.3541 10.1098 18.75 11.4148 18.75 12.7498C18.75 14.5401 18.0388 16.2569 16.7729 17.5228C15.5071 18.7887 13.7902 19.4998 12 19.4998Z" fill="#459F5E"/>
</g>
<defs>
<clipPath id="clip0_586_74562">
<rect width="24" height="24" fill="white"/>
</clipPath>
</defs>
</svg>
