<svg width="56" height="56" viewBox="0 0 56 56" fill="none" xmlns="http://www.w3.org/2000/svg">
<rect width="56" height="56" rx="28" fill="#459F5E"/>
<path d="M18.9287 30.4365C18.9287 30.2314 18.8968 30.0492 18.833 29.8896C18.7738 29.7301 18.6667 29.5843 18.5117 29.4521C18.3568 29.32 18.138 29.1924 17.8555 29.0693C17.5775 28.9417 17.222 28.8118 16.7891 28.6797C16.3151 28.5339 15.8776 28.3721 15.4766 28.1943C15.0801 28.012 14.7337 27.8024 14.4375 27.5654C14.1413 27.3239 13.9111 27.0482 13.7471 26.7383C13.583 26.4238 13.501 26.0615 13.501 25.6514C13.501 25.2458 13.5853 24.8766 13.7539 24.5439C13.9271 24.2113 14.1709 23.9242 14.4854 23.6826C14.8044 23.4365 15.1803 23.2474 15.6133 23.1152C16.0462 22.9785 16.5247 22.9102 17.0488 22.9102C17.7871 22.9102 18.4229 23.0469 18.9561 23.3203C19.4938 23.5938 19.9062 23.9606 20.1934 24.4209C20.485 24.8812 20.6309 25.3893 20.6309 25.9453H18.9287C18.9287 25.6172 18.8581 25.3278 18.7168 25.0771C18.5801 24.8219 18.3704 24.6214 18.0879 24.4756C17.8099 24.3298 17.4567 24.2568 17.0283 24.2568C16.6227 24.2568 16.2855 24.3184 16.0166 24.4414C15.7477 24.5645 15.5472 24.7308 15.415 24.9404C15.2829 25.1501 15.2168 25.387 15.2168 25.6514C15.2168 25.8382 15.2601 26.0091 15.3467 26.1641C15.4333 26.3145 15.5654 26.4557 15.7432 26.5879C15.9209 26.7155 16.1442 26.8363 16.4131 26.9502C16.682 27.0641 16.9987 27.1735 17.3633 27.2783C17.9147 27.4424 18.3955 27.6247 18.8057 27.8252C19.2158 28.0212 19.5576 28.2445 19.8311 28.4951C20.1045 28.7458 20.3096 29.0306 20.4463 29.3496C20.583 29.6641 20.6514 30.0218 20.6514 30.4229C20.6514 30.8421 20.5671 31.2204 20.3984 31.5576C20.2298 31.8903 19.9883 32.1751 19.6738 32.4121C19.3639 32.6445 18.9902 32.8245 18.5527 32.9521C18.1198 33.0752 17.6367 33.1367 17.1035 33.1367C16.625 33.1367 16.1533 33.0729 15.6885 32.9453C15.2282 32.8177 14.8089 32.624 14.4307 32.3643C14.0524 32.0999 13.7516 31.7718 13.5283 31.3799C13.305 30.9834 13.1934 30.5208 13.1934 29.9922H14.9092C14.9092 30.3158 14.9639 30.5915 15.0732 30.8193C15.1872 31.0472 15.3444 31.234 15.5449 31.3799C15.7454 31.5212 15.9779 31.626 16.2422 31.6943C16.5111 31.7627 16.7982 31.7969 17.1035 31.7969C17.5046 31.7969 17.8395 31.7399 18.1084 31.626C18.3818 31.512 18.5869 31.3525 18.7236 31.1475C18.8604 30.9424 18.9287 30.7054 18.9287 30.4365ZM25.3955 25.6035V26.8066H21.2256V25.6035H25.3955ZM22.4287 23.792H24.0762V30.9561C24.0762 31.1839 24.1081 31.3594 24.1719 31.4824C24.2402 31.6009 24.3337 31.6807 24.4521 31.7217C24.5706 31.7627 24.7096 31.7832 24.8691 31.7832C24.9831 31.7832 25.0924 31.7764 25.1973 31.7627C25.3021 31.749 25.3864 31.7354 25.4502 31.7217L25.457 32.9795C25.3203 33.0205 25.1608 33.057 24.9785 33.0889C24.8008 33.1208 24.5957 33.1367 24.3633 33.1367C23.985 33.1367 23.6501 33.0706 23.3584 32.9385C23.0667 32.8018 22.8389 32.5807 22.6748 32.2754C22.5107 31.9701 22.4287 31.5645 22.4287 31.0586V23.792ZM30.8369 31.5166V27.9893C30.8369 27.7249 30.7891 27.4971 30.6934 27.3057C30.5977 27.1143 30.4518 26.9661 30.2559 26.8613C30.0645 26.7565 29.8229 26.7041 29.5312 26.7041C29.2624 26.7041 29.0299 26.7497 28.834 26.8408C28.638 26.932 28.4854 27.055 28.376 27.21C28.2666 27.3649 28.2119 27.5404 28.2119 27.7363H26.5713C26.5713 27.4447 26.6419 27.1621 26.7832 26.8887C26.9245 26.6152 27.1296 26.3714 27.3984 26.1572C27.6673 25.943 27.9886 25.7744 28.3623 25.6514C28.736 25.5283 29.1553 25.4668 29.6201 25.4668C30.1761 25.4668 30.6683 25.5602 31.0967 25.7471C31.5296 25.9339 31.8691 26.2165 32.1152 26.5947C32.3659 26.9684 32.4912 27.4378 32.4912 28.0029V31.291C32.4912 31.6283 32.514 31.9313 32.5596 32.2002C32.6097 32.4645 32.6803 32.6947 32.7715 32.8906V33H31.083C31.0055 32.8223 30.944 32.5967 30.8984 32.3232C30.8574 32.0452 30.8369 31.7764 30.8369 31.5166ZM31.0762 28.502L31.0898 29.5205H29.9072C29.6019 29.5205 29.333 29.5501 29.1006 29.6094C28.8682 29.6641 28.6745 29.7461 28.5195 29.8555C28.3646 29.9648 28.2484 30.097 28.1709 30.252C28.0934 30.4069 28.0547 30.5824 28.0547 30.7783C28.0547 30.9743 28.1003 31.1543 28.1914 31.3184C28.2826 31.4779 28.4147 31.6032 28.5879 31.6943C28.7656 31.7855 28.9798 31.8311 29.2305 31.8311C29.5677 31.8311 29.8617 31.7627 30.1123 31.626C30.3675 31.4847 30.568 31.3138 30.7139 31.1133C30.8597 30.9082 30.9372 30.7145 30.9463 30.5322L31.4795 31.2637C31.4248 31.4505 31.3314 31.651 31.1992 31.8652C31.0671 32.0794 30.8939 32.2845 30.6797 32.4805C30.4701 32.6719 30.2171 32.8291 29.9209 32.9521C29.6292 33.0752 29.292 33.1367 28.9092 33.1367C28.4261 33.1367 27.9954 33.041 27.6172 32.8496C27.2389 32.6536 26.9427 32.3916 26.7285 32.0635C26.5143 31.7308 26.4072 31.3548 26.4072 30.9355C26.4072 30.5436 26.4801 30.1973 26.626 29.8965C26.7764 29.5911 26.9951 29.3359 27.2822 29.1309C27.5739 28.9258 27.9294 28.7708 28.3486 28.666C28.7679 28.5566 29.2464 28.502 29.7842 28.502H31.0762ZM35.8682 27.0117V33H34.2207V25.6035H35.793L35.8682 27.0117ZM38.1309 25.5557L38.1172 27.0869C38.0169 27.0687 37.9076 27.055 37.7891 27.0459C37.6751 27.0368 37.5612 27.0322 37.4473 27.0322C37.1647 27.0322 36.9163 27.0732 36.7021 27.1553C36.488 27.2327 36.3079 27.3467 36.1621 27.4971C36.0208 27.6429 35.9115 27.8206 35.834 28.0303C35.7565 28.2399 35.7109 28.4746 35.6973 28.7344L35.3213 28.7617C35.3213 28.2969 35.3669 27.8662 35.458 27.4697C35.5492 27.0732 35.6859 26.7246 35.8682 26.4238C36.055 26.123 36.2874 25.8883 36.5654 25.7197C36.848 25.5511 37.1738 25.4668 37.543 25.4668C37.6432 25.4668 37.7503 25.4759 37.8643 25.4941C37.9827 25.5124 38.0716 25.5329 38.1309 25.5557ZM42.8955 25.6035V26.8066H38.7256V25.6035H42.8955ZM39.9287 23.792H41.5762V30.9561C41.5762 31.1839 41.6081 31.3594 41.6719 31.4824C41.7402 31.6009 41.8337 31.6807 41.9521 31.7217C42.0706 31.7627 42.2096 31.7832 42.3691 31.7832C42.4831 31.7832 42.5924 31.7764 42.6973 31.7627C42.8021 31.749 42.8864 31.7354 42.9502 31.7217L42.957 32.9795C42.8203 33.0205 42.6608 33.057 42.4785 33.0889C42.3008 33.1208 42.0957 33.1367 41.8633 33.1367C41.485 33.1367 41.1501 33.0706 40.8584 32.9385C40.5667 32.8018 40.3389 32.5807 40.1748 32.2754C40.0107 31.9701 39.9287 31.5645 39.9287 31.0586V23.792Z" fill="white"/>
</svg>
