<svg width="56" height="56" viewBox="0 0 56 56" fill="none" xmlns="http://www.w3.org/2000/svg">
<rect width="56" height="56" rx="28" fill="#E44C4C"/>
<g clip-path="url(#clip0_7300_214245)">
<path d="M34 20.5H22C21.6022 20.5 21.2206 20.658 20.9393 20.9393C20.658 21.2206 20.5 21.6022 20.5 22V34C20.5 34.3978 20.658 34.7794 20.9393 35.0607C21.2206 35.342 21.6022 35.5 22 35.5H34C34.3978 35.5 34.7794 35.342 35.0607 35.0607C35.342 34.7794 35.5 34.3978 35.5 34V22C35.5 21.6022 35.342 21.2206 35.0607 20.9393C34.7794 20.658 34.3978 20.5 34 20.5V20.5Z" fill="white"/>
</g>
<defs>
<clipPath id="clip0_7300_214245">
<rect width="24" height="24" fill="white" transform="translate(16 16)"/>
</clipPath>
</defs>
</svg>
