<svg width="24" height="24" viewBox="0 0 24 24" fill="none" xmlns="http://www.w3.org/2000/svg">
<path d="M1.7998 7.89918V16.1004H7.89918V22.1998H16.1004V16.1004H22.1998V7.89918H16.1004V1.7998H7.89918V7.89918H1.7998Z" fill="#C4C4C4"/>
<path d="M13.7731 9.73291C13.5211 9.73291 13.2717 9.78342 13.0396 9.88146C12.8074 9.97949 12.5973 10.1231 12.4216 10.3037L12.1431 10.5908L11.8619 10.3037C11.6862 10.1231 11.4761 9.9795 11.244 9.88147C11.0119 9.78343 10.7625 9.73292 10.5105 9.73292C10.2586 9.73292 10.0091 9.78343 9.77703 9.88147C9.54491 9.9795 9.33481 10.1231 9.15912 10.3037C8.80059 10.6736 8.6001 11.1685 8.6001 11.6837C8.6001 12.1988 8.80059 12.6937 9.15912 13.0636L12.1431 16.1079L15.1244 13.0636C15.483 12.6937 15.6835 12.1988 15.6835 11.6837C15.6835 11.1685 15.483 10.6736 15.1244 10.3037C14.9487 10.1231 14.7386 9.97951 14.5065 9.88147C14.2744 9.78344 14.025 9.73292 13.7731 9.73291Z" fill="white"/>
</svg>
