<svg width="33" height="32" viewBox="0 0 33 32" fill="none" xmlns="http://www.w3.org/2000/svg">
<g clip-path="url(#clip0_12440_102013)">
<path d="M17.4687 2.21374C17.2912 2.07523 17.0725 2 16.8474 2C16.6222 2 16.4035 2.07523 16.226 2.21374L1.85645 13.4193L3.09915 14.991L4.85645 13.6208V25.9999C4.85753 26.53 5.06859 27.0381 5.44343 27.413C5.81827 27.7878 6.32635 27.9989 6.85645 27.9999H26.8564C27.3866 27.999 27.8947 27.7879 28.2696 27.4131C28.6444 27.0382 28.8555 26.5301 28.8564 25.9999V13.6299L30.6137 14.9999L31.8564 13.4281L17.4687 2.21374ZM18.8564 25.9999H14.8564V17.9999H18.8564V25.9999ZM20.8564 25.9999V17.9999C20.8558 17.4697 20.6449 16.9613 20.27 16.5864C19.895 16.2115 19.3867 16.0006 18.8564 15.9999H14.8564C14.3262 16.0005 13.8178 16.2114 13.4428 16.5863C13.0679 16.9613 12.857 17.4697 12.8564 17.9999V25.9999H6.85645V12.0614L16.8564 4.27144L26.8564 12.0719V25.9999H20.8564Z" fill="currentColor"/>
</g>
<defs>
<clipPath id="clip0_12440_102013">
<rect width="32" height="32" fill="white" transform="translate(0.856445)"/>
</clipPath>
</defs>
</svg>
