<svg width="33" height="32" viewBox="0 0 33 32" fill="none" xmlns="http://www.w3.org/2000/svg">
<g clip-path="url(#clip0_12440_104784)">
<path d="M19.2073 16C18.8516 16 18.4995 16.0713 18.1718 16.2097C17.8441 16.3481 17.5474 16.5508 17.2994 16.8058L16.9062 17.2112L16.5092 16.8058C16.2612 16.5508 15.9646 16.3481 15.6369 16.2097C15.3092 16.0713 14.9571 16 14.6014 16C14.2456 16 13.8935 16.0713 13.5658 16.2097C13.2382 16.3481 12.9415 16.5508 12.6935 16.8058C12.1873 17.328 11.9043 18.0267 11.9043 18.754C11.9043 19.4813 12.1873 20.18 12.6935 20.7022L16.9062 25L21.1151 20.7022C21.6213 20.18 21.9043 19.4813 21.9043 18.754C21.9043 18.0267 21.6213 17.328 21.1151 16.8058C20.8671 16.5508 20.5705 16.3481 20.2428 16.2097C19.9151 16.0713 19.563 16 19.2073 16Z" fill="currentColor"/>
<path d="M26.6043 9.30035L19.6043 2.30035C19.5163 2.20264 19.4081 2.1252 19.2873 2.0734C19.1664 2.0216 19.0357 1.99668 18.9043 2.00035H8.9043C8.37434 2.00191 7.86654 2.21312 7.4918 2.58786C7.11707 2.9626 6.90585 3.4704 6.9043 4.00036V28.0004C6.90585 28.5303 7.11707 29.0381 7.4918 29.4128C7.86654 29.7876 8.37434 29.9988 8.9043 30.0004H24.9043C25.4343 29.9988 25.9421 29.7876 26.3168 29.4128C26.6915 29.0381 26.9027 28.5303 26.9043 28.0004V10.0004C26.908 9.86891 26.883 9.73824 26.8313 9.61737C26.7795 9.49651 26.702 9.38834 26.6043 9.30035ZM18.9043 4.40036L24.5043 10.0004H18.9043V4.40036ZM24.9043 28.0004H8.9043V4.00036H16.9043V10.0004C16.9059 10.5303 17.1171 11.0381 17.4918 11.4128C17.8665 11.7876 18.3743 11.9988 18.9043 12.0004H24.9043V28.0004Z" fill="currentColor"/>
</g>
<defs>
<clipPath id="clip0_12440_104784">
<rect width="32" height="32" fill="white" transform="translate(0.904297)"/>
</clipPath>
</defs>
</svg>
