<svg width="33" height="32" viewBox="0 0 33 32" fill="none" xmlns="http://www.w3.org/2000/svg">
<g clip-path="url(#clip0_12440_107106)">
<g clip-path="url(#clip1_12440_107106)">
<path d="M31.9043 24H27.9043V20H25.9043V24H21.9043V26H25.9043V30H27.9043V26H31.9043V24Z" fill="currentColor"/>
<path d="M25.9043 5H22.9043V4C22.9028 3.47004 22.6916 2.96222 22.3168 2.58748C21.9421 2.21274 21.4343 2.00153 20.9043 2H12.9043C12.3743 2.00153 11.8665 2.21274 11.4918 2.58748C11.117 2.96222 10.9058 3.47004 10.9043 4V5H7.9043C7.37433 5.00153 6.86652 5.21274 6.49177 5.58748C6.11703 5.96222 5.90583 6.47004 5.9043 7V28C5.90583 28.53 6.11703 29.0378 6.49177 29.4125C6.86652 29.7873 7.37433 29.9985 7.9043 30H17.9043V28H7.9043V7H10.9043V10H22.9043V7H25.9043V16H27.9043V7C27.9028 6.47004 27.6916 5.96222 27.3168 5.58748C26.9421 5.21274 26.4343 5.00153 25.9043 5ZM20.9043 8H12.9043V4H20.9043V8Z" fill="currentColor"/>
</g>
</g>
<defs>
<clipPath id="clip0_12440_107106">
<rect width="32" height="32" fill="white" transform="translate(0.904297)"/>
</clipPath>
<clipPath id="clip1_12440_107106">
<rect width="32" height="32" fill="white" transform="translate(0.904297)"/>
</clipPath>
</defs>
</svg>
