<svg width="33" height="32" viewBox="0 0 33 32" fill="none" xmlns="http://www.w3.org/2000/svg">
<g clip-path="url(#clip0_12440_102456)">
<path d="M16.8564 18C15.8675 18 14.9008 17.7068 14.0786 17.1574C13.2564 16.6079 12.6155 15.8271 12.237 14.9134C11.8586 13.9998 11.7596 12.9945 11.9525 12.0246C12.1454 11.0546 12.6217 10.1637 13.3209 9.46447C14.0202 8.76521 14.9111 8.289 15.881 8.09608C16.8509 7.90315 17.8562 8.00217 18.7699 8.3806C19.6835 8.75904 20.4644 9.39991 21.0138 10.2222C21.5632 11.0444 21.8564 12.0111 21.8564 13C21.8549 14.3256 21.3277 15.5965 20.3903 16.5339C19.453 17.4712 18.1821 17.9985 16.8564 18ZM16.8564 10C16.2631 10 15.6831 10.1759 15.1897 10.5056C14.6964 10.8352 14.3119 11.3038 14.0848 11.852C13.8577 12.4001 13.7983 13.0033 13.9141 13.5853C14.0298 14.1672 14.3156 14.7018 14.7351 15.1213C15.1547 15.5409 15.6892 15.8266 16.2712 15.9424C16.8531 16.0581 17.4563 15.9987 18.0045 15.7716C18.5527 15.5446 19.0212 15.1601 19.3509 14.6667C19.6805 14.1734 19.8564 13.5933 19.8564 13C19.8556 12.2046 19.5392 11.4421 18.9768 10.8796C18.4144 10.3172 17.6518 10.0009 16.8564 10Z" fill="currentColor"/>
<path d="M16.8565 30L8.42096 20.0513C8.37306 19.9942 8.07276 19.5998 8.07276 19.5998C6.63166 17.7017 5.85308 15.3832 5.85646 13C5.85646 10.0826 7.01538 7.28473 9.07828 5.22183C11.1412 3.15893 13.9391 2 16.8565 2C19.7738 2 22.5717 3.15893 24.6346 5.22183C26.6975 7.28473 27.8565 10.0826 27.8565 13C27.86 15.3822 27.082 17.6998 25.6417 19.5973L25.6402 19.5998C25.6402 19.5998 25.3402 19.9942 25.2955 20.0472L16.8565 30ZM9.66896 18.395C9.66996 18.3957 9.90236 18.7032 9.95556 18.7694L16.8565 26.9079L23.7665 18.7579C23.8104 18.7027 24.0448 18.393 24.0453 18.3922C25.2225 16.8413 25.8588 14.9471 25.8565 13C25.8565 10.6131 24.9082 8.32387 23.2204 6.63604C21.5326 4.94821 19.2434 4 16.8565 4C14.4695 4 12.1803 4.94821 10.4925 6.63604C8.80467 8.32387 7.85646 10.6131 7.85646 13C7.85424 14.9482 8.49094 16.8433 9.66896 18.395Z" fill="currentColor"/>
</g>
<defs>
<clipPath id="clip0_12440_102456">
<rect width="32" height="32" fill="white" transform="translate(0.856445)"/>
</clipPath>
</defs>
</svg>
