<svg width="33" height="32" viewBox="0 0 33 32" fill="none" xmlns="http://www.w3.org/2000/svg">
<g clip-path="url(#clip0_12440_102558)">
<path d="M14.9043 24H4.9043V26H14.9043V24Z" fill="currentColor"/>
<path d="M14.9043 18H4.9043V20H14.9043V18Z" fill="currentColor"/>
<path d="M26.9043 14H6.9043C6.37386 14 5.86516 13.7893 5.49008 13.4142C5.11501 13.0391 4.9043 12.5304 4.9043 12V6C4.9043 5.46957 5.11501 4.96086 5.49008 4.58579C5.86516 4.21071 6.37386 4 6.9043 4H26.9043C27.4347 4 27.9434 4.21071 28.3185 4.58579C28.6936 4.96086 28.9043 5.46957 28.9043 6V12C28.9043 12.5304 28.6936 13.0391 28.3185 13.4142C27.9434 13.7893 27.4347 14 26.9043 14ZM6.9043 6V12H26.9043V6H6.9043Z" fill="currentColor"/>
<path d="M26.9043 28H20.9043C20.3739 28 19.8652 27.7893 19.4901 27.4142C19.115 27.0391 18.9043 26.5304 18.9043 26V20C18.9043 19.4696 19.115 18.9609 19.4901 18.5858C19.8652 18.2107 20.3739 18 20.9043 18H26.9043C27.4347 18 27.9434 18.2107 28.3185 18.5858C28.6936 18.9609 28.9043 19.4696 28.9043 20V26C28.9043 26.5304 28.6936 27.0391 28.3185 27.4142C27.9434 27.7893 27.4347 28 26.9043 28ZM20.9043 20V26H26.9043V20H20.9043Z" fill="currentColor"/>
</g>
<defs>
<clipPath id="clip0_12440_102558">
<rect width="32" height="32" fill="white" transform="translate(0.904297)"/>
</clipPath>
</defs>
</svg>
