<svg width="57" height="56" viewBox="0 0 57 56" fill="none" xmlns="http://www.w3.org/2000/svg">
<rect x="0.952148" width="56" height="56" rx="28" fill="#F1FAF3"/>
<g clip-path="url(#clip0_7137_21809)">
<path d="M29.3022 23.0498C26.3792 23.0498 24.0022 25.4269 24.0022 28.3498C24.0022 31.2728 26.3792 33.6498 29.3022 33.6498C32.2251 33.6498 34.6022 31.2728 34.6022 28.3498C34.6022 25.4269 32.2251 23.0498 29.3022 23.0498ZM29.3022 30.9998C27.8407 30.9998 26.6522 29.8113 26.6522 28.3498C26.6522 26.8883 27.8407 25.6998 29.3022 25.6998C30.7637 25.6998 31.9522 26.8883 31.9522 28.3498C31.9522 29.8113 30.7637 30.9998 29.3022 30.9998ZM46.5272 27.0248H46.4888C45.8409 18.5687 39.0834 11.8112 30.6272 11.1632V11.1248C30.6272 10.7734 30.4876 10.4364 30.2391 10.1879C29.9906 9.9394 29.6536 9.7998 29.3022 9.7998C28.9508 9.7998 28.6138 9.9394 28.3653 10.1879C28.1168 10.4364 27.9772 10.7734 27.9772 11.1248V11.1632C19.521 11.8112 12.7635 18.5687 12.1156 27.0248H12.0772C11.7258 27.0248 11.3888 27.1644 11.1403 27.4129C10.8918 27.6614 10.7522 27.9984 10.7522 28.3498C10.7522 28.7012 10.8918 29.0382 11.1403 29.2867C11.3888 29.5352 11.7258 29.6748 12.0772 29.6748H12.1156C12.7635 38.131 19.521 44.8885 27.9772 45.5364V45.5748C27.9772 45.9262 28.1168 46.2632 28.3653 46.5117C28.6138 46.7602 28.9508 46.8998 29.3022 46.8998C29.6536 46.8998 29.9906 46.7602 30.2391 46.5117C30.4876 46.2632 30.6272 45.9262 30.6272 45.5748V45.5364C39.0834 44.8885 45.8409 38.131 46.4888 29.6748H46.5272C46.8786 29.6748 47.2156 29.5352 47.4641 29.2867C47.7126 29.0382 47.8522 28.7012 47.8522 28.3498C47.8522 27.9984 47.7126 27.6614 47.4641 27.4129C47.2156 27.1644 46.8786 27.0248 46.5272 27.0248ZM30.6272 42.8864V40.2748C30.6272 39.9234 30.4876 39.5864 30.2391 39.3379C29.9906 39.0894 29.6536 38.9498 29.3022 38.9498C28.9508 38.9498 28.6138 39.0894 28.3653 39.3379C28.1168 39.5864 27.9772 39.9234 27.9772 40.2748V42.8864C20.9812 42.253 15.399 36.6695 14.7656 29.6748H17.3772C17.7286 29.6748 18.0656 29.5352 18.3141 29.2867C18.5626 29.0382 18.7022 28.7012 18.7022 28.3498C18.7022 27.9984 18.5626 27.6614 18.3141 27.4129C18.0656 27.1644 17.7286 27.0248 17.3772 27.0248H14.7656C15.399 20.0288 20.9812 14.4466 27.9772 13.8132V16.4248C27.9772 16.7762 28.1168 17.1132 28.3653 17.3617C28.6138 17.6102 28.9508 17.7498 29.3022 17.7498C29.6536 17.7498 29.9906 17.6102 30.2391 17.3617C30.4876 17.1132 30.6272 16.7762 30.6272 16.4248V13.8132C37.6219 14.4466 43.2054 20.0288 43.8388 27.0248H41.2272C40.8758 27.0248 40.5388 27.1644 40.2903 27.4129C40.0418 27.6614 39.9022 27.9984 39.9022 28.3498C39.9022 28.7012 40.0418 29.0382 40.2903 29.2867C40.5388 29.5352 40.8758 29.6748 41.2272 29.6748H43.8388C43.2054 36.6695 37.6219 42.253 30.6272 42.8864Z" fill="#459F5E"/>
<path fill-rule="evenodd" clip-rule="evenodd" d="M46.1069 27.437L46.0778 27.0563C45.4454 18.803 38.849 12.2066 30.5957 11.5742L30.215 11.5451V11.1248C30.215 10.8827 30.1188 10.6506 29.9476 10.4794C29.7765 10.3082 29.5443 10.212 29.3022 10.212C29.0601 10.212 28.8279 10.3082 28.6568 10.4794C28.4856 10.6506 28.3894 10.8827 28.3894 11.1248V11.5451L28.0087 11.5742C19.7554 12.2066 13.159 18.803 12.5266 27.0563L12.4975 27.437H12.0772C11.8351 27.437 11.6029 27.5332 11.4318 27.7044C11.2606 27.8756 11.1644 28.1077 11.1644 28.3498C11.1644 28.5919 11.2606 28.8241 11.4318 28.9952C11.6029 29.1664 11.8351 29.2626 12.0772 29.2626H12.4975L12.5266 29.6433C13.159 37.8966 19.7554 44.493 28.0087 45.1254L28.3894 45.1545V45.5748C28.3894 45.8169 28.4856 46.0491 28.6568 46.2202C28.8279 46.3914 29.0601 46.4876 29.3022 46.4876C29.5443 46.4876 29.7765 46.3914 29.9476 46.2202C30.1188 46.0491 30.215 45.8169 30.215 45.5748V45.1545L30.5957 45.1254C38.849 44.493 45.4454 37.8966 46.0778 29.6433L46.1069 29.2626H46.5272C46.7693 29.2626 47.0015 29.1664 47.1726 28.9952C47.3438 28.8241 47.44 28.5919 47.44 28.3498C47.44 28.1077 47.3438 27.8756 47.1726 27.7044C47.0015 27.5332 46.7693 27.437 46.5272 27.437H46.1069ZM30.215 43.3376V40.2748C30.215 40.0327 30.1188 39.8006 29.9476 39.6294C29.7765 39.4582 29.5443 39.362 29.3022 39.362C29.0601 39.362 28.8279 39.4582 28.6568 39.6294C28.4856 39.8006 28.3894 40.0327 28.3894 40.2748V43.3376L27.94 43.2969C20.7457 42.6456 15.0064 36.9049 14.3551 29.712L14.3144 29.2626H17.3772C17.6193 29.2626 17.8515 29.1664 18.0226 28.9952C18.1938 28.8241 18.29 28.5919 18.29 28.3498C18.29 28.1077 18.1938 27.8756 18.0226 27.7044C17.8514 27.5332 17.6193 27.437 17.3772 27.437H14.3144L14.3551 26.9876C15.0064 19.7933 20.7457 14.054 27.94 13.4027L28.3894 13.362V16.4248C28.3894 16.6669 28.4856 16.8991 28.6568 17.0702C28.8279 17.2414 29.0601 17.3376 29.3022 17.3376C29.5443 17.3376 29.7765 17.2414 29.9476 17.0702C30.1188 16.8991 30.215 16.6669 30.215 16.4248V13.362L30.6644 13.4027C37.8573 14.054 43.598 19.7933 44.2493 26.9876L44.29 27.437H41.2272C40.9851 27.437 40.7529 27.5332 40.5818 27.7044C40.4106 27.8756 40.3144 28.1077 40.3144 28.3498C40.3144 28.5919 40.4106 28.8241 40.5818 28.9952C40.7529 29.1664 40.9851 29.2626 41.2272 29.2626H44.29L44.2493 29.712C43.598 36.9049 37.8573 42.6456 30.6644 43.2969L30.215 43.3376ZM29.3022 23.462C26.6069 23.462 24.4144 25.6545 24.4144 28.3498C24.4144 31.0451 26.6069 33.2376 29.3022 33.2376C31.9975 33.2376 34.19 31.0451 34.19 28.3498C34.19 25.6545 31.9975 23.462 29.3022 23.462ZM29.3022 31.412C27.6131 31.412 26.24 30.0389 26.24 28.3498C26.24 26.6607 27.6131 25.2876 29.3022 25.2876C30.9913 25.2876 32.3644 26.6607 32.3644 28.3498C32.3644 30.0389 30.9913 31.412 29.3022 31.412ZM46.4888 29.6748C45.8408 38.131 39.0834 44.8885 30.6272 45.5364V45.5748C30.6272 45.9262 30.4876 46.2632 30.2391 46.5117C29.9906 46.7602 29.6536 46.8998 29.3022 46.8998C28.9508 46.8998 28.6138 46.7602 28.3653 46.5117C28.1168 46.2632 27.9772 45.9262 27.9772 45.5748V45.5364C19.521 44.8885 12.7635 38.131 12.1156 29.6748H12.0772C11.7258 29.6748 11.3888 29.5352 11.1403 29.2867C10.8918 29.0382 10.7522 28.7012 10.7522 28.3498C10.7522 27.9984 10.8918 27.6614 11.1403 27.4129C11.3888 27.1644 11.7258 27.0248 12.0772 27.0248H12.1156C12.7635 18.5687 19.521 11.8112 27.9772 11.1632V11.1248C27.9772 10.7734 28.1168 10.4364 28.3653 10.1879C28.6138 9.9394 28.9508 9.7998 29.3022 9.7998C29.6536 9.7998 29.9906 9.9394 30.2391 10.1879C30.4876 10.4364 30.6272 10.7734 30.6272 11.1248V11.1632C39.0834 11.8112 45.8408 18.5687 46.4888 27.0248H46.5272C46.8786 27.0248 47.2156 27.1644 47.4641 27.4129C47.7126 27.6614 47.8522 27.9984 47.8522 28.3498C47.8522 28.7012 47.7126 29.0382 47.4641 29.2867C47.2156 29.5352 46.8786 29.6748 46.5272 29.6748H46.4888ZM30.6272 42.8864C30.7652 42.8739 30.9026 42.8595 31.0394 42.8432C37.7034 42.0485 43.0009 36.751 43.7956 30.087C43.8119 29.9502 43.8263 29.8128 43.8388 29.6748H41.2272C40.8758 29.6748 40.5388 29.5352 40.2903 29.2867C40.0418 29.0382 39.9022 28.7012 39.9022 28.3498C39.9022 27.9984 40.0418 27.6614 40.2903 27.4129C40.5388 27.1644 40.8758 27.0248 41.2272 27.0248H43.8388C43.8263 26.8868 43.8119 26.7494 43.7956 26.6126C43.001 19.9474 37.7034 14.651 31.0394 13.8565C30.9026 13.8401 30.7652 13.8257 30.6272 13.8132V16.4248C30.6272 16.7762 30.4876 17.1132 30.2391 17.3617C29.9906 17.6102 29.6536 17.7498 29.3022 17.7498C28.9508 17.7498 28.6138 17.6102 28.3653 17.3617C28.1168 17.1132 27.9772 16.7762 27.9772 16.4248V13.8132C27.8392 13.8257 27.7018 13.8401 27.565 13.8564C20.8998 14.651 15.6034 19.9474 14.8088 26.6126C14.7925 26.7494 14.7781 26.8868 14.7656 27.0248H17.3772C17.7286 27.0248 18.0656 27.1644 18.3141 27.4129C18.5626 27.6614 18.7022 27.9984 18.7022 28.3498C18.7022 28.7012 18.5626 29.0382 18.3141 29.2867C18.0656 29.5352 17.7286 29.6748 17.3772 29.6748H14.7656C14.7781 29.8128 14.7925 29.9502 14.8088 30.087C15.6034 36.751 20.8998 42.0486 27.565 42.8432C27.7018 42.8595 27.8392 42.8739 27.9772 42.8864V40.2748C27.9772 39.9234 28.1168 39.5864 28.3653 39.3379C28.6138 39.0894 28.9508 38.9498 29.3022 38.9498C29.6536 38.9498 29.9906 39.0894 30.2391 39.3379C30.4876 39.5864 30.6272 39.9234 30.6272 40.2748V42.8864ZM24.0022 28.3498C24.0022 25.4269 26.3792 23.0498 29.3022 23.0498C32.2251 23.0498 34.6022 25.4269 34.6022 28.3498C34.6022 31.2728 32.2251 33.6498 29.3022 33.6498C26.3792 33.6498 24.0022 31.2728 24.0022 28.3498ZM26.6522 28.3498C26.6522 29.8113 27.8407 30.9998 29.3022 30.9998C30.7637 30.9998 31.9522 29.8113 31.9522 28.3498C31.9522 26.8883 30.7637 25.6998 29.3022 25.6998C27.8407 25.6998 26.6522 26.8883 26.6522 28.3498Z" fill="#F1FAF3"/>
</g>
<defs>
<clipPath id="clip0_7137_21809">
<rect width="56" height="56" fill="white" transform="translate(0.952148)"/>
</clipPath>
</defs>
</svg>
