<svg width="57" height="56" viewBox="0 0 57 56" fill="none" xmlns="http://www.w3.org/2000/svg">
<rect x="0.856445" width="56" height="56" rx="28" fill="#F1FAF3"/>
<g clip-path="url(#clip0_7137_21845)">
<g clip-path="url(#clip1_7137_21845)">
<path d="M11.9519 27.4073H11.973C12.298 27.4076 12.5647 27.15 12.5757 26.8251C12.9018 17.5097 20.7178 10.2224 30.0332 10.5484C33.6164 10.6739 37.0664 11.937 39.8834 14.155H36.6755C36.3426 14.155 36.0727 14.4249 36.0727 14.7577C36.0727 15.0906 36.3426 15.3605 36.6755 15.3605H41.4976H41.506C41.5532 15.3567 41.5997 15.3474 41.6446 15.3328C41.6755 15.3283 41.7058 15.3217 41.7357 15.3129C41.7525 15.3057 41.7652 15.2906 41.7815 15.2815C41.8356 15.2551 41.8852 15.2203 41.9285 15.1785L41.9346 15.1742C41.9499 15.1533 41.9638 15.1314 41.9762 15.1085C42.0077 15.0701 42.0343 15.0278 42.0551 14.9826C42.0717 14.9345 42.0819 14.8845 42.0853 14.8337C42.0922 14.8088 42.0972 14.7834 42.1003 14.7577V9.93563C42.1003 9.60275 41.8304 9.33286 41.4976 9.33286C41.1647 9.33286 40.8948 9.60275 40.8948 9.93563V13.4268C33.1718 7.09917 21.7814 8.23026 15.4537 15.9533C12.9422 19.0187 11.5075 22.8243 11.3702 26.7847C11.3591 27.1172 11.6194 27.3959 11.9519 27.4073Z" fill="#459F5E" stroke="#459F5E" stroke-width="0.361667"/>
<path d="M16.8298 38.6332C16.6085 38.3835 16.2268 38.3604 15.9771 38.5816C15.7275 38.8028 15.7044 39.1845 15.9256 39.4342C16.3405 39.8999 16.7789 40.3441 17.239 40.7651C17.4893 40.9848 17.8701 40.9599 18.0897 40.7098C18.3031 40.4666 18.2865 40.0985 18.0522 39.8755C17.6237 39.4825 17.2158 39.0679 16.8298 38.6332Z" fill="#459F5E" stroke="#459F5E" stroke-width="0.361667"/>
<path d="M24.0233 43.4054C23.4722 43.2188 22.9312 43.0037 22.4024 42.761C22.1041 42.6132 21.7425 42.7353 21.5947 43.0336C21.447 43.3319 21.569 43.6936 21.8673 43.8413C21.8776 43.8464 21.888 43.8512 21.8985 43.8556C22.4654 44.1166 23.0457 44.3475 23.6369 44.5476C23.9523 44.6543 24.2945 44.4851 24.4012 44.1697C24.508 43.8543 24.3387 43.512 24.0233 43.4054Z" fill="#459F5E" stroke="#459F5E" stroke-width="0.361667"/>
<path d="M20.857 41.952V41.9514C20.356 41.6546 19.8704 41.3328 19.4019 40.987C19.1406 40.7808 18.7616 40.8255 18.5554 41.0869C18.3491 41.3483 18.3939 41.7273 18.6553 41.9335C18.6651 41.9412 18.675 41.9486 18.6853 41.9557C19.1863 42.3266 19.706 42.6716 20.2422 42.9895C20.5287 43.1592 20.8985 43.0646 21.0683 42.7782C21.2381 42.4916 21.1435 42.1218 20.857 41.952Z" fill="#459F5E" stroke="#459F5E" stroke-width="0.361667"/>
<path d="M15.7384 37.2727C15.3986 36.8003 15.0832 36.3107 14.7933 35.8062C14.6268 35.5174 14.2578 35.4182 13.969 35.5846C13.6802 35.7511 13.581 36.1201 13.7475 36.4089C14.0581 36.9485 14.3961 37.4717 14.7601 37.9767C14.96 38.2429 15.3379 38.2966 15.6041 38.0967C15.8627 37.9026 15.922 37.539 15.7384 37.2727Z" fill="#459F5E" stroke="#459F5E" stroke-width="0.361667"/>
<path d="M14.057 34.4989C14.057 34.4149 14.0394 34.3318 14.0054 34.255L14.0042 34.2508C13.7683 33.7195 13.56 33.1762 13.3803 32.6233C13.2929 32.3021 12.9616 32.1126 12.6404 32.2C12.3192 32.2874 12.1297 32.6187 12.2171 32.9399C12.2223 32.9586 12.2282 32.9771 12.2351 32.9952C12.4274 33.589 12.6504 34.1725 12.9029 34.7432C12.9996 34.9614 13.2158 35.102 13.4545 35.1019C13.7873 35.1017 14.0571 34.8318 14.057 34.4989Z" fill="#459F5E" stroke="#459F5E" stroke-width="0.361667"/>
<path d="M12.4655 31.6501C12.4656 31.6501 12.4657 31.65 12.4658 31.65C12.7911 31.5807 12.9987 31.2611 12.9299 30.9357C12.8098 30.3663 12.7189 29.7912 12.6575 29.2124C12.6224 28.8812 12.3254 28.6412 11.9942 28.6763C11.6629 28.7114 11.4229 29.0084 11.458 29.3396C11.524 29.9595 11.6217 30.5755 11.7509 31.1853C11.82 31.511 12.1399 31.719 12.4655 31.6501Z" fill="#459F5E" stroke="#459F5E" stroke-width="0.361667"/>
<path d="M46.5598 31.0356C46.5596 31.0355 46.5593 31.0355 46.5591 31.0354C46.236 30.9554 45.9093 31.1523 45.8292 31.4754C45.6895 32.0405 45.5207 32.598 45.3235 33.1457C45.2106 33.459 45.373 33.8043 45.6863 33.9172C45.9996 34.0301 46.345 33.8676 46.4579 33.5543C46.6694 32.9678 46.8504 32.3706 47.0003 31.7653C47.0802 31.4422 46.883 31.1155 46.5598 31.0356Z" fill="#459F5E" stroke="#459F5E" stroke-width="0.361667"/>
<path d="M27.4215 44.1726C26.8438 44.1038 26.27 44.0053 25.7024 43.8773C25.3777 43.8039 25.0549 44.0076 24.9815 44.3324C24.9081 44.6571 25.1119 44.9799 25.4366 45.0533C26.0449 45.1904 26.66 45.296 27.2793 45.3697C27.3033 45.3727 27.3274 45.374 27.3516 45.3739C27.6845 45.3733 27.9537 45.1028 27.9531 44.7699C27.9525 44.465 27.7243 44.2086 27.4215 44.1726Z" fill="#459F5E" stroke="#459F5E" stroke-width="0.361667"/>
<path d="M45.4486 34.4732C45.1489 34.3285 44.7888 34.454 44.6438 34.7535C44.3904 35.2774 44.11 35.7879 43.8036 36.2827C43.6331 36.5687 43.7269 36.9386 44.0129 37.109C44.2919 37.2753 44.6526 37.1905 44.8283 36.9174C45.1563 36.387 45.4567 35.84 45.7282 35.2785C45.8734 34.9789 45.7482 34.6184 45.4486 34.4732Z" fill="#459F5E" stroke="#459F5E" stroke-width="0.361667"/>
<path d="M43.6674 37.6085C43.4069 37.4013 43.0277 37.4446 42.8205 37.7052C42.8168 37.7097 42.8133 37.7143 42.8098 37.7189V37.7177C42.4542 38.1791 42.075 38.6216 41.6736 39.0438C41.4441 39.2851 41.4537 39.6669 41.695 39.8964C41.9364 40.1259 42.3181 40.1163 42.5476 39.875C42.9768 39.4227 43.3828 38.9489 43.764 38.4555C43.9712 38.195 43.928 37.8157 43.6674 37.6085Z" fill="#459F5E" stroke="#459F5E" stroke-width="0.361667"/>
<path d="M46.9308 27.4441C46.6033 27.4274 46.3243 27.6794 46.3076 28.0068C46.3073 28.0129 46.3071 28.0191 46.3069 28.0252C46.2865 28.6069 46.2359 29.1871 46.1556 29.7636C46.1102 30.0929 46.34 30.3968 46.6692 30.4429C46.6971 30.447 46.7253 30.449 46.7536 30.4489C47.054 30.4485 47.3083 30.2269 47.3497 29.9293C47.4355 29.3119 47.4896 28.6904 47.5118 28.0674C47.5234 27.7349 47.2634 27.4559 46.9308 27.4441Z" fill="#459F5E" stroke="#459F5E" stroke-width="0.361667"/>
<path d="M40.4104 40.2433V40.2452C39.9668 40.6238 39.5041 40.9795 39.0241 41.3108C38.7496 41.5006 38.681 41.8769 38.8707 42.1514C39.0604 42.4259 39.4367 42.4945 39.7112 42.3048C40.2246 41.9483 40.7194 41.5661 41.194 41.1595C41.447 40.9432 41.4767 40.5627 41.2603 40.3096C41.044 40.0566 40.6634 40.027 40.4104 40.2433Z" fill="#459F5E" stroke="#459F5E" stroke-width="0.361667"/>
<path d="M34.329 43.5744C33.772 43.7423 33.2067 43.8811 32.6353 43.9903C32.3084 44.0532 32.0943 44.3691 32.1572 44.6961C32.2117 44.9794 32.4594 45.1845 32.748 45.185C32.7862 45.1851 32.8243 45.1817 32.8619 45.1747C33.4745 45.0576 34.0805 44.9086 34.6774 44.7281C34.9936 44.6239 35.1655 44.2831 35.0613 43.9669C34.9607 43.6619 34.6387 43.4893 34.329 43.5744Z" fill="#459F5E" stroke="#459F5E" stroke-width="0.361667"/>
<path d="M30.9384 44.2286C30.9273 44.2292 30.9163 44.2301 30.9053 44.2313L30.9083 44.2338C30.4261 44.2747 29.9324 44.294 29.4406 44.294H29.1651C28.8364 44.2987 28.5677 44.5576 28.5509 44.886C28.5449 45.2188 28.8098 45.4935 29.1426 45.4996C29.1426 45.4996 29.1427 45.4996 29.1428 45.4996H29.4406C29.9674 45.4996 30.4954 45.4761 31.0077 45.4321C31.3401 45.4129 31.594 45.128 31.5748 44.7956C31.5556 44.4633 31.2706 44.2093 30.9384 44.2286Z" fill="#459F5E" stroke="#459F5E" stroke-width="0.361667"/>
<path d="M37.5411 42.2246H37.5417C37.0313 42.5041 36.5071 42.7572 35.9709 42.9829C35.6624 43.1081 35.5137 43.4596 35.6388 43.768C35.7639 44.0765 36.1154 44.2252 36.4239 44.1001C36.4284 44.0983 36.4329 44.0964 36.4373 44.0944C37.0119 43.8526 37.5736 43.5815 38.1202 43.2819C38.4122 43.1219 38.5192 42.7556 38.3592 42.4636C38.1994 42.1717 37.833 42.0647 37.5411 42.2246Z" fill="#459F5E" stroke="#459F5E" stroke-width="0.361667"/>
<path d="M29.4405 14.7588C22.4497 14.7588 16.7825 20.426 16.7825 27.4168C16.7825 34.4077 22.4497 40.0749 29.4405 40.0749C36.4314 40.0749 42.0986 34.4077 42.0986 27.4168C42.0906 20.4293 36.4281 14.7668 29.4405 14.7588ZM39.0847 28.0196H40.8623C40.5492 33.8602 35.8838 38.5255 30.0433 38.8386V37.0611C30.0433 36.7282 29.7734 36.4583 29.4405 36.4583C29.1076 36.4583 28.8377 36.7282 28.8377 37.0611V38.8386C22.9972 38.5255 18.3319 33.8602 18.0187 28.0196H19.7963C20.1292 28.0196 20.3991 27.7497 20.3991 27.4168C20.3991 27.084 20.1292 26.8141 19.7963 26.8141H18.0187C18.3319 20.9735 22.9972 16.3082 28.8377 15.9951V17.7726C28.8377 18.1055 29.1076 18.3754 29.4405 18.3754C29.7734 18.3754 30.0433 18.1055 30.0433 17.7726V15.9951C35.8838 16.3082 40.5492 20.9735 40.8623 26.8141H39.0847C38.7519 26.8141 38.482 27.084 38.482 27.4168C38.482 27.7497 38.7519 28.0196 39.0847 28.0196Z" fill="#459F5E" stroke="#459F5E" stroke-width="0.361667"/>
<path d="M30.0433 25.7177V20.1819C30.0433 19.849 29.7734 19.5791 29.4405 19.5791C29.1076 19.5791 28.8377 19.849 28.8377 20.1819V25.7177C28.3273 25.9 27.9255 26.3018 27.7431 26.8123H24.6184C24.2855 26.8123 24.0156 27.0822 24.0156 27.415C24.0156 27.7479 24.2855 28.0178 24.6184 28.0178H27.7431C28.0734 28.9578 29.1033 29.4521 30.0433 29.1218C30.9833 28.7915 31.4775 27.7616 31.1472 26.8216C30.9658 26.3052 30.5597 25.8992 30.0433 25.7177ZM29.4405 28.0178C29.1076 28.0178 28.8377 27.7479 28.8377 27.415C28.8377 27.0822 29.1076 26.8123 29.4405 26.8123C29.7734 26.8123 30.0433 27.0822 30.0433 27.415C30.0433 27.7479 29.7735 28.0178 29.4405 28.0178Z" fill="#459F5E" stroke="#459F5E" stroke-width="0.361667"/>
</g>
</g>
<defs>
<clipPath id="clip0_7137_21845">
<rect width="46.6667" height="46.6667" fill="white" transform="translate(5.52319 4.66699)"/>
</clipPath>
<clipPath id="clip1_7137_21845">
<rect width="36.1667" height="36.1667" fill="white" transform="translate(11.3567 9.33301)"/>
</clipPath>
</defs>
</svg>
