<svg width="57" height="56" viewBox="0 0 57 56" fill="none" xmlns="http://www.w3.org/2000/svg">
<rect x="0.856445" width="56" height="56" rx="28" fill="#F1FAF3"/>
<g clip-path="url(#clip0_7137_21874)">
<path d="M26.3455 12.1078V9.7998C18.1423 10.7809 11.6376 17.2856 10.6565 25.4888H12.9645C13.9196 18.5519 19.4086 13.0629 26.3455 12.1078ZM44.0485 25.4888H46.3565C45.3754 17.2856 38.8707 10.7809 30.6675 9.7998V12.1078C37.6044 13.0629 43.0934 18.5519 44.0485 25.4888ZM30.6675 43.1918V45.4998C38.8707 44.5187 45.3754 38.014 46.3565 29.8108H44.0485C43.0934 36.7477 37.6044 42.2367 30.6675 43.1918ZM12.9645 29.8108H10.6565C11.6376 38.014 18.1423 44.5187 26.3455 45.4998V43.1918C19.4086 42.2367 13.9196 36.7477 12.9645 29.8108ZM30.7799 29.9016C31.0003 29.9275 31.2251 29.9405 31.4541 29.9405C31.7221 29.9405 31.9987 29.9232 32.2796 29.8886C33.9825 29.6768 35.6508 28.8254 36.9863 27.4942C38.3175 26.163 39.169 24.4904 39.3807 22.7875C39.6055 20.9809 39.0955 19.3472 37.9415 18.1932C36.7875 17.0392 35.1581 16.5292 33.3472 16.754C31.6443 16.9657 29.976 17.8172 28.6405 19.1484C27.305 20.4796 26.4579 22.1522 26.2461 23.8551C26.1812 24.3694 26.1769 24.8707 26.2331 25.3505C25.7534 25.2986 25.252 25.3029 24.7377 25.3634C23.0348 25.5752 21.3665 26.4267 20.031 27.7579C18.6955 29.089 17.8484 30.7617 17.6366 32.4646C17.4118 34.2712 17.9218 35.9049 19.0758 37.0589C20.0526 38.0357 21.3665 38.55 22.8446 38.55C23.1126 38.55 23.3892 38.5327 23.6701 38.4981C25.373 38.2863 27.0413 37.4349 28.3768 36.1037C29.7123 34.7725 30.5595 33.0999 30.7712 31.397C30.8318 30.8827 30.8361 30.3813 30.7799 29.9016V29.9016ZM33.6281 19.0273C33.8096 19.0057 33.9868 18.9928 34.1597 18.9928C35.0284 18.9928 35.7848 19.278 36.3207 19.814C36.9647 20.4579 37.2413 21.4131 37.1073 22.5023C37.0944 22.606 37.0771 22.7097 37.0555 22.8134L33.3169 19.0749C33.4206 19.0576 33.5244 19.0403 33.6281 19.0273V19.0273ZM30.2612 20.7691C30.5162 20.5141 30.7929 20.2807 31.0738 20.0733L36.0571 25.0566C35.8496 25.3418 35.6206 25.6141 35.3612 25.8691C35.1624 26.0679 34.9593 26.2495 34.7475 26.4137L29.7167 21.3872C29.8809 21.1711 30.0624 20.9679 30.2612 20.7691ZM23.3849 36.229C22.2914 36.363 21.3362 36.0864 20.6966 35.4424C20.0526 34.7984 19.776 33.8433 19.91 32.7541C19.9316 32.564 19.9705 32.3781 20.0137 32.1879L23.9511 36.1253C23.7609 36.1685 23.5707 36.2031 23.3849 36.229V36.229ZM26.7517 34.4873C26.5486 34.6904 26.3368 34.8762 26.1164 35.0491L21.0856 30.0183C21.2584 29.7979 21.4443 29.5861 21.6474 29.3829C21.8981 29.1323 22.1617 28.9075 22.4384 28.7044L27.4303 33.6963C27.2272 33.9686 27.0024 34.2366 26.7517 34.4873V34.4873ZM28.4935 31.1161C28.4806 31.2328 28.459 31.3451 28.4373 31.4618L24.6729 27.6973C24.7895 27.6757 24.9019 27.6541 25.0186 27.6412C25.2001 27.6196 25.3773 27.6066 25.5502 27.6066C26.2979 27.6066 26.9592 27.814 27.4692 28.216C27.5384 28.2938 27.6118 28.3716 27.6853 28.4494C27.7588 28.5229 27.8366 28.5963 27.9187 28.6655C28.4114 29.2965 28.6145 30.1523 28.4935 31.1161V31.1161ZM29.3277 26.807C29.2499 26.7292 29.1721 26.6601 29.0943 26.5866C28.6016 25.9556 28.3984 25.0998 28.5195 24.136C28.5454 23.9372 28.5843 23.7384 28.6318 23.5396L32.5908 27.4985C32.392 27.5504 32.1932 27.585 31.9944 27.6109C31.0306 27.7319 30.1748 27.5288 29.5438 27.0361C29.4746 26.9626 29.4012 26.8848 29.3277 26.807V26.807Z" fill="#459F5E" stroke="#F1FAF3" stroke-width="0.528889"/>
</g>
<defs>
<clipPath id="clip0_7137_21874">
<rect width="56" height="56" fill="white" transform="translate(0.856445)"/>
</clipPath>
</defs>
</svg>
