<svg width="57" height="56" viewBox="0 0 57 56" fill="none" xmlns="http://www.w3.org/2000/svg">
<rect x="0.856445" width="56" height="56" rx="28" fill="#F1FAF3"/>
<g clip-path="url(#clip0_7137_21824)">
<g clip-path="url(#clip1_7137_21824)">
<path d="M44.2726 33.9042C42.105 35.0915 39.672 35.7102 37.2006 35.7026C29.0243 35.7026 22.3967 29.075 22.3967 20.8987C22.3967 18.6582 22.8939 16.5345 23.785 14.6308L23.7472 14.7213L25.0095 11.9516L22.3418 13.3971C17.0349 16.3066 13.4966 21.8563 13.4966 28.2308C13.4966 37.5433 21.0451 45.0919 30.3576 45.0919C37.133 45.0919 42.9759 41.0954 45.6551 35.3303L45.6987 35.2261L46.9609 32.4564L44.2726 33.9042ZM30.3645 43.0472C22.1825 43.0404 15.5515 36.4059 15.5515 28.2228C15.5515 23.6707 17.603 19.5975 20.8321 16.8782L20.855 16.8599C20.5263 18.1704 20.362 19.5167 20.3659 20.8678V20.9354V20.9319C20.3785 30.2353 27.9224 37.7724 37.2269 37.7724C39.0527 37.7724 40.811 37.4826 42.457 36.9454L42.3379 36.9786C39.606 40.6762 35.2624 43.0472 30.3656 43.0472H30.3645ZM36.3712 18.7121H42.4799V16.6754H38.8145L42.6838 12.7855C42.8232 12.6431 42.9178 12.463 42.9559 12.2675C42.994 12.0719 42.9739 11.8695 42.898 11.6853C42.8222 11.501 42.694 11.3431 42.5293 11.231C42.3645 11.1189 42.1706 11.0576 41.9714 11.0547H35.8615V13.0913H39.6083L35.739 16.9813C35.5995 17.1236 35.5049 17.3037 35.4669 17.4993C35.4288 17.6948 35.4489 17.8972 35.5248 18.0815C35.6006 18.2657 35.7288 18.4237 35.8935 18.5357C36.0582 18.6478 36.2522 18.7091 36.4514 18.7121H36.4526H36.3712ZM28.8571 25.3099C28.7278 25.457 28.6436 25.6383 28.6147 25.832C28.5858 26.0257 28.6134 26.2237 28.6941 26.4021C28.7749 26.5806 28.9054 26.7319 29.07 26.8381C29.2346 26.9442 29.4264 27.0006 29.6222 27.0006H34.6199V24.9639H31.8708L34.2533 22.2561C34.3815 22.1096 34.465 21.9296 34.4941 21.7371C34.5232 21.5447 34.4966 21.348 34.4175 21.1702C34.3383 20.9924 34.21 20.841 34.0475 20.7338C33.8851 20.6266 33.6953 20.5682 33.5007 20.5654H28.4905V22.602H31.219L28.8571 25.3099ZM42.8064 26.3488C42.7246 26.1725 42.5941 26.0232 42.4304 25.9185C42.2666 25.8138 42.0764 25.758 41.882 25.7577H38.3048V27.7944H39.6289L38.346 29.2605C38.2167 29.4076 38.1325 29.5889 38.1036 29.7827C38.0747 29.9764 38.1023 30.1743 38.183 30.3528C38.2638 30.5312 38.3943 30.6826 38.5589 30.7888C38.7236 30.8949 38.9153 30.9513 39.1112 30.9512H42.7033V28.9146H41.3597L42.6426 27.4484C42.7749 27.3003 42.8607 27.1165 42.8892 26.9199C42.9177 26.7233 42.8877 26.5227 42.803 26.3431L42.8052 26.3488H42.8064Z" fill="#459F5E" stroke="#F1FAF3" stroke-width="0.285091"/>
</g>
</g>
<defs>
<clipPath id="clip0_7137_21824">
<rect width="56" height="56" fill="white" transform="translate(0.856445)"/>
</clipPath>
<clipPath id="clip1_7137_21824">
<rect width="36.6544" height="36.6545" fill="white" transform="translate(10.5288 9.67383)"/>
</clipPath>
</defs>
</svg>
