<svg width="16" height="16" viewBox="0 0 16 16" fill="none" xmlns="http://www.w3.org/2000/svg">
<path fill-rule="evenodd" clip-rule="evenodd" d="M12.0023 4.12085L10.9268 3.01535C8.40228 0.420352 3.77328 1.31585 2.10228 4.57835C1.31778 6.11285 1.14078 8.32835 2.57328 11.1559C3.95328 13.8784 6.82428 17.1394 12.0023 20.6914C17.1803 17.1394 20.0498 13.8784 21.4313 11.1559C22.8638 8.32685 22.6883 6.11285 21.9023 4.57835C20.2313 1.31585 15.6023 0.418852 13.0778 3.01385L12.0023 4.12085ZM12.0023 22.4989C-10.9972 7.30085 4.92078 -4.56115 11.7383 1.71335C11.8283 1.79585 11.9168 1.88135 12.0023 1.96985C12.0869 1.88143 12.175 1.79637 12.2663 1.71485C19.0823 -4.56415 35.0018 7.29935 12.0023 22.4989Z" fill="black"/>
</svg>
