<?xml version="1.0" encoding="UTF-8"?>
<svg xmlns="http://www.w3.org/2000/svg" xmlns:xlink="http://www.w3.org/1999/xlink" width="189px" height="34px" viewBox="0 0 187 34" version="1.1">
<defs>
<clipPath id="clip1">
  <path d="M 50 15 L 61 15 L 61 28.210938 L 50 28.210938 Z M 50 15 "/>
</clipPath>
<clipPath id="clip2">
  <path d="M 61.625 12.75 L 69 12.75 L 69 28.210938 L 61.625 28.210938 Z M 61.625 12.75 "/>
</clipPath>
<clipPath id="clip3">
  <path d="M 91 15 L 103 15 L 103 28.210938 L 91 28.210938 Z M 91 15 "/>
</clipPath>
<clipPath id="clip4">
  <path d="M 33.8125 11.398438 L 48.875 11.398438 L 48.875 28 L 33.8125 28 Z M 33.8125 11.398438 "/>
</clipPath>
<clipPath id="clip5">
  <path d="M 70.125 15 L 81.8125 15 L 81.8125 28.210938 L 70.125 28.210938 Z M 70.125 15 "/>
</clipPath>
<clipPath id="clip6">
  <path d="M 105 11.398438 L 119 11.398438 L 119 28.210938 L 105 28.210938 Z M 105 11.398438 "/>
</clipPath>
<clipPath id="clip7">
  <path d="M 120 15 L 131.75 15 L 131.75 28.210938 L 120 28.210938 Z M 120 15 "/>
</clipPath>
<clipPath id="clip8">
  <path d="M 158 12.75 L 165.75 12.75 L 165.75 28.210938 L 158 28.210938 Z M 158 12.75 "/>
</clipPath>
<clipPath id="clip9">
  <path d="M 166 15 L 178 15 L 178 28.210938 L 166 28.210938 Z M 166 15 "/>
</clipPath>
<clipPath id="clip10">
  <path d="M 145.5625 15 L 157 15 L 157 28 L 145.5625 28 Z M 145.5625 15 "/>
</clipPath>
<clipPath id="clip11">
  <path d="M 178.5 15 L 186.414062 15 L 186.414062 28 L 178.5 28 Z M 178.5 15 "/>
</clipPath>
<clipPath id="clip12">
  <path d="M 133 15 L 145 15 L 145 28.210938 L 133 28.210938 Z M 133 15 "/>
</clipPath>
</defs>
<g id="surface1">
<path style=" stroke:none;fill-rule:nonzero;fill:rgb(94.509804%,98.039216%,95.294118%);fill-opacity:1;" d="M 27.828125 20.859375 C 27.828125 14.789062 22.90625 9.859375 16.828125 9.859375 C 10.757812 9.859375 5.832031 14.789062 5.832031 20.859375 C 5.832031 26.9375 10.757812 31.863281 16.828125 31.863281 C 22.90625 31.863281 27.828125 26.9375 27.828125 20.859375 Z M 27.828125 20.859375 "/>
<path style=" stroke:none;fill-rule:nonzero;fill:rgb(22.745098%,21.568627%,37.254902%);fill-opacity:1;" d="M 16.246094 27.902344 C 16.167969 24.234375 17.125 20.421875 19.175781 18 C 16.023438 18.148438 13.605469 20.347656 12.871094 22.839844 C 14.074219 24.875 16.023438 27.609375 16.246094 27.902344 Z M 16.246094 27.902344 "/>
<path style=" stroke:none;fill-rule:nonzero;fill:rgb(22.745098%,21.568627%,37.254902%);fill-opacity:1;" d="M 15.511719 16.460938 C 15.511719 15.410156 14.65625 14.554688 13.605469 14.554688 C 12.550781 14.554688 11.695312 15.410156 11.695312 16.460938 C 11.695312 17.515625 12.550781 18.371094 13.605469 18.371094 C 14.65625 18.371094 15.511719 17.515625 15.511719 16.460938 Z M 15.511719 16.460938 "/>
<path style=" stroke:none;fill-rule:nonzero;fill:rgb(27.058824%,62.352941%,36.862745%);fill-opacity:1;" d="M 25.90625 10.910156 C 26.46875 10.53125 27.054688 10.15625 27.683594 9.789062 C 27.066406 10.164062 26.476562 10.539062 25.90625 10.910156 C 16.855469 17.085938 15.929688 25.089844 17.453125 29.402344 L 16.976562 29.664062 L 15.835938 27.683594 L 13.300781 23.285156 C 13.457031 24.234375 12.066406 29.292969 9.789062 32.300781 C 12.003906 28.984375 12.261719 26.296875 12.398438 22.601562 L 12.726562 22.273438 L 13.300781 23.285156 L 15.835938 27.683594 C 15.835938 19.703125 19.175781 15.339844 25.90625 10.910156 Z M 25.90625 10.910156 "/>
<path style=" stroke:none;fill-rule:evenodd;fill:rgb(27.058824%,62.352941%,36.862745%);fill-opacity:1;" d="M 28.046875 9.570312 C 28.167969 9.769531 28.105469 10.03125 27.902344 10.15625 C 27.292969 10.53125 26.707031 10.898438 26.144531 11.269531 C 17.242188 17.339844 16.402344 25.148438 17.855469 29.257812 C 17.921875 29.457031 17.839844 29.675781 17.65625 29.773438 L 17.183594 30.035156 C 16.980469 30.148438 16.722656 30.078125 16.605469 29.875 L 13.585938 24.628906 C 13.574219 24.675781 13.566406 24.714844 13.554688 24.761719 C 13.410156 25.4375 13.171875 26.269531 12.863281 27.164062 C 12.238281 28.945312 11.304688 31.007812 10.132812 32.558594 C 9.992188 32.742188 9.734375 32.785156 9.542969 32.652344 C 9.355469 32.515625 9.304688 32.257812 9.433594 32.066406 C 11.578125 28.847656 11.832031 26.257812 11.96875 22.585938 C 11.972656 22.480469 12.019531 22.375 12.09375 22.300781 L 12.421875 21.972656 C 12.515625 21.882812 12.644531 21.835938 12.777344 21.851562 C 12.910156 21.867188 13.027344 21.949219 13.09375 22.0625 L 15.453125 26.15625 C 15.644531 22.820312 16.480469 20.109375 17.988281 17.734375 C 19.710938 15.019531 22.277344 12.789062 25.667969 10.558594 C 26.234375 10.171875 26.832031 9.789062 27.464844 9.421875 C 27.667969 9.300781 27.929688 9.367188 28.046875 9.570312 Z M 16.5 24.28125 C 16.347656 25.300781 16.269531 26.390625 16.265625 27.566406 L 16.707031 28.335938 C 16.445312 27.136719 16.351562 25.761719 16.5 24.28125 Z M 12.886719 23.417969 L 12.800781 23.261719 C 12.777344 23.707031 12.753906 24.140625 12.726562 24.5625 C 12.792969 24.25 12.839844 23.984375 12.867188 23.769531 C 12.882812 23.601562 12.890625 23.488281 12.886719 23.417969 Z M 12.886719 23.417969 "/>
<path style=" stroke:none;fill-rule:evenodd;fill:rgb(27.058824%,62.352941%,36.862745%);fill-opacity:1;" d="M 25.152344 9.839844 C 25.722656 9.601562 27.273438 8.792969 27.816406 6.914062 C 28.351562 5.042969 27.792969 2.472656 27.550781 1.539062 C 27.5 3.289062 27.382812 4.648438 27.152344 5.777344 C 26.917969 6.925781 26.5625 7.835938 26.035156 8.675781 C 25.78125 9.074219 25.488281 9.453125 25.152344 9.839844 Z M 27.34375 1.269531 C 26.832031 1.695312 24.652344 3.585938 24.011719 5.820312 C 23.375 8.027344 24.546875 9.5 24.859375 9.84375 C 25.246094 9.417969 25.574219 9.003906 25.851562 8.5625 C 26.117188 8.058594 26.082031 7.582031 25.851562 7.183594 C 25.621094 6.78125 25.1875 6.457031 24.644531 6.296875 C 24.585938 6.28125 24.558594 6.222656 24.574219 6.164062 C 24.589844 6.109375 24.648438 6.078125 24.707031 6.09375 C 25.289062 6.265625 25.773438 6.621094 26.039062 7.078125 C 26.171875 7.3125 26.25 7.574219 26.25 7.847656 C 26.554688 7.226562 26.777344 6.546875 26.945312 5.734375 C 27.179688 4.570312 27.296875 3.140625 27.34375 1.269531 Z M 27.34375 1.269531 "/>
<path style=" stroke:none;fill-rule:nonzero;fill:rgb(27.058824%,62.352941%,36.862745%);fill-opacity:1;" d="M 27.816406 6.914062 L 27.832031 6.921875 Z M 25.152344 9.839844 L 25.136719 9.824219 C 25.128906 9.832031 25.128906 9.84375 25.136719 9.851562 C 25.140625 9.859375 25.152344 9.859375 25.160156 9.855469 Z M 27.550781 1.539062 L 27.570312 1.535156 C 27.566406 1.523438 27.558594 1.519531 27.546875 1.519531 C 27.539062 1.519531 27.53125 1.527344 27.53125 1.539062 Z M 27.152344 5.777344 L 27.171875 5.78125 Z M 26.035156 8.675781 L 26.050781 8.683594 Z M 24.011719 5.820312 L 24.03125 5.828125 Z M 27.34375 1.269531 L 27.363281 1.269531 C 27.363281 1.261719 27.359375 1.257812 27.351562 1.253906 C 27.347656 1.25 27.339844 1.25 27.332031 1.253906 Z M 24.859375 9.84375 L 24.84375 9.855469 C 24.847656 9.859375 24.855469 9.867188 24.859375 9.867188 C 24.867188 9.867188 24.875 9.859375 24.878906 9.855469 Z M 25.851562 8.5625 L 25.871094 8.574219 L 25.871094 8.570312 Z M 25.851562 7.183594 L 25.871094 7.171875 Z M 24.644531 6.296875 L 24.640625 6.316406 Z M 24.574219 6.164062 L 24.59375 6.171875 Z M 24.707031 6.09375 L 24.710938 6.070312 Z M 26.039062 7.078125 L 26.054688 7.066406 Z M 26.25 7.847656 L 26.230469 7.847656 C 26.230469 7.855469 26.238281 7.863281 26.246094 7.871094 C 26.253906 7.871094 26.269531 7.863281 26.273438 7.855469 Z M 26.945312 5.734375 L 26.964844 5.738281 Z M 27.796875 6.910156 C 27.253906 8.78125 25.714844 9.582031 25.144531 9.820312 L 25.160156 9.855469 C 25.738281 9.621094 27.289062 8.8125 27.832031 6.921875 Z M 27.53125 1.542969 C 27.648438 2.007812 27.847656 2.882812 27.953125 3.875 C 28.054688 4.867188 28.0625 5.976562 27.796875 6.910156 L 27.832031 6.921875 C 28.105469 5.980469 28.097656 4.867188 27.996094 3.871094 C 27.890625 2.878906 27.691406 2 27.570312 1.535156 Z M 27.53125 1.539062 C 27.480469 3.289062 27.363281 4.648438 27.132812 5.773438 L 27.171875 5.78125 C 27.40625 4.652344 27.519531 3.292969 27.570312 1.539062 Z M 27.132812 5.773438 C 26.898438 6.921875 26.546875 7.828125 26.019531 8.660156 L 26.050781 8.683594 C 26.582031 7.847656 26.9375 6.933594 27.171875 5.78125 Z M 26.019531 8.660156 C 25.765625 9.058594 25.476562 9.441406 25.136719 9.824219 L 25.167969 9.851562 C 25.503906 9.472656 25.796875 9.085938 26.050781 8.683594 Z M 24.03125 5.828125 C 24.351562 4.714844 25.050781 3.6875 25.742188 2.878906 C 26.429688 2.074219 27.101562 1.5 27.355469 1.285156 L 27.332031 1.253906 C 27.074219 1.464844 26.402344 2.046875 25.707031 2.851562 C 25.019531 3.660156 24.3125 4.695312 23.988281 5.816406 Z M 24.878906 9.828125 C 24.566406 9.488281 23.394531 8.023438 24.03125 5.828125 L 23.988281 5.816406 C 23.351562 8.03125 24.527344 9.511719 24.84375 9.855469 Z M 24.878906 9.855469 C 25.261719 9.433594 25.589844 9.015625 25.871094 8.574219 L 25.835938 8.550781 C 25.558594 8.988281 25.230469 9.40625 24.84375 9.828125 Z M 25.871094 8.570312 C 26.140625 8.0625 26.101562 7.574219 25.871094 7.171875 L 25.835938 7.191406 C 26.058594 7.585938 26.09375 8.054688 25.832031 8.554688 Z M 25.871094 7.171875 C 25.636719 6.765625 25.195312 6.441406 24.652344 6.28125 L 24.640625 6.316406 C 25.175781 6.480469 25.609375 6.796875 25.835938 7.191406 Z M 24.652344 6.28125 C 24.609375 6.261719 24.578125 6.21875 24.59375 6.171875 L 24.554688 6.160156 C 24.53125 6.226562 24.570312 6.296875 24.640625 6.316406 Z M 24.59375 6.171875 C 24.609375 6.125 24.652344 6.101562 24.699219 6.113281 L 24.710938 6.070312 C 24.644531 6.050781 24.574219 6.09375 24.554688 6.160156 Z M 24.699219 6.113281 C 25.28125 6.289062 25.757812 6.636719 26.019531 7.089844 L 26.054688 7.066406 C 25.789062 6.601562 25.300781 6.25 24.710938 6.070312 Z M 26.019531 7.089844 C 26.152344 7.320312 26.226562 7.578125 26.230469 7.847656 L 26.273438 7.847656 C 26.273438 7.570312 26.191406 7.304688 26.054688 7.066406 Z M 26.273438 7.855469 C 26.574219 7.234375 26.800781 6.550781 26.964844 5.738281 L 26.921875 5.730469 C 26.757812 6.535156 26.535156 7.222656 26.230469 7.839844 Z M 26.964844 5.738281 C 27.203125 4.570312 27.316406 3.144531 27.363281 1.269531 L 27.320312 1.269531 C 27.277344 3.140625 27.160156 4.566406 26.921875 5.730469 Z M 26.964844 5.738281 "/>
<g clip-path="url(#clip1)" clip-rule="nonzero">
<path style=" stroke:none;fill-rule:nonzero;fill:rgb(22.745098%,21.568627%,37.254902%);fill-opacity:1;" d="M 60.371094 25.050781 L 60.371094 19.855469 C 60.371094 18.914062 60.15625 18.125 59.734375 17.496094 C 59.3125 16.867188 58.730469 16.398438 57.996094 16.082031 C 57.265625 15.765625 56.425781 15.609375 55.484375 15.609375 C 54.699219 15.609375 53.988281 15.710938 53.347656 15.910156 C 52.714844 16.113281 52.179688 16.390625 51.71875 16.75 C 51.257812 17.105469 50.914062 17.515625 50.675781 17.972656 C 50.4375 18.441406 50.316406 18.929688 50.316406 19.445312 L 53.546875 19.445312 C 53.546875 19.136719 53.625 18.871094 53.765625 18.648438 C 53.910156 18.417969 54.109375 18.242188 54.371094 18.125 C 54.628906 17.996094 54.941406 17.929688 55.304688 17.929688 C 55.71875 17.929688 56.0625 18.007812 56.324219 18.167969 C 56.597656 18.324219 56.789062 18.546875 56.921875 18.832031 C 57.050781 19.109375 57.113281 19.441406 57.113281 19.828125 L 57.113281 20.582031 L 55.664062 20.582031 C 54.734375 20.582031 53.917969 20.667969 53.210938 20.855469 C 52.507812 21.027344 51.917969 21.289062 51.453125 21.632812 C 50.984375 21.96875 50.628906 22.386719 50.394531 22.878906 C 50.15625 23.363281 50.03125 23.929688 50.03125 24.570312 C 50.03125 25.277344 50.214844 25.902344 50.574219 26.453125 C 50.941406 27.003906 51.4375 27.433594 52.054688 27.75 C 52.683594 28.054688 53.382812 28.210938 54.15625 28.210938 C 54.757812 28.210938 55.28125 28.121094 55.726562 27.9375 C 56.167969 27.75 56.550781 27.511719 56.863281 27.230469 C 57 27.101562 57.121094 26.972656 57.246094 26.835938 C 57.324219 27.289062 57.4375 27.679688 57.582031 27.984375 L 60.851562 27.984375 L 60.851562 27.792969 C 60.695312 27.476562 60.570312 27.109375 60.492188 26.691406 C 60.414062 26.269531 60.371094 25.71875 60.371094 25.050781 Z M 56.136719 25.5 C 55.777344 25.695312 55.355469 25.792969 54.863281 25.792969 C 54.539062 25.792969 54.261719 25.738281 54.027344 25.613281 C 53.785156 25.484375 53.597656 25.3125 53.46875 25.097656 C 53.339844 24.875 53.273438 24.621094 53.273438 24.34375 C 53.273438 24.058594 53.320312 23.8125 53.410156 23.578125 C 53.515625 23.351562 53.65625 23.148438 53.859375 22.976562 C 54.058594 22.796875 54.320312 22.660156 54.636719 22.558594 C 54.953125 22.457031 55.316406 22.417969 55.75 22.417969 L 57.109375 22.417969 L 57.109375 24.519531 C 57.0625 24.609375 57.03125 24.695312 56.964844 24.785156 C 56.769531 25.078125 56.492188 25.3125 56.128906 25.503906 Z M 56.136719 25.5 "/>
</g>
<g clip-path="url(#clip2)" clip-rule="nonzero">
<path style=" stroke:none;fill-rule:nonzero;fill:rgb(22.745098%,21.568627%,37.254902%);fill-opacity:1;" d="M 68.535156 25.609375 C 68.378906 25.625 68.199219 25.628906 67.996094 25.628906 C 67.710938 25.628906 67.480469 25.59375 67.292969 25.527344 C 67.109375 25.457031 66.960938 25.320312 66.867188 25.136719 C 66.785156 24.949219 66.734375 24.675781 66.734375 24.328125 L 66.734375 18.125 L 68.824219 18.125 L 68.824219 15.832031 L 66.734375 15.832031 L 66.734375 13.941406 C 66.734375 13.421875 67.0625 13.125 67.25 13.035156 C 67.472656 12.929688 67.484375 12.839844 67.335938 12.839844 L 63.496094 12.839844 L 63.496094 15.832031 L 61.746094 15.832031 L 61.746094 18.125 L 63.496094 18.125 L 63.496094 24.652344 C 63.496094 25.507812 63.640625 26.199219 63.921875 26.722656 C 64.210938 27.246094 64.613281 27.628906 65.136719 27.867188 C 65.667969 28.09375 66.285156 28.210938 67 28.210938 C 67.386719 28.210938 67.746094 28.179688 68.0625 28.132812 C 68.386719 28.082031 68.679688 28.011719 68.957031 27.914062 L 68.945312 25.539062 C 68.832031 25.558594 68.691406 25.578125 68.53125 25.601562 Z M 68.535156 25.609375 "/>
</g>
<path style=" stroke:none;fill-rule:nonzero;fill:rgb(22.745098%,21.568627%,37.254902%);fill-opacity:1;" d="M 89.433594 15.609375 C 88.867188 15.609375 88.363281 15.746094 87.917969 16.011719 C 87.476562 16.28125 87.097656 16.664062 86.796875 17.152344 C 86.757812 17.210938 86.738281 17.28125 86.703125 17.339844 L 86.59375 15.824219 L 83.554688 15.824219 L 83.554688 26.855469 C 83.554688 27.386719 83.222656 27.691406 83.035156 27.785156 C 82.8125 27.890625 82.800781 27.976562 82.949219 27.976562 L 86.789062 27.976562 L 86.789062 20 C 86.898438 19.757812 87.027344 19.53125 87.203125 19.34375 C 87.429688 19.125 87.710938 18.949219 88.039062 18.84375 C 88.378906 18.722656 88.773438 18.664062 89.234375 18.664062 C 89.410156 18.664062 89.617188 18.675781 89.832031 18.699219 C 90.050781 18.714844 90.246094 18.734375 90.402344 18.753906 L 90.460938 15.757812 C 90.339844 15.71875 90.1875 15.679688 90 15.660156 C 89.816406 15.628906 89.628906 15.613281 89.449219 15.613281 Z M 89.433594 15.609375 "/>
<g clip-path="url(#clip3)" clip-rule="nonzero">
<path style=" stroke:none;fill-rule:nonzero;fill:rgb(22.745098%,21.568627%,37.254902%);fill-opacity:1;" d="M 102.328125 21.5625 C 102.328125 20.667969 102.214844 19.863281 101.984375 19.128906 C 101.753906 18.398438 101.410156 17.765625 100.949219 17.246094 C 100.5 16.722656 99.941406 16.320312 99.273438 16.03125 C 98.605469 15.746094 97.84375 15.609375 96.980469 15.609375 C 96.117188 15.609375 95.304688 15.757812 94.605469 16.066406 C 93.898438 16.367188 93.300781 16.800781 92.808594 17.359375 C 92.316406 17.921875 91.945312 18.585938 91.683594 19.351562 C 91.425781 20.121094 91.289062 20.957031 91.289062 21.886719 L 91.289062 22.328125 C 91.289062 23.132812 91.425781 23.902344 91.707031 24.621094 C 91.984375 25.335938 92.378906 25.960938 92.898438 26.496094 C 93.421875 27.035156 94.054688 27.464844 94.8125 27.769531 C 95.558594 28.074219 96.40625 28.214844 97.347656 28.214844 C 98.132812 28.214844 98.835938 28.105469 99.449219 27.898438 C 100.058594 27.683594 100.582031 27.40625 101.019531 27.066406 C 101.460938 26.730469 101.8125 26.375 102.0625 26.011719 L 100.488281 24.300781 C 100.125 24.765625 99.683594 25.109375 99.171875 25.34375 C 98.671875 25.5625 98.132812 25.679688 97.542969 25.679688 C 97.070312 25.679688 96.648438 25.601562 96.269531 25.433594 C 95.902344 25.265625 95.585938 25.039062 95.328125 24.734375 C 95.078125 24.433594 94.875 24.085938 94.734375 23.671875 C 94.652344 23.4375 94.605469 23.175781 94.574219 22.910156 L 102.328125 22.910156 Z M 99.152344 20.757812 L 94.617188 20.757812 C 94.628906 20.632812 94.644531 20.511719 94.667969 20.394531 C 94.765625 19.933594 94.902344 19.539062 95.089844 19.203125 C 95.285156 18.863281 95.539062 18.605469 95.84375 18.417969 C 96.15625 18.234375 96.523438 18.136719 96.945312 18.136719 C 97.445312 18.136719 97.859375 18.246094 98.183594 18.453125 C 98.503906 18.664062 98.742188 18.949219 98.898438 19.3125 C 99.066406 19.660156 99.144531 20.0625 99.144531 20.511719 L 99.144531 20.757812 Z M 99.152344 20.757812 "/>
</g>
<g clip-path="url(#clip4)" clip-rule="nonzero">
<path style=" stroke:none;fill-rule:nonzero;fill:rgb(22.745098%,21.568627%,37.254902%);fill-opacity:1;" d="M 48.429688 11.632812 L 44.472656 11.632812 L 44.472656 22.601562 L 37.878906 11.632812 L 34.515625 11.632812 L 34.515625 26.867188 C 34.515625 27.398438 34.1875 27.699219 34 27.792969 C 33.777344 27.898438 33.757812 27.984375 33.914062 27.984375 L 37.878906 27.984375 L 37.878906 17.023438 L 44.449219 27.984375 L 47.820312 27.984375 L 47.820312 12.753906 C 47.820312 12.222656 48.152344 11.917969 48.339844 11.828125 C 48.558594 11.71875 48.578125 11.632812 48.425781 11.632812 Z M 48.429688 11.632812 "/>
</g>
<g clip-path="url(#clip5)" clip-rule="nonzero">
<path style=" stroke:none;fill-rule:nonzero;fill:rgb(22.745098%,21.568627%,37.254902%);fill-opacity:1;" d="M 81.683594 15.828125 L 77.84375 15.828125 L 77.84375 24.421875 C 77.679688 24.757812 77.449219 25.039062 77.144531 25.253906 C 76.761719 25.527344 76.234375 25.65625 75.566406 25.65625 C 75.308594 25.65625 75.0625 25.621094 74.847656 25.554688 C 74.640625 25.492188 74.453125 25.375 74.296875 25.21875 C 74.136719 25.058594 74.015625 24.855469 73.921875 24.617188 C 73.84375 24.371094 73.796875 24.058594 73.796875 23.703125 L 73.796875 16.851562 C 73.84375 16.390625 74.128906 16.113281 74.300781 16.03125 C 74.523438 15.925781 74.539062 15.835938 74.386719 15.835938 L 70.566406 15.835938 L 70.566406 23.6875 C 70.566406 24.492188 70.664062 25.1875 70.859375 25.765625 C 71.058594 26.335938 71.339844 26.800781 71.695312 27.164062 C 72.050781 27.523438 72.476562 27.792969 72.972656 27.964844 C 73.472656 28.128906 74.023438 28.210938 74.613281 28.210938 C 75.378906 28.210938 76.054688 28.074219 76.625 27.792969 C 77.15625 27.523438 77.597656 27.160156 77.953125 26.699219 L 78.039062 27.976562 L 81.082031 27.976562 L 81.082031 16.949219 C 81.082031 16.417969 81.410156 16.117188 81.597656 16.023438 C 81.820312 15.917969 81.835938 15.828125 81.683594 15.828125 Z M 81.683594 15.828125 "/>
</g>
<g clip-path="url(#clip6)" clip-rule="nonzero">
<path style=" stroke:none;fill-rule:nonzero;fill:rgb(27.058824%,62.352941%,36.862745%);fill-opacity:1;" d="M 108.785156 16.949219 C 108.929688 16.296875 109.140625 15.757812 109.425781 15.335938 C 109.714844 14.914062 110.070312 14.589844 110.484375 14.375 C 110.898438 14.167969 111.398438 14.0625 111.957031 14.0625 C 112.703125 14.0625 113.308594 14.1875 113.753906 14.421875 C 114.214844 14.652344 114.550781 15.003906 114.773438 15.464844 C 115 15.925781 115.128906 16.476562 115.167969 17.136719 L 118.542969 17.136719 C 118.4375 16.03125 118.125 15.039062 117.601562 14.179688 C 117.082031 13.304688 116.355469 12.625 115.40625 12.136719 C 114.472656 11.640625 113.320312 11.398438 111.957031 11.398438 C 110.925781 11.398438 110.003906 11.582031 109.167969 11.949219 C 108.332031 12.3125 107.625 12.839844 107.027344 13.523438 C 106.4375 14.207031 105.976562 15.03125 105.652344 16.003906 C 105.335938 16.96875 105.179688 18.050781 105.179688 19.253906 L 105.179688 20.386719 C 105.179688 21.589844 105.328125 22.664062 105.640625 23.636719 C 105.945312 24.597656 106.394531 25.425781 106.976562 26.109375 C 107.566406 26.789062 108.277344 27.316406 109.109375 27.683594 C 109.945312 28.042969 110.878906 28.222656 111.929688 28.222656 C 113.265625 28.222656 114.414062 27.984375 115.363281 27.503906 C 116.320312 27.023438 117.066406 26.363281 117.601562 25.503906 C 118.140625 24.648438 118.441406 23.671875 118.515625 22.574219 L 115.15625 22.574219 C 115.109375 23.234375 114.960938 23.78125 114.71875 24.226562 C 114.480469 24.664062 114.128906 25.003906 113.675781 25.226562 C 113.214844 25.449219 112.640625 25.5625 111.9375 25.5625 C 111.339844 25.5625 110.820312 25.453125 110.394531 25.238281 C 109.980469 25.019531 109.636719 24.6875 109.363281 24.246094 C 109.101562 23.8125 108.902344 23.269531 108.78125 22.632812 C 108.648438 21.984375 108.585938 21.242188 108.585938 20.394531 L 108.585938 19.238281 C 108.585938 18.371094 108.648438 17.613281 108.785156 16.96875 Z M 108.785156 16.949219 "/>
</g>
<g clip-path="url(#clip7)" clip-rule="nonzero">
<path style=" stroke:none;fill-rule:nonzero;fill:rgb(27.058824%,62.352941%,36.862745%);fill-opacity:1;" d="M 130.019531 17.371094 C 129.53125 16.816406 128.929688 16.386719 128.210938 16.074219 C 127.488281 15.757812 126.671875 15.601562 125.75 15.601562 C 124.832031 15.601562 124.007812 15.757812 123.300781 16.074219 C 122.585938 16.386719 121.988281 16.816406 121.503906 17.371094 C 121.011719 17.921875 120.648438 18.578125 120.386719 19.332031 C 120.136719 20.078125 120.003906 20.898438 120.003906 21.789062 L 120.003906 22.027344 C 120.003906 22.910156 120.136719 23.730469 120.386719 24.488281 C 120.640625 25.234375 121.011719 25.886719 121.503906 26.445312 C 121.996094 27.003906 122.601562 27.433594 123.3125 27.742188 C 124.03125 28.050781 124.851562 28.203125 125.769531 28.203125 C 126.691406 28.203125 127.511719 28.050781 128.222656 27.742188 C 128.9375 27.433594 129.53125 27.003906 130.019531 26.445312 C 130.515625 25.886719 130.890625 25.234375 131.140625 24.488281 C 131.394531 23.730469 131.523438 22.910156 131.523438 22.027344 L 131.523438 21.789062 C 131.523438 20.898438 131.394531 20.078125 131.140625 19.332031 C 130.890625 18.578125 130.507812 17.921875 130.019531 17.371094 Z M 128.28125 22.027344 C 128.28125 22.535156 128.230469 23.015625 128.136719 23.449219 C 128.050781 23.890625 127.90625 24.285156 127.710938 24.617188 C 127.515625 24.945312 127.257812 25.207031 126.9375 25.390625 C 126.613281 25.578125 126.230469 25.671875 125.777344 25.671875 C 125.324219 25.671875 124.921875 25.578125 124.597656 25.390625 C 124.273438 25.207031 124.019531 24.945312 123.816406 24.617188 C 123.625 24.277344 123.476562 23.890625 123.390625 23.449219 C 123.304688 23.015625 123.253906 22.527344 123.253906 22.027344 L 123.253906 21.789062 C 123.253906 21.296875 123.300781 20.835938 123.390625 20.394531 C 123.476562 19.953125 123.625 19.5625 123.816406 19.234375 C 124.019531 18.882812 124.273438 18.617188 124.589844 18.429688 C 124.914062 18.234375 125.304688 18.132812 125.757812 18.132812 C 126.210938 18.132812 126.601562 18.234375 126.921875 18.429688 C 127.246094 18.617188 127.503906 18.890625 127.699219 19.234375 C 127.898438 19.570312 128.042969 19.953125 128.136719 20.394531 C 128.238281 20.828125 128.28125 21.296875 128.28125 21.789062 Z M 128.28125 22.027344 "/>
</g>
<g clip-path="url(#clip8)" clip-rule="nonzero">
<path style=" stroke:none;fill-rule:nonzero;fill:rgb(27.058824%,62.352941%,36.862745%);fill-opacity:1;" d="M 164.96875 25.605469 C 164.8125 25.621094 164.632812 25.628906 164.429688 25.628906 C 164.144531 25.628906 163.914062 25.589844 163.730469 25.523438 C 163.542969 25.453125 163.398438 25.316406 163.300781 25.128906 C 163.210938 24.945312 163.164062 24.671875 163.164062 24.324219 L 163.164062 18.125 L 165.261719 18.125 L 165.261719 15.828125 L 163.164062 15.828125 L 163.164062 13.867188 C 163.203125 13.394531 163.496094 13.109375 163.671875 13.027344 C 163.894531 12.921875 163.90625 12.832031 163.757812 12.832031 L 159.921875 12.832031 L 159.921875 15.828125 L 158.171875 15.828125 L 158.171875 18.125 L 159.921875 18.125 L 159.921875 24.648438 C 159.921875 25.503906 160.066406 26.191406 160.351562 26.71875 C 160.636719 27.242188 161.039062 27.625 161.5625 27.863281 C 162.09375 28.09375 162.710938 28.207031 163.425781 28.207031 C 163.8125 28.207031 164.171875 28.179688 164.488281 28.128906 C 164.8125 28.078125 165.105469 28.007812 165.390625 27.910156 L 165.371094 25.535156 C 165.261719 25.554688 165.125 25.578125 164.957031 25.601562 Z M 164.96875 25.605469 "/>
</g>
<g clip-path="url(#clip9)" clip-rule="nonzero">
<path style=" stroke:none;fill-rule:nonzero;fill:rgb(27.058824%,62.352941%,36.862745%);fill-opacity:1;" d="M 176.292969 17.25 C 175.84375 16.722656 175.285156 16.320312 174.613281 16.03125 C 173.945312 15.746094 173.1875 15.609375 172.324219 15.609375 C 171.460938 15.609375 170.648438 15.757812 169.941406 16.070312 C 169.242188 16.367188 168.644531 16.800781 168.148438 17.359375 C 167.660156 17.921875 167.285156 18.585938 167.023438 19.351562 C 166.765625 20.121094 166.628906 20.957031 166.628906 21.886719 L 166.628906 22.328125 C 166.628906 23.132812 166.765625 23.902344 167.050781 24.625 C 167.328125 25.335938 167.722656 25.960938 168.238281 26.5 C 168.761719 27.039062 169.398438 27.464844 170.152344 27.769531 C 170.902344 28.074219 171.746094 28.21875 172.6875 28.21875 C 173.472656 28.21875 174.179688 28.109375 174.789062 27.898438 C 175.398438 27.683594 175.921875 27.40625 176.363281 27.066406 C 176.800781 26.730469 177.152344 26.375 177.40625 26.011719 L 175.832031 24.300781 C 175.464844 24.765625 175.027344 25.109375 174.515625 25.34375 C 174.011719 25.566406 173.472656 25.679688 172.882812 25.679688 C 172.40625 25.679688 171.992188 25.601562 171.609375 25.433594 C 171.246094 25.265625 170.929688 25.039062 170.667969 24.734375 C 170.417969 24.4375 170.214844 24.085938 170.074219 23.671875 C 169.992188 23.4375 169.941406 23.175781 169.917969 22.910156 L 177.667969 22.910156 L 177.667969 21.5625 C 177.667969 20.667969 177.558594 19.863281 177.324219 19.128906 C 177.097656 18.398438 176.75 17.765625 176.292969 17.25 Z M 174.496094 20.757812 L 169.957031 20.757812 C 169.972656 20.632812 169.988281 20.511719 170.007812 20.394531 C 170.109375 19.933594 170.246094 19.539062 170.429688 19.203125 C 170.625 18.863281 170.878906 18.605469 171.1875 18.417969 C 171.492188 18.234375 171.863281 18.136719 172.285156 18.136719 C 172.789062 18.136719 173.199219 18.246094 173.523438 18.457031 C 173.847656 18.664062 174.082031 18.949219 174.242188 19.3125 C 174.40625 19.664062 174.488281 20.066406 174.488281 20.511719 L 174.488281 20.757812 Z M 174.496094 20.757812 "/>
</g>
<g clip-path="url(#clip10)" clip-rule="nonzero">
<path style=" stroke:none;fill-rule:nonzero;fill:rgb(27.058824%,62.352941%,36.862745%);fill-opacity:1;" d="M 155.773438 16.644531 C 155.433594 16.28125 155.03125 16.023438 154.554688 15.859375 C 154.082031 15.691406 153.5625 15.613281 152.996094 15.613281 C 152.277344 15.613281 151.621094 15.75 151.039062 16.027344 C 150.464844 16.304688 149.96875 16.691406 149.546875 17.207031 C 149.527344 17.238281 149.5 17.273438 149.480469 17.3125 L 149.363281 15.84375 L 146.332031 15.84375 L 146.332031 26.878906 C 146.332031 27.410156 146.003906 27.710938 145.816406 27.804688 C 145.589844 27.910156 145.578125 28 145.726562 28 L 149.566406 28 L 149.566406 19.386719 C 149.617188 19.300781 149.660156 19.199219 149.710938 19.121094 C 149.921875 18.8125 150.1875 18.578125 150.492188 18.402344 C 150.816406 18.230469 151.191406 18.144531 151.628906 18.144531 C 152.070312 18.144531 152.398438 18.207031 152.683594 18.335938 C 152.984375 18.460938 153.199219 18.667969 153.347656 18.972656 C 153.5 19.273438 153.574219 19.691406 153.574219 20.230469 L 153.574219 26.945312 C 153.542969 27.425781 153.242188 27.703125 153.066406 27.792969 C 152.847656 27.898438 152.828125 27.984375 152.984375 27.984375 L 156.835938 27.984375 L 156.835938 20.238281 C 156.835938 19.382812 156.738281 18.660156 156.550781 18.066406 C 156.375 17.476562 156.117188 17 155.773438 16.644531 Z M 155.773438 16.644531 "/>
</g>
<g clip-path="url(#clip11)" clip-rule="nonzero">
<path style=" stroke:none;fill-rule:nonzero;fill:rgb(27.058824%,62.352941%,36.862745%);fill-opacity:1;" d="M 185.953125 15.652344 C 185.765625 15.621094 185.582031 15.609375 185.402344 15.609375 C 184.832031 15.609375 184.332031 15.746094 183.882812 16.011719 C 183.441406 16.285156 183.066406 16.664062 182.761719 17.152344 C 182.726562 17.210938 182.703125 17.28125 182.667969 17.339844 L 182.558594 15.824219 L 179.519531 15.824219 L 179.519531 26.855469 C 179.519531 27.386719 179.1875 27.691406 179.003906 27.785156 C 178.777344 27.894531 178.765625 27.976562 178.914062 27.976562 L 182.753906 27.976562 L 182.753906 20 C 182.863281 19.757812 182.992188 19.53125 183.171875 19.34375 C 183.394531 19.125 183.675781 18.949219 184.003906 18.84375 C 184.34375 18.722656 184.738281 18.664062 185.199219 18.664062 C 185.378906 18.664062 185.582031 18.675781 185.796875 18.703125 C 186.015625 18.714844 186.210938 18.734375 186.367188 18.753906 L 186.425781 15.757812 C 186.308594 15.71875 186.152344 15.679688 185.964844 15.660156 Z M 185.953125 15.652344 "/>
</g>
<g clip-path="url(#clip12)" clip-rule="nonzero">
<path style=" stroke:none;fill-rule:nonzero;fill:rgb(27.058824%,62.352941%,36.862745%);fill-opacity:1;" d="M 144.542969 15.828125 L 140.703125 15.828125 L 140.703125 24.417969 C 140.535156 24.757812 140.308594 25.035156 139.996094 25.25 C 139.617188 25.523438 139.09375 25.652344 138.421875 25.652344 C 138.164062 25.652344 137.921875 25.617188 137.707031 25.554688 C 137.492188 25.488281 137.308594 25.375 137.148438 25.214844 C 136.992188 25.054688 136.871094 24.855469 136.777344 24.613281 C 136.695312 24.367188 136.65625 24.058594 136.65625 23.699219 L 136.65625 16.941406 C 136.65625 16.417969 136.988281 16.117188 137.175781 16.027344 C 137.394531 15.921875 137.410156 15.832031 137.257812 15.832031 L 133.417969 15.832031 L 133.417969 23.6875 C 133.417969 24.492188 133.523438 25.1875 133.71875 25.761719 C 133.917969 26.328125 134.199219 26.796875 134.546875 27.164062 C 134.910156 27.519531 135.332031 27.785156 135.828125 27.960938 C 136.332031 28.128906 136.875 28.207031 137.46875 28.207031 C 138.238281 28.207031 138.914062 28.070312 139.476562 27.785156 C 140.011719 27.519531 140.449219 27.15625 140.808594 26.695312 L 140.898438 27.976562 L 143.9375 27.976562 L 143.9375 16.949219 C 143.9375 16.417969 144.265625 16.117188 144.453125 16.019531 C 144.679688 15.914062 144.691406 15.828125 144.542969 15.828125 Z M 144.542969 15.828125 "/>
</g>
</g>
</svg>
