<svg width="57" height="56" viewBox="0 0 57 56" fill="none" xmlns="http://www.w3.org/2000/svg">
<rect x="0.856445" width="56" height="56" rx="28" fill="#F1FAF3"/>
<g clip-path="url(#clip0_7137_21732)">
<path d="M28.857 14.3498C28.4384 14.3498 28.0986 14.0101 28.0986 13.5915V10.5581C28.0986 10.1395 28.4384 9.7998 28.857 9.7998C29.2756 9.7998 29.6153 10.1395 29.6153 10.5581V13.5915C29.6153 14.0101 29.2756 14.3498 28.857 14.3498Z" fill="#459F5E" stroke="#459F5E" stroke-width="0.589812"/>
<path d="M39.0446 18.5683C38.8505 18.5683 38.6563 18.494 38.5077 18.3469C38.212 18.0511 38.212 17.5703 38.5077 17.2746L40.6522 15.13C40.948 14.8343 41.4288 14.8343 41.7245 15.13C42.0203 15.4258 42.0203 15.9065 41.7245 16.2023L39.58 18.3469C39.4329 18.494 39.2387 18.5683 39.0446 18.5683Z" fill="#459F5E" stroke="#459F5E" stroke-width="0.589812"/>
<path d="M46.2977 28.7549H43.2644C42.8458 28.7549 42.5061 28.4152 42.5061 27.9966C42.5061 27.578 42.8458 27.2383 43.2644 27.2383H46.2977C46.7163 27.2383 47.0561 27.578 47.0561 27.9966C47.0561 28.4152 46.7163 28.7549 46.2977 28.7549Z" fill="#459F5E" stroke="#459F5E" stroke-width="0.589812"/>
<path d="M41.1891 41.0947C40.995 41.0947 40.8009 41.0204 40.6522 40.8732L38.5077 38.7287C38.212 38.4329 38.212 37.9521 38.5077 37.6564C38.8034 37.3606 39.2842 37.3606 39.58 37.6564L41.7245 39.801C42.0203 40.0967 42.0203 40.5775 41.7245 40.8732C41.5774 41.0204 41.3833 41.0947 41.1891 41.0947Z" fill="#459F5E" stroke="#459F5E" stroke-width="0.589812"/>
<path d="M28.857 46.2004C28.4384 46.2004 28.0986 45.8607 28.0986 45.4421V42.4087C28.0986 41.9901 28.4384 41.6504 28.857 41.6504C29.2756 41.6504 29.6153 41.9901 29.6153 42.4087V45.4421C29.6153 45.8607 29.2756 46.2004 28.857 46.2004Z" fill="#459F5E" stroke="#459F5E" stroke-width="0.589812"/>
<path d="M16.5226 41.0947C16.3285 41.0947 16.1344 41.0204 15.9857 40.8732C15.69 40.5775 15.69 40.0967 15.9857 39.801L18.1303 37.6564C18.426 37.3606 18.9068 37.3606 19.2025 37.6564C19.4983 37.9521 19.4983 38.4329 19.2025 38.7287L17.058 40.8732C16.9109 41.0204 16.7168 41.0947 16.5226 41.0947Z" fill="#459F5E" stroke="#459F5E" stroke-width="0.589812"/>
<path d="M14.4481 28.7549H11.4148C10.9962 28.7549 10.6565 28.4152 10.6565 27.9966C10.6565 27.578 10.9962 27.2383 11.4148 27.2383H14.4481C14.8667 27.2383 15.2065 27.578 15.2065 27.9966C15.2065 28.4152 14.8667 28.7549 14.4481 28.7549Z" fill="#459F5E" stroke="#459F5E" stroke-width="0.589812"/>
<path d="M18.6681 18.5683C18.474 18.5683 18.2798 18.494 18.1312 18.3469L15.9882 16.2023C15.6924 15.9065 15.6924 15.4258 15.9882 15.13C16.2839 14.8343 16.7647 14.8343 17.0604 15.13L19.205 17.2746C19.5007 17.5703 19.5007 18.0511 19.205 18.3469C19.0564 18.494 18.8622 18.5683 18.6681 18.5683Z" fill="#459F5E" stroke="#459F5E" stroke-width="0.589812"/>
<path d="M26.6919 40.1317C26.6024 40.1317 26.5144 40.1166 26.4265 40.0847C26.0943 39.9603 25.8926 39.6236 25.9396 39.2748L27.2333 29.5151H22.0312C21.7446 29.5151 21.4822 29.3528 21.3533 29.0965C21.2243 28.8401 21.2516 28.5323 21.4245 28.3017L30.5245 16.1684C30.7353 15.8863 31.1099 15.7862 31.4299 15.9257C31.7514 16.0637 31.938 16.402 31.8803 16.7478L30.5093 24.9651H35.6811C35.9601 24.9651 36.2165 25.1182 36.3484 25.3639C36.4803 25.6096 36.4667 25.9069 36.315 26.142L27.3258 39.792C27.1818 40.0089 26.9406 40.1317 26.6919 40.1317ZM23.5479 27.9984H28.0978C28.3177 27.9984 28.524 28.0939 28.6681 28.2577C28.8122 28.42 28.8789 28.6399 28.8501 28.8568L27.8779 36.1945L34.2736 26.4817H29.6145C29.3915 26.4817 29.1807 26.3847 29.0351 26.2133C28.891 26.0434 28.8288 25.8174 28.8668 25.599L29.8723 19.5657L23.5479 27.9984Z" fill="#459F5E"/>
</g>
<defs>
<clipPath id="clip0_7137_21732">
<rect width="56" height="56" fill="white" transform="translate(0.856445)"/>
</clipPath>
</defs>
</svg>
