<svg width="57" height="56" viewBox="0 0 57 56" fill="none" xmlns="http://www.w3.org/2000/svg">
<g clip-path="url(#clip0_10662_45300)">
<rect x="0.952148" width="56" height="56" rx="28" fill="#F1FAF3"/>
<g clip-path="url(#clip1_10662_45300)">
<path d="M29.5821 46.1895C29.1261 46.1895 28.6923 46.056 28.3253 45.8113L27.8804 45.4999C27.8804 45.4999 27.8248 45.4554 27.7914 45.422C27.2575 45.0216 25.5781 43.7537 23.4204 41.8963C20.017 38.9712 17.2587 36.1684 15.2233 33.5547C13.2547 31.0411 11.9645 28.7833 11.2749 26.6256C10.9302 25.6024 10.7522 24.5013 10.7522 23.3779C10.7522 17.4387 15.8684 12.6006 22.1525 12.6006C24.4659 12.6006 26.6347 13.2568 28.4254 14.5025C28.8369 14.7805 29.215 15.0919 29.5821 15.4256C29.938 15.0919 30.3273 14.7916 30.7277 14.5025C32.5517 13.2568 34.7205 12.6006 37.0228 12.6006C43.4181 12.6006 48.4231 17.1829 48.4231 23.0332C48.4231 24.6236 47.9448 26.3253 47.867 26.5366C47.1996 28.661 45.8427 31.0856 43.9408 33.5102C41.9945 35.9793 39.8701 38.1148 38.4131 39.4717C35.0097 42.6749 31.7843 45.1106 31.2949 45.4554L30.8834 45.7668C30.5163 46.0449 30.0492 46.2006 29.571 46.2006L29.5821 46.1895ZM28.9259 44.1764L29.2929 44.4322C29.4375 44.5323 29.7267 44.5434 29.8935 44.4099L30.3384 44.0763C30.8389 43.7203 33.9642 41.3625 37.3009 38.226C38.7134 36.9025 40.7821 34.8338 42.6507 32.4425C44.4302 30.1736 45.687 27.938 46.3099 25.9694C46.3766 25.7692 46.777 24.29 46.777 22.9998C46.777 18.0838 42.5061 14.2355 37.0451 14.2355C35.0876 14.2355 33.2302 14.7916 31.6953 15.8483C31.1503 16.2264 30.6498 16.6602 30.2049 17.1384C29.8935 17.4721 29.304 17.4832 28.9815 17.1384C28.5366 16.6602 28.0361 16.2264 27.4911 15.8483C25.9785 14.8028 24.1322 14.2467 22.1636 14.2467C16.7916 14.2467 12.4316 18.3285 12.4316 23.3557C12.4316 24.3011 12.5762 25.2242 12.8765 26.0917C13.4994 28.0604 14.7117 30.1625 16.558 32.5092C18.5266 35.034 21.2071 37.7589 24.5215 40.6173C26.7126 42.4969 28.3809 43.7648 28.848 44.0985C28.848 44.0985 28.9147 44.143 28.937 44.1764H28.9259Z" fill="#459F5E"/>
<path d="M40.6709 26.2584H34.4536C34.0643 26.2584 33.7307 26.5142 33.6306 26.8924L32.1736 32.2755L29.8824 22.9329C29.7934 22.577 29.4931 22.3212 29.1261 22.2878C28.7702 22.2322 28.4254 22.4546 28.2697 22.7994L25.845 28.316L24.566 26.6032C24.4103 26.3808 24.1545 26.2584 23.8875 26.2584H18.4821C18.0039 26.2584 17.6257 26.6366 17.6257 27.1148C17.6257 27.5931 18.0039 27.9712 18.4821 27.9712H23.4538L25.3557 30.5182C25.5447 30.7629 25.8339 30.8963 26.1453 30.863C26.4568 30.8296 26.7126 30.6405 26.8238 30.3514L28.8258 25.769L31.306 35.8902C31.395 36.2683 31.7287 36.5353 32.1291 36.5353H32.1513C32.5406 36.5353 32.8743 36.2795 32.9744 35.9013L35.1321 27.9712H40.7043C41.1825 27.9712 41.5607 27.5931 41.5607 27.1148C41.5385 26.6366 41.1714 26.2584 40.6932 26.2584H40.6709Z" fill="#459F5E"/>
</g>
</g>
<defs>
<clipPath id="clip0_10662_45300">
<rect x="0.952148" width="56" height="56" rx="28" fill="white"/>
</clipPath>
<clipPath id="clip1_10662_45300">
<rect width="56" height="56" fill="white" transform="translate(0.952148)"/>
</clipPath>
</defs>
</svg>
