<svg width="97" height="96" viewBox="0 0 97 96" fill="none" xmlns="http://www.w3.org/2000/svg">
<g clip-path="url(#clip0_1_23722)">
<path d="M48.5 24C45.5333 24 42.6332 24.8797 40.1665 26.528C37.6997 28.1762 35.7771 30.5189 34.6418 33.2597C33.5065 36.0006 33.2094 39.0166 33.7882 41.9264C34.367 44.8361 35.7956 47.5088 37.8934 49.6066C39.9912 51.7044 42.6639 53.133 45.5737 53.7118C48.4834 54.2906 51.4994 53.9935 54.2403 52.8582C56.9812 51.7229 59.3238 49.8003 60.9721 47.3336C62.6203 44.8668 63.5 41.9667 63.5 39C63.5 35.0218 61.9197 31.2064 59.1066 28.3934C56.2936 25.5804 52.4783 24 48.5 24Z" fill="#459F5E"/>
<path d="M48.5 6C40.1932 6 32.0729 8.46326 25.1661 13.0783C18.2592 17.6933 12.876 24.2528 9.69708 31.9273C6.5182 39.6018 5.68646 48.0466 7.30704 56.1938C8.92762 64.341 12.9277 71.8247 18.8015 77.6985C24.6753 83.5723 32.159 87.5724 40.3062 89.193C48.4534 90.8136 56.8982 89.9818 64.5727 86.8029C72.2472 83.6241 78.8067 78.2408 83.4217 71.3339C88.0368 64.4271 90.5 56.3068 90.5 48C90.4875 36.8648 86.0585 26.1892 78.1846 18.3154C70.3108 10.4416 59.6353 6.01255 48.5 6ZM72.4775 74.7774C72.4179 70.8421 70.8145 67.0879 68.0128 64.3237C65.2112 61.5595 61.4357 60.0067 57.5 60H39.5C35.5643 60.0067 31.7888 61.5595 28.9872 64.3237C26.1856 67.0879 24.5822 70.8421 24.5225 74.7774C19.0822 69.9196 15.2457 63.524 13.521 56.4374C11.7963 49.3508 12.2648 41.9074 14.8644 35.093C17.4641 28.2785 22.0722 22.4144 28.0786 18.2771C34.0851 14.1398 41.2065 11.9245 48.5 11.9245C55.7935 11.9245 62.9149 14.1398 68.9214 18.2771C74.9279 22.4144 79.536 28.2785 82.1356 35.093C84.7352 41.9074 85.2037 49.3508 83.479 56.4374C81.7543 63.524 77.9178 69.9196 72.4775 74.7774Z" fill="#459F5E"/>
</g>
<defs>
<clipPath id="clip0_1_23722">
<rect width="96" height="96" fill="white" transform="translate(0.5)"/>
</clipPath>
</defs>
</svg>
