<svg width="57" height="56" viewBox="0 0 57 56" fill="none" xmlns="http://www.w3.org/2000/svg">
<g clip-path="url(#clip0_7137_21829)">
<rect x="0.952148" width="56" height="56" rx="28" fill="#F1FAF3"/>
<path d="M38.1092 46.1998C38.1092 46.1998 38.0308 46.1998 37.9861 46.1998C36.6653 46.1662 35.3334 46.1774 34.0126 46.1774H32.4008H30.8115C29.4683 46.1774 28.1364 46.1774 26.7932 46.1886C26.4015 46.1886 25.8642 46.155 25.4837 45.7521C25.0471 45.3044 25.0807 44.6776 25.0919 44.4761C25.1255 43.8493 25.1143 43.2337 25.1143 42.6069C25.1143 42.1592 25.1143 41.7227 25.1143 41.275C25.1143 41.219 25.1143 41.1742 25.1143 41.1407C25.0807 41.1407 25.0359 41.1407 24.98 41.1407C23.5361 41.163 22.0922 41.1518 20.6484 41.1407H20.5028C18.0404 41.1183 16.4958 39.5737 16.4846 37.1001C16.4846 35.6114 16.4734 34.1116 16.4846 32.6229C16.4846 32.511 16.4846 32.4662 16.4734 32.4438C16.4734 32.4438 16.4175 32.4215 16.3279 32.3991C15.4325 32.1864 14.5483 31.929 13.664 31.6603C13.082 31.4925 12.444 31.2462 12.2201 30.6194C11.9963 29.9814 12.3656 29.3882 12.735 28.8733L13.8991 27.2392C14.6826 26.1535 15.4549 25.0678 16.216 23.9597C16.3503 23.7694 16.451 23.4784 16.4622 23.2545C16.8987 15.4196 22.7302 9.89033 30.6324 9.80079C35.3893 9.75602 39.0718 11.2335 41.9371 14.3451C44.6458 17.2776 45.9442 21.2175 45.5077 25.1573C45.0935 28.8957 43.1572 32.1193 40.0791 34.2347C39.8888 34.369 39.8217 34.4585 39.8217 34.7831C39.8217 36.0927 39.8217 37.3911 39.8217 38.7006C39.8217 40.5922 39.8217 42.4726 39.8441 44.3642C39.8441 44.7559 39.8105 45.338 39.3964 45.7409C39.027 46.1103 38.5345 46.1774 38.1204 46.1774L38.1092 46.1998ZM35.6244 44.4985C36.4303 44.4985 37.2361 44.4985 38.042 44.5209C38.0868 44.5209 38.1316 44.5209 38.1651 44.5209C38.1651 44.4873 38.1651 44.4537 38.1651 44.409C38.1428 42.5174 38.1428 40.6258 38.1428 38.723C38.1428 37.4246 38.1428 36.1151 38.1428 34.8167C38.1428 33.9549 38.445 33.3393 39.1277 32.8804C41.8028 31.0447 43.4818 28.2465 43.8399 25.0006C44.2205 21.542 43.09 18.0835 40.7059 15.5091C38.1763 12.7669 34.8745 11.4797 30.6548 11.5021C23.6704 11.5804 18.5217 16.4605 18.1412 23.3777C18.1076 23.9149 17.9173 24.4858 17.6039 24.9335C16.8428 26.0416 16.0593 27.1385 15.2758 28.2353L14.1117 29.8583C14.067 29.9143 14.0334 29.9702 13.9998 30.015C14.0446 30.0262 14.0893 30.0486 14.1453 30.0598C15.0072 30.3172 15.8578 30.5635 16.7309 30.7761C17.6934 31.0112 18.1971 31.6603 18.1747 32.6565C18.1523 34.134 18.1635 35.6226 18.1747 37.1001C18.1747 38.6335 18.9918 39.4617 20.5252 39.4617H20.6707C22.1034 39.4617 23.5361 39.4841 24.9688 39.4617C25.5284 39.4617 26.0097 39.6072 26.3343 39.9318C26.6589 40.2564 26.8156 40.7153 26.8044 41.2974C26.8044 41.7227 26.8044 42.1592 26.8044 42.5845C26.8044 43.2225 26.8156 43.8605 26.782 44.4985C28.1364 44.4761 29.4795 44.4761 30.8338 44.4873H32.412H34.0238C34.5611 44.4873 35.0983 44.4873 35.6356 44.4873L35.6244 44.4985Z" fill="#459F5E"/>
<path d="M34.9976 16.4821L31.9867 22.0897C31.8412 22.3583 31.83 22.6829 31.9532 22.9627C32.0763 23.2426 32.3337 23.444 32.6359 23.5224L35.3782 24.1492L30.0056 31.044L31.013 26.287C31.0689 26.0184 31.013 25.7274 30.8451 25.5035C30.6772 25.2797 30.4309 25.1341 30.1511 25.1006L27.2074 24.7648L29.1885 16.4709H34.9976M34.9976 14.792H29.1885C28.4162 14.792 27.7335 15.3292 27.5544 16.0792L25.5732 24.373C25.4613 24.8431 25.5509 25.3356 25.8307 25.7274C26.1105 26.1191 26.5358 26.3766 27.0171 26.4325L29.2109 26.6788L28.3603 30.697C28.2036 31.4581 28.5841 32.2416 29.3005 32.5662C29.5243 32.6669 29.7706 32.7229 30.0056 32.7229C30.5093 32.7229 31.0018 32.499 31.3264 32.0737L36.6989 25.1789C37.0459 24.7312 37.1466 24.1268 36.9564 23.5895C36.7661 23.0523 36.3072 22.6493 35.7475 22.515L33.8895 22.0897L36.4303 17.3551C36.587 17.0977 36.6765 16.8067 36.6765 16.4933C36.6765 15.5643 35.9266 14.8144 34.9976 14.8144V14.792Z" fill="#459F5E"/>
</g>
<defs>
<clipPath id="clip0_7137_21829">
<rect x="0.952148" width="56" height="56" rx="28" fill="white"/>
</clipPath>
</defs>
</svg>
