<svg width="57" height="56" viewBox="0 0 57 56" fill="none" xmlns="http://www.w3.org/2000/svg">
<rect x="0.952148" width="56" height="56" rx="28" fill="#F1FAF3"/>
<g clip-path="url(#clip0_7137_21714)">
<path d="M38.1088 46.1998C38.1088 46.1998 38.0304 46.1998 37.9969 46.1998C36.6649 46.1662 35.333 46.1662 34.0011 46.1774H32.4005H30.8112C29.468 46.1774 28.1361 46.1774 26.793 46.1886C26.3789 46.1886 25.864 46.155 25.4834 45.7521C25.0469 45.3044 25.0805 44.6776 25.0917 44.4761C25.1253 43.8493 25.1141 43.2338 25.1141 42.607C25.1141 42.1593 25.1141 41.7227 25.1141 41.275C25.1141 41.2191 25.1141 41.1743 25.1141 41.1407C25.0805 41.1407 25.0357 41.1407 24.9798 41.1407C23.4912 41.1631 21.9913 41.1519 20.5027 41.1407C18.0403 41.1295 16.4957 39.5738 16.4845 37.1002C16.4845 35.6116 16.4734 34.1118 16.4845 32.6231C16.4845 32.5112 16.4845 32.4664 16.4734 32.444C16.4734 32.444 16.4174 32.4217 16.3278 32.3993C15.4324 32.1866 14.5482 31.9292 13.664 31.6606C13.082 31.4927 12.444 31.2464 12.2201 30.6196C11.9963 29.9817 12.3656 29.3885 12.735 28.8736L13.8878 27.2619C14.6713 26.165 15.4548 25.0681 16.2159 23.96C16.3502 23.7586 16.451 23.4899 16.4622 23.2549C16.8987 15.42 22.7301 9.89087 30.6321 9.80132C35.4002 9.74536 39.0713 11.234 41.9367 14.3455C44.6453 17.278 45.9436 21.2178 45.5071 25.1576C45.093 28.896 43.1567 32.1195 40.0787 34.2349C39.8884 34.3692 39.8213 34.4587 39.8213 34.7833C39.8213 36.0928 39.8213 37.3912 39.8213 38.7007C39.8213 40.5923 39.8213 42.4727 39.8436 44.3642C39.8436 44.756 39.8101 45.338 39.3959 45.7409C39.0266 46.1103 38.5341 46.1774 38.12 46.1774L38.1088 46.1998ZM35.5904 44.4985C36.4075 44.4985 37.2246 44.4985 38.0416 44.5209C38.0864 44.5209 38.1312 44.5209 38.1647 44.5209C38.1647 44.4873 38.1647 44.4538 38.1647 44.409C38.1424 42.5174 38.1424 40.6259 38.1424 38.7231C38.1424 37.4248 38.1424 36.1152 38.1424 34.8169C38.1424 33.9551 38.4446 33.3395 39.1273 32.8806C41.8024 31.045 43.4813 28.2468 43.8394 25.0009C44.22 21.5424 43.0895 18.0839 40.7055 15.5096C38.1759 12.7674 34.8293 11.4355 30.6545 11.5026C23.6702 11.581 18.5216 16.4609 18.1411 23.378C18.1075 23.9153 17.9172 24.4861 17.6038 24.9338C16.8315 26.053 16.048 27.1611 15.2534 28.258L14.1117 29.8585C14.0669 29.9145 14.0334 29.9705 13.9998 30.0152C14.0445 30.0264 14.0893 30.0488 14.1453 30.06C15.0071 30.3174 15.8578 30.5637 16.7308 30.7763C17.6934 31.0114 18.1858 31.6606 18.1746 32.6567C18.1523 34.1341 18.1634 35.6228 18.1746 37.1002C18.1746 38.6336 18.9917 39.4618 20.5251 39.4618C22.0025 39.4618 23.4912 39.4842 24.9686 39.4618C25.5282 39.4394 26.0095 39.6073 26.3341 39.9319C26.6587 40.2565 26.8154 40.7154 26.8042 41.2974C26.8042 41.7227 26.8042 42.1593 26.8042 42.5846C26.8042 43.2226 26.8154 43.8605 26.7818 44.4985C28.1361 44.4761 29.4792 44.4761 30.8335 44.4873H32.4117H34.0011C34.5383 44.4873 35.0644 44.4873 35.6016 44.4873L35.5904 44.4985Z" fill="#459F5E"/>
<path d="M32.9713 29.5682C31.3708 29.5682 29.7031 29.1876 28.1249 28.4041C25.4163 27.061 23.368 24.1062 23.0434 21.0394C22.73 18.1741 23.8829 15.5326 26.2893 13.6075C30.3187 10.384 35.5121 9.98105 39.8212 12.5554C40.1906 12.7792 40.3137 13.2605 40.0899 13.6299C39.866 13.9992 39.3847 14.1223 39.0154 13.8985C35.277 11.6711 30.7664 12.0181 27.2631 14.8275C24.7447 16.8421 24.4201 19.2262 24.5992 20.8603C24.879 23.4122 26.5691 25.8858 28.8188 26.9939C32.6915 28.9078 36.0941 27.7774 37.8401 26.2328C39.3959 24.8561 39.922 23.0205 39.2728 21.2073C38.7691 19.7746 37.4148 18.5994 35.6576 18.051C33.8108 17.4689 31.9304 17.6928 30.6209 18.633C29.6247 19.3493 29.121 20.4238 29.2442 21.5878C29.3897 22.8974 30.2851 24.0278 31.6394 24.621C32.9154 25.1695 34.1242 24.7442 34.7062 24.1062C35.221 23.5465 35.2658 22.5952 34.7957 22.1139C34.5831 21.9012 34.2137 21.8117 33.8555 21.8788C33.7212 21.9124 33.3743 22.002 33.2623 22.3042C33.1056 22.7071 32.6467 22.9086 32.2438 22.7407C31.8409 22.584 31.6394 22.1251 31.8073 21.7221C32.0871 21.017 32.7363 20.5021 33.5421 20.3454C34.4152 20.1664 35.333 20.4238 35.915 21.017C36.9671 22.0915 36.9447 23.9831 35.8702 25.1695C34.8965 26.244 33.0161 26.9379 31.0238 26.0649C29.1434 25.2478 27.8898 23.6361 27.6884 21.7669C27.5093 20.0544 28.2592 18.4091 29.7031 17.3682C31.4043 16.137 33.8108 15.8348 36.1165 16.5623C38.3438 17.2563 40.0675 18.8009 40.739 20.6924C41.5897 23.11 40.8957 25.6172 38.8699 27.4192C37.2693 28.8407 35.1651 29.5794 32.9601 29.5794L32.9713 29.5682Z" fill="#459F5E"/>
</g>
<defs>
<clipPath id="clip0_7137_21714">
<rect width="56" height="56" fill="white" transform="translate(0.952148)"/>
</clipPath>
</defs>
</svg>
