<svg width="57" height="56" viewBox="0 0 57 56" fill="none" xmlns="http://www.w3.org/2000/svg">
<rect x="0.952148" width="56" height="56" rx="28" fill="#F1FAF3"/>
<g clip-path="url(#clip0_7137_21722)">
<path d="M28.9524 46.1998C18.9161 46.1998 10.7522 38.036 10.7522 27.9998C10.7522 17.9636 18.9161 9.7998 28.9524 9.7998C38.9887 9.7998 47.1526 17.9636 47.1526 27.9998C47.1526 38.036 38.9887 46.1998 28.9524 46.1998ZM28.9524 11.5326C19.8814 11.5326 12.4966 18.9172 12.4966 27.9882C12.4966 37.0591 19.8814 44.4438 28.9524 44.4438C38.0235 44.4438 45.4082 37.0591 45.4082 27.9882C45.4082 18.9172 38.0235 11.5326 28.9524 11.5326Z" fill="#459F5E"/>
<path d="M37.7799 37.382H21.0101C20.7426 37.382 20.4984 37.2657 20.3356 37.0564C20.1728 36.8587 20.103 36.5912 20.1611 36.3354C20.917 32.6023 24.8013 29.9043 29.395 29.9043C33.9886 29.9043 37.8729 32.6139 38.6288 36.3354C38.6753 36.5912 38.6172 36.8587 38.4544 37.0564C38.2916 37.2541 38.0357 37.382 37.7799 37.382ZM22.2079 35.6376H36.582C35.5237 33.3001 32.6396 31.6487 29.395 31.6487C26.1503 31.6487 23.2662 33.3001 22.2079 35.6376Z" fill="#459F5E"/>
<path d="M20.5097 26.0869C20.1143 26.0869 19.7538 25.8194 19.6607 25.4124C19.5561 24.9472 19.8468 24.4704 20.312 24.3657C21.5098 24.0866 22.6379 23.5284 23.5799 22.7493C23.952 22.4469 24.4986 22.4934 24.8126 22.8655C25.115 23.2377 25.0685 23.7843 24.6963 24.0983C23.545 25.0402 22.1727 25.7264 20.719 26.0636C20.6492 26.0753 20.5911 26.0869 20.5213 26.0869H20.5097Z" fill="#459F5E"/>
<path d="M37.3957 26.0878C37.3259 26.0878 37.2678 26.0878 37.198 26.0645C35.7443 25.7273 34.372 25.0412 33.2207 24.0992C32.8486 23.7968 32.7904 23.2386 33.1044 22.8665C33.4068 22.4943 33.965 22.4362 34.3372 22.7502C35.2791 23.5293 36.4188 24.0876 37.6051 24.3667C38.0702 24.4713 38.361 24.9481 38.2563 25.4133C38.1633 25.8203 37.8028 26.0878 37.4074 26.0878H37.3957Z" fill="#459F5E"/>
</g>
<defs>
<clipPath id="clip0_7137_21722">
<rect width="56" height="56" fill="white" transform="translate(0.952148)"/>
</clipPath>
</defs>
</svg>
