<svg width="57" height="56" viewBox="0 0 57 56" fill="none" xmlns="http://www.w3.org/2000/svg">
<g clip-path="url(#clip0_10662_45293)">
<rect x="0.952148" width="56" height="56" rx="28" fill="#F1FAF3"/>
<g clip-path="url(#clip1_10662_45293)">
<path d="M33.767 22.4959H29.1529C28.8416 22.4959 28.5747 22.696 28.4969 23.0074L27.474 26.7876L25.8285 20.061C25.7618 19.7719 25.5172 19.5606 25.2281 19.5384C24.9502 19.505 24.6611 19.6718 24.5388 19.9498L22.7821 23.9636L21.8926 22.7739C21.7703 22.596 21.5702 22.4959 21.3367 22.4959H17.3341C16.945 22.4959 16.6448 22.7961 16.6448 23.1853C16.6448 23.5744 16.945 23.8746 17.3341 23.8746H20.992L22.3818 25.7425C22.5375 25.9426 22.7821 26.0427 23.0156 26.0205C23.2713 25.9982 23.4714 25.8426 23.5715 25.6091L24.9946 22.3625L26.7958 29.7118C26.8625 30.012 27.1405 30.2344 27.474 30.2344C27.8076 30.2344 28.0522 30.0342 28.1411 29.7229L29.731 23.8857H33.8226C34.2117 23.8857 34.5119 23.5855 34.5119 23.1964C34.5008 22.8072 34.1895 22.507 33.8115 22.507L33.767 22.4959Z" fill="#459F5E"/>
<path d="M29.5755 44.778C29.1197 44.778 28.6861 44.6445 28.3192 44.3999L27.8744 44.0886C27.8744 44.0886 27.8077 44.033 27.7744 44.0108C27.2407 43.6105 25.5618 42.343 23.4049 40.4862C20.0026 37.5621 17.2453 34.7602 15.2218 32.1474C13.2538 29.6346 11.953 27.3776 11.2748 25.2206C10.9301 24.1977 10.7522 23.097 10.7522 21.974C10.7522 16.0367 15.8666 11.2002 22.1485 11.2002C24.4611 11.2002 26.6292 11.8562 28.4192 13.1015C28.8306 13.3794 29.2086 13.6907 29.5755 14.0243C29.9313 13.6907 30.3204 13.3905 30.7207 13.1015C32.5441 11.8562 34.7122 11.2002 37.0137 11.2002C43.4067 11.2002 48.41 15.781 48.41 21.6293C48.41 23.2193 47.9319 24.9204 47.854 25.1316L47.7651 25.3985C47.6095 25.8321 47.1425 26.0656 46.7089 25.9099C46.2752 25.7654 46.0418 25.2873 46.1974 24.8537L46.2752 24.6313C46.3531 24.4089 46.7533 22.9191 46.7533 21.6404C46.7533 16.7261 42.4839 12.8791 37.0248 12.8791C35.068 12.8791 33.2112 13.435 31.6769 14.4913C31.1321 14.8693 30.6318 15.3029 30.187 15.781C30.0314 15.9478 29.809 16.0478 29.5755 16.0478C29.342 16.0478 29.1197 15.9478 28.964 15.781C28.5193 15.3029 28.019 14.8693 27.4742 14.4913C25.9621 13.4461 24.1164 12.8902 22.1485 12.8902C16.7783 12.8902 12.4199 16.9707 12.4199 21.9962C12.4199 22.9413 12.5645 23.853 12.8647 24.7314C13.4873 26.6993 14.6992 28.8007 16.5448 31.1467C18.5128 33.6706 21.1923 36.3946 24.5056 39.2521C26.6959 41.1311 28.3636 42.3986 28.8306 42.7322C28.8306 42.7322 28.8973 42.7766 28.9195 42.81L29.2864 43.0657C29.431 43.1658 29.7201 43.1769 29.8868 43.0435L30.3316 42.7099C30.465 42.621 31.1432 42.1206 32.2439 41.2312C32.5997 40.9421 33.1223 40.9977 33.4113 41.3646C33.7004 41.7204 33.6448 42.2541 33.2779 42.532C32.2328 43.3659 31.4879 43.9218 31.2989 44.0553L30.8875 44.3666C30.5206 44.6445 30.0536 44.8002 29.5755 44.8002V44.778Z" fill="#459F5E"/>
<path d="M39.804 25.1768C35.2455 25.1768 31.532 28.8903 31.532 33.4489C31.532 38.0075 35.2455 41.721 39.804 41.721C44.3625 41.721 48.076 38.0075 48.076 33.4489C48.076 28.8903 44.3625 25.1768 39.804 25.1768ZM40.5712 40.1422V39.4529C40.5712 39.0304 40.2265 38.6857 39.804 38.6857C39.3815 38.6857 39.0368 39.0304 39.0368 39.4529V40.1422C35.9237 39.7864 33.4666 37.3292 33.1108 34.2161H33.8001C34.2226 34.2161 34.5673 33.8714 34.5673 33.4489C34.5673 33.0264 34.2226 32.6817 33.8001 32.6817H33.1108C33.4666 29.5686 35.9237 27.1114 39.0368 26.7556V27.4449C39.0368 27.8674 39.3815 28.2121 39.804 28.2121C40.2265 28.2121 40.5712 27.8674 40.5712 27.4449V26.7556C43.6843 27.1114 46.1415 29.5686 46.4972 32.6817H45.8079C45.3854 32.6817 45.0407 33.0264 45.0407 33.4489C45.0407 33.8714 45.3854 34.2161 45.8079 34.2161H46.4972C46.1415 37.3292 43.6843 39.7864 40.5712 40.1422Z" fill="#459F5E"/>
<path d="M44.1846 30.5887C44.0734 30.4219 43.9066 30.2996 43.7065 30.2663C43.5175 30.2218 43.3062 30.2663 43.1395 30.3663L40.4155 32.1342C39.9485 31.9118 39.3926 31.9007 38.9256 32.2009C38.2252 32.6567 38.025 33.6018 38.4809 34.3023C38.77 34.747 39.2592 34.9916 39.7595 34.9916C40.0486 34.9916 40.3265 34.9138 40.5822 34.747C40.9269 34.5246 41.1604 34.18 41.2382 33.7908C41.2605 33.6685 41.2382 33.5462 41.2382 33.4239L43.9622 31.6561C44.129 31.5449 44.2513 31.3781 44.2846 31.178C44.3291 30.9778 44.2846 30.7777 44.1623 30.5776L44.1846 30.5887Z" fill="#459F5E"/>
</g>
</g>
<defs>
<clipPath id="clip0_10662_45293">
<rect x="0.952148" width="56" height="56" rx="28" fill="white"/>
</clipPath>
<clipPath id="clip1_10662_45293">
<rect width="56" height="56" fill="white" transform="translate(0.952148)"/>
</clipPath>
</defs>
</svg>
