<svg width="57" height="56" viewBox="0 0 57 56" fill="none" xmlns="http://www.w3.org/2000/svg">
<rect x="0.952148" width="56" height="56" rx="28" fill="#F1FAF3"/>
<g clip-path="url(#clip0_7137_21749)">
<path d="M38.3358 20.9229C38.0134 20.5312 37.4346 20.4751 37.0432 20.7974C36.6516 21.1196 36.5954 21.6984 36.9177 22.0901C38.3633 23.8467 39.1596 26.0697 39.1596 28.3492C39.1596 33.7844 34.7379 38.2061 29.303 38.2061C23.868 38.2061 19.4463 33.7843 19.4463 28.3491C19.4463 22.9139 23.868 18.4921 29.303 18.4921C30.7893 18.4921 32.2171 18.8143 33.5471 19.4498C34.0041 19.6682 34.5528 19.4748 34.7715 19.0172C34.9902 18.5596 34.7965 18.0113 34.3389 17.7925C32.76 17.0379 31.0656 16.6553 29.3031 16.6553C22.8554 16.6553 17.6099 21.901 17.6099 28.349C17.6099 34.7969 22.8554 40.0427 29.3031 40.0427C35.7507 40.0427 40.9963 34.7969 40.9963 28.349C40.9963 25.6448 40.0514 23.0074 38.3358 20.9229Z" fill="#459F5E"/>
<path fill-rule="evenodd" clip-rule="evenodd" d="M37.1084 20.8766L37.1084 20.8766L37.1084 20.8766ZM37.1084 20.8766C37.456 20.5904 37.9702 20.6402 38.2566 20.9881L37.1084 20.8766ZM36.9969 22.0249C38.4577 23.7999 39.2622 26.0459 39.2622 28.3492C39.2622 33.8411 34.7946 38.3088 29.303 38.3088C23.8113 38.3088 19.3437 33.841 19.3437 28.3491C19.3437 22.8572 23.8113 18.3894 29.303 18.3894C30.8045 18.3894 32.2475 18.715 33.5913 19.3572C33.9973 19.5511 34.4846 19.3794 34.6789 18.9729C34.8731 18.5665 34.7011 18.0795 34.2947 17.8852C32.7296 17.1372 31.0504 16.7579 29.3031 16.7579C22.9121 16.7579 17.7125 21.9577 17.7125 28.349C17.7125 34.7402 22.9121 39.94 29.3031 39.94C35.6941 39.94 40.8936 34.7402 40.8936 28.349C40.8936 25.6685 39.957 23.0542 38.2566 20.9881M34.3389 17.7925C34.7965 18.0113 34.9902 18.5596 34.7715 19.0172C34.5528 19.4748 34.0041 19.6682 33.5471 19.4498C32.2171 18.8143 30.7893 18.4921 29.303 18.4921C23.868 18.4921 19.4463 22.9139 19.4463 28.3491C19.4463 33.7843 23.868 38.2061 29.303 38.2061C34.7379 38.2061 39.1596 33.7844 39.1596 28.3492C39.1596 26.0697 38.3633 23.8467 36.9177 22.0901C36.5954 21.6984 36.6516 21.1196 37.0432 20.7974C37.4346 20.4751 38.0135 20.5312 38.3358 20.9229C40.0514 23.0074 40.9963 25.6448 40.9963 28.349C40.9963 34.7969 35.7507 40.0427 29.3031 40.0427C22.8554 40.0427 17.6099 34.7969 17.6099 28.349C17.6099 21.901 22.8554 16.6553 29.3031 16.6553C31.0656 16.6553 32.76 17.0379 34.3389 17.7925Z" fill="#459F5E"/>
<path d="M29.3021 9.7998C28.7949 9.7998 28.3838 10.211 28.3838 10.7182V13.6569C28.3838 14.1641 28.7949 14.5753 29.3021 14.5753C29.8094 14.5753 30.2205 14.1641 30.2205 13.6569V10.7182C30.2204 10.211 29.8094 9.7998 29.3021 9.7998Z" fill="#459F5E"/>
<path fill-rule="evenodd" clip-rule="evenodd" d="M29.3021 9.90246C28.8516 9.90246 28.4864 10.2677 28.4864 10.7182V13.6569C28.4864 14.1074 28.8516 14.4727 29.3021 14.4727C29.7527 14.4727 30.1178 14.1074 30.1178 13.6569V10.7182C30.1178 10.7182 30.1178 10.7182 30.1178 10.7182C30.1177 10.2677 29.7527 9.90246 29.3021 9.90246ZM30.2205 10.7182V13.6569C30.2205 14.1641 29.8094 14.5753 29.3021 14.5753C28.7949 14.5753 28.3838 14.1641 28.3838 13.6569V10.7182C28.3838 10.211 28.7949 9.7998 29.3021 9.7998C29.8094 9.7998 30.2204 10.211 30.2205 10.7182Z" fill="#459F5E"/>
<path d="M22.7505 15.1635L21.2813 12.6184C21.0278 12.1792 20.4658 12.0288 20.0269 12.2824C19.5877 12.536 19.4372 13.0976 19.6908 13.5368L21.1601 16.0819C21.3302 16.3765 21.639 16.5412 21.9562 16.5412C22.6525 16.5412 23.0967 15.7631 22.7505 15.1635Z" fill="#459F5E"/>
<path fill-rule="evenodd" clip-rule="evenodd" d="M22.6616 15.2149L21.1924 12.6698C20.9673 12.2797 20.4681 12.146 20.0782 12.3713C19.6881 12.5965 19.5545 13.0954 19.7797 13.4855L21.2489 16.0306C21.2489 16.0306 21.249 16.0306 21.2489 16.0306C21.4 16.2921 21.6741 16.4385 21.9562 16.4385C22.5729 16.4385 22.9686 15.7465 22.6616 15.2149ZM21.1601 16.0819L19.6908 13.5368C19.4372 13.0976 19.5877 12.536 20.0269 12.2824C20.4658 12.0288 21.0278 12.1792 21.2813 12.6184L22.7505 15.1635C23.0967 15.7631 22.6525 16.5412 21.9562 16.5412C21.639 16.5412 21.3302 16.3765 21.1601 16.0819Z" fill="#459F5E"/>
<path d="M17.0371 20.2049L14.4921 18.7356C14.0527 18.4818 13.4911 18.6324 13.2377 19.0716C12.9841 19.5108 13.1346 20.0725 13.5737 20.3261L16.1187 21.7954C16.5873 22.0658 17.2028 21.8621 17.4195 21.3678C17.6047 20.945 17.4365 20.4353 17.0371 20.2049Z" fill="#459F5E"/>
<path fill-rule="evenodd" clip-rule="evenodd" d="M16.9857 20.2938L16.9856 20.2938L14.4406 18.8245C14.0503 18.5991 13.5516 18.7329 13.3265 19.1229L13.3265 19.123C13.1012 19.5131 13.2349 20.012 13.6249 20.2372L13.6249 20.2372L13.5736 20.3261M16.1186 21.7954C16.5871 22.0658 17.2027 21.8621 17.4193 21.3678C17.6046 20.945 17.4363 20.4353 17.037 20.2049L14.492 18.7356C14.0525 18.4818 13.491 18.6324 13.2376 19.0716M16.9857 20.2938C17.3398 20.4982 17.4895 20.9518 17.3253 21.3266L16.9857 20.2938ZM16.1699 21.7065L13.6249 20.2372L16.1699 21.7065ZM17.3253 21.3266C17.1331 21.7651 16.5853 21.9462 16.1699 21.7065L17.3253 21.3266Z" fill="#459F5E"/>
<path d="M14.6092 27.4365H11.6706C11.1633 27.4365 10.7522 27.8478 10.7522 28.3549C10.7522 28.8621 11.1633 29.2733 11.6706 29.2733H14.6092C15.1163 29.2733 15.5275 28.8621 15.5275 28.3549C15.5275 27.8478 15.1164 27.4365 14.6092 27.4365Z" fill="#459F5E"/>
<path fill-rule="evenodd" clip-rule="evenodd" d="M14.6092 27.5392H11.6706C11.22 27.5392 10.8549 27.9044 10.8549 28.3549C10.8549 28.8054 11.22 29.1707 11.6706 29.1707H14.6092C15.0596 29.1707 15.4249 28.8054 15.4249 28.3549C15.4249 27.9044 15.0597 27.5392 14.6092 27.5392ZM11.6706 27.4365H14.6092C15.1164 27.4365 15.5275 27.8478 15.5275 28.3549C15.5275 28.8621 15.1163 29.2733 14.6092 29.2733H11.6706C11.1633 29.2733 10.7522 28.8621 10.7522 28.3549C10.7522 27.8478 11.1633 27.4365 11.6706 27.4365Z" fill="#459F5E"/>
<path d="M17.3725 35.2358C17.1191 34.7965 16.5572 34.6459 16.1181 34.8996L13.5731 36.3689C13.1736 36.5996 13.0053 37.1091 13.1907 37.5321C13.4073 38.0263 14.0229 38.2303 14.4915 37.9597L17.0365 36.4904C17.4757 36.2367 17.6261 35.675 17.3725 35.2358Z" fill="#459F5E"/>
<path fill-rule="evenodd" clip-rule="evenodd" d="M17.2836 35.2871L17.2836 35.2871C17.0585 34.8969 16.5594 34.7632 16.1695 34.9885L16.1694 34.9885L13.6244 36.4578C13.6244 36.4578 13.6244 36.4578 13.6244 36.4578C13.2701 36.6625 13.1204 37.116 13.2847 37.4909L13.2848 37.4909C13.4768 37.9293 14.0248 38.1106 14.4401 37.8708L14.4401 37.8708L16.9851 36.4015C16.9851 36.4015 16.9851 36.4015 16.9851 36.4015C17.3752 36.1761 17.5088 35.6772 17.2836 35.2871ZM17.0365 36.4904L14.4915 37.9597C14.0229 38.2303 13.4073 38.0263 13.1907 37.5321C13.0053 37.1091 13.1736 36.5996 13.5731 36.3689L16.1181 34.8996C16.5572 34.6459 17.1191 34.7965 17.3725 35.2358C17.6261 35.675 17.4757 36.2367 17.0365 36.4904Z" fill="#459F5E"/>
<path d="M22.4144 40.2815C21.975 40.0277 21.4134 40.1783 21.16 40.6175L19.6907 43.1626C19.46 43.5621 19.5692 44.0876 19.9411 44.3611C20.3768 44.6814 21.0115 44.5486 21.2813 44.081L22.7506 41.5359C23.004 41.0966 22.8535 40.535 22.4144 40.2815Z" fill="#459F5E"/>
<path fill-rule="evenodd" clip-rule="evenodd" d="M21.2813 44.081L22.7506 41.5359C23.004 41.0966 22.8535 40.535 22.4144 40.2815C21.975 40.0277 21.4134 40.1783 21.16 40.6175L19.6907 43.1626C19.46 43.5621 19.5692 44.0876 19.9411 44.3611C20.3768 44.6814 21.0115 44.5486 21.2813 44.081ZM22.6617 41.4846C22.6617 41.4846 22.6617 41.4846 22.6617 41.4846C22.8868 41.0943 22.753 40.5956 22.3631 40.3704" fill="#459F5E"/>
<path d="M29.3026 42.125C28.7954 42.125 28.3843 42.5362 28.3843 43.0434V45.9821C28.3843 46.4893 28.7954 46.9005 29.3026 46.9005C29.8099 46.9005 30.221 46.4893 30.221 45.9821V43.0434C30.2209 42.5361 29.8098 42.125 29.3026 42.125Z" fill="#459F5E"/>
<path fill-rule="evenodd" clip-rule="evenodd" d="M29.3026 42.2277C28.8521 42.2277 28.4869 42.5929 28.4869 43.0434V45.9821C28.4869 46.4326 28.8521 46.7979 29.3026 46.7979C29.7532 46.7979 30.1183 46.4326 30.1183 45.9821V43.0434C30.1183 43.0434 30.1183 43.0434 30.1183 43.0434C30.1182 42.5928 29.7531 42.2277 29.3026 42.2277ZM30.221 43.0434V45.9821C30.221 46.4893 29.8099 46.9005 29.3026 46.9005C28.7954 46.9005 28.3843 46.4893 28.3843 45.9821V43.0434C28.3843 42.5362 28.7954 42.125 29.3026 42.125C29.8098 42.125 30.2209 42.5361 30.221 43.0434Z" fill="#459F5E"/>
<path d="M38.9139 43.1626L37.4444 40.6175C37.1908 40.1782 36.6289 40.0278 36.19 40.2814C35.7508 40.535 35.6003 41.0967 35.8539 41.5359L37.3231 44.081C37.593 44.5486 38.2277 44.6815 38.6633 44.3611C39.0355 44.0876 39.1445 43.5622 38.9139 43.1626Z" fill="#459F5E"/>
<path fill-rule="evenodd" clip-rule="evenodd" d="M37.3555 40.6688C37.1303 40.2786 36.6312 40.1451 36.2413 40.3703C35.8512 40.5955 35.7176 41.0944 35.9428 41.4846L37.412 44.0297C37.6512 44.4442 38.2161 44.5626 38.6025 44.2784C38.9323 44.036 39.0295 43.5684 38.825 43.2139C38.825 43.2139 38.825 43.2139 38.825 43.2139L37.3555 40.6688ZM38.9139 43.1626L37.4444 40.6175C37.1908 40.1782 36.6289 40.0278 36.19 40.2814C35.7508 40.535 35.6003 41.0967 35.8539 41.5359L37.3231 44.081C37.593 44.5486 38.2277 44.6815 38.6633 44.3611C39.0355 44.0876 39.1445 43.5622 38.9139 43.1626Z" fill="#459F5E"/>
<path d="M45.0312 36.3689L42.4862 34.8996C42.0468 34.6459 41.4853 34.7965 41.2318 35.2357C40.9783 35.6749 41.1287 36.2366 41.5679 36.4901L44.1129 37.9595C44.2576 38.0429 44.4155 38.0826 44.5713 38.0826C44.9989 38.0826 45.3794 37.7761 45.4697 37.3581C45.5533 36.9726 45.3729 36.566 45.0312 36.3689Z" fill="#459F5E"/>
<path fill-rule="evenodd" clip-rule="evenodd" d="M44.9798 36.4578L44.9798 36.4578L42.4348 34.9885C42.0444 34.7632 41.5457 34.8969 41.3206 35.287L41.3206 35.287C41.0954 35.6771 41.229 36.176 41.6191 36.4012L41.6191 36.4012L41.5678 36.4902M44.1127 37.9595C44.2574 38.0429 44.4153 38.0826 44.5711 38.0826C44.9987 38.0826 45.3793 37.7761 45.4696 37.3581C45.5531 36.9726 45.3728 36.566 45.0311 36.3689L42.4861 34.8996C42.0467 34.6459 41.4851 34.7965 41.2317 35.2357M44.164 37.8705L41.6191 36.4012L44.164 37.8705ZM44.1641 37.8706C44.2928 37.9448 44.4329 37.98 44.5711 37.98C44.9505 37.98 45.2891 37.7071 45.3692 37.3364L45.3692 37.3363C45.4434 36.9946 45.2829 36.6327 44.9798 36.4578" fill="#459F5E"/>
<path d="M46.9336 27.4365H43.995C43.4877 27.4365 43.0767 27.8478 43.0767 28.3549C43.0767 28.8621 43.4877 29.2733 43.995 29.2733H46.9336C47.4409 29.2733 47.852 28.8621 47.852 28.3549C47.8519 27.8478 47.4409 27.4365 46.9336 27.4365Z" fill="#459F5E"/>
<path fill-rule="evenodd" clip-rule="evenodd" d="M46.9336 27.5392H43.995C43.5445 27.5392 43.1793 27.9044 43.1793 28.3549C43.1793 28.8054 43.5445 29.1707 43.995 29.1707H46.9336C47.3842 29.1707 47.7493 28.8054 47.7493 28.3549M46.9336 27.5392C47.3841 27.5392 47.7492 27.9044 47.7493 28.3549L46.9336 27.5392ZM43.995 27.4365H46.9336C47.4409 27.4365 47.8519 27.8478 47.852 28.3549C47.852 28.8621 47.4409 29.2733 46.9336 29.2733H43.995C43.4877 29.2733 43.0767 28.8621 43.0767 28.3549C43.0767 27.8478 43.4877 27.4365 43.995 27.4365Z" fill="#459F5E"/>
<path d="M45.3669 19.0718C45.1132 18.6323 44.5514 18.4819 44.1125 18.7356L41.5675 20.2049C41.168 20.4356 40.9997 20.9451 41.1851 21.3681C41.4017 21.8623 42.0173 22.0662 42.4858 21.7957L45.0308 20.3264C45.4699 20.0727 45.6205 19.5111 45.3669 19.0718Z" fill="#459F5E"/>
<path fill-rule="evenodd" clip-rule="evenodd" d="M42.4858 21.7957L45.0308 20.3264C45.4699 20.0727 45.6205 19.5111 45.3669 19.0718C45.1132 18.6323 44.5514 18.4819 44.1125 18.7356L41.5675 20.2049C41.168 20.4356 40.9997 20.9451 41.1851 21.3681C41.4017 21.8623 42.0173 22.0662 42.4858 21.7957ZM44.1638 18.8245L41.6188 20.2938L44.1638 18.8245ZM41.6188 20.2938C41.2645 20.4984 41.1148 20.952 41.2791 21.3268C41.4712 21.7653 42.0192 21.9466 42.4345 21.7068L44.9795 20.2375C44.9795 20.2375 44.9795 20.2375 44.9795 20.2375C45.3695 20.0121 45.5032 19.5133 45.278 19.1231" fill="#459F5E"/>
<path d="M38.5767 12.2824C38.1373 12.0287 37.5757 12.1793 37.3223 12.6185L35.8531 15.1636C35.5069 15.763 35.9509 16.5412 36.6475 16.5412C36.9649 16.5412 37.2735 16.3764 37.4436 16.082L38.9129 13.5369C39.1663 13.0977 39.0159 12.536 38.5767 12.2824Z" fill="#459F5E"/>
<path fill-rule="evenodd" clip-rule="evenodd" d="M37.4112 12.6698L35.942 15.2149C35.635 15.7464 36.0305 16.4386 36.6475 16.4386C36.9297 16.4386 37.2037 16.292 37.3547 16.0307M37.3547 16.0307L38.824 13.4856C38.824 13.4856 38.824 13.4856 38.824 13.4856C39.0491 13.0955 38.9155 12.5966 38.5254 12.3713C38.135 12.146 37.6363 12.2797 37.4112 12.6698M38.9129 13.5369L37.4436 16.082C37.2735 16.3764 36.9649 16.5412 36.6475 16.5412C35.9509 16.5412 35.5069 15.763 35.8531 15.1636L37.3223 12.6185C37.5757 12.1793 38.1373 12.0287 38.5767 12.2824C39.0159 12.536 39.1663 13.0977 38.9129 13.5369Z" fill="#459F5E"/>
<path d="M33.2201 25.9622H31.6896V24.4316C31.6896 23.1151 30.6185 22.0439 29.302 22.0439C27.9855 22.0439 26.9144 23.1151 26.9144 24.4316V25.9622H25.3839C24.0674 25.9622 22.9963 27.0333 22.9963 28.3499C22.9963 29.6664 24.0674 30.7376 25.3839 30.7376H26.9144V32.2681C26.9144 33.5846 27.9855 34.6558 29.302 34.6558C30.6185 34.6558 31.6896 33.5846 31.6896 32.2681V30.7376H33.2201C34.5365 30.7376 35.6077 29.6664 35.6077 28.3499C35.6078 27.0333 34.5365 25.9622 33.2201 25.9622ZM33.2201 28.9009H30.7712C30.264 28.9009 29.8529 29.3121 29.8529 29.8193V32.2682C29.8529 32.572 29.6057 32.8193 29.3019 32.8193C28.9981 32.8193 28.7509 32.572 28.7509 32.2682V29.8193C28.7509 29.3121 28.3398 28.9009 27.8325 28.9009H25.3837C25.0799 28.9009 24.8327 28.6537 24.8327 28.3499C24.8327 28.0461 25.0799 27.7988 25.3837 27.7988H27.8325C28.3398 27.7988 28.7509 27.3876 28.7509 26.8804V24.4315C28.7509 24.1277 28.9981 23.8805 29.3019 23.8805C29.6057 23.8805 29.8529 24.1277 29.8529 24.4315V26.8804C29.8529 27.3876 30.264 27.7988 30.7712 27.7988H33.2201C33.5239 27.7988 33.7711 28.0461 33.7711 28.3499C33.7711 28.6537 33.5239 28.9009 33.2201 28.9009Z" fill="#459F5E"/>
<path fill-rule="evenodd" clip-rule="evenodd" d="M31.5869 26.0648V24.4316C31.5869 23.1718 30.5618 22.1466 29.302 22.1466C28.0422 22.1466 27.0171 23.1718 27.0171 24.4316V26.0648H25.3839C24.1241 26.0648 23.099 27.09 23.099 28.3499C23.099 29.6097 24.1241 30.6349 25.3839 30.6349H27.0171V32.2681C27.0171 33.5279 28.0422 34.5531 29.302 34.5531C30.5618 34.5531 31.5869 33.5279 31.5869 32.2681V30.6349H33.2201C34.4799 30.6349 35.505 29.6097 35.505 28.3499C35.5051 27.09 34.4799 26.0648 33.2201 26.0648H31.5869ZM33.2201 29.0036H30.7712C30.3207 29.0036 29.9555 29.3688 29.9555 29.8193V32.2682C29.9555 32.6287 29.6624 32.9219 29.3019 32.9219C28.9414 32.9219 28.6482 32.6287 28.6482 32.2682V29.8193C28.6482 29.3688 28.2831 29.0036 27.8325 29.0036H25.3837C25.0232 29.0036 24.73 28.7104 24.73 28.3499C24.73 27.9894 25.0232 27.6962 25.3837 27.6962H27.8325C28.2831 27.6962 28.6482 27.3309 28.6482 26.8804V24.4315C28.6482 24.071 28.9414 23.7778 29.3019 23.7778C29.6624 23.7778 29.9555 24.071 29.9555 24.4315V26.8804C29.9555 27.3309 30.3207 27.6962 30.7712 27.6962H33.2201C33.5805 27.6962 33.8737 27.9894 33.8737 28.3499C33.8737 28.7104 33.5805 29.0036 33.2201 29.0036ZM33.2201 25.9622C34.5365 25.9622 35.6078 27.0333 35.6077 28.3499C35.6077 29.6664 34.5365 30.7376 33.2201 30.7376H31.6896V32.2681C31.6896 33.5846 30.6185 34.6558 29.302 34.6558C27.9855 34.6558 26.9144 33.5846 26.9144 32.2681V30.7376H25.3839C24.0674 30.7376 22.9963 29.6664 22.9963 28.3499C22.9963 27.0333 24.0674 25.9622 25.3839 25.9622H26.9144V24.4316C26.9144 23.1151 27.9855 22.0439 29.302 22.0439C30.6185 22.0439 31.6896 23.1151 31.6896 24.4316V25.9622H33.2201ZM30.7712 28.9009H33.2201C33.5239 28.9009 33.7711 28.6537 33.7711 28.3499C33.7711 28.0461 33.5239 27.7988 33.2201 27.7988H30.7712C30.264 27.7988 29.8529 27.3876 29.8529 26.8804V24.4315C29.8529 24.1277 29.6057 23.8805 29.3019 23.8805C28.9981 23.8805 28.7509 24.1277 28.7509 24.4315V26.8804C28.7509 27.3876 28.3398 27.7988 27.8325 27.7988H25.3837C25.0799 27.7988 24.8327 28.0461 24.8327 28.3499C24.8327 28.6537 25.0799 28.9009 25.3837 28.9009H27.8325C28.3398 28.9009 28.7509 29.3121 28.7509 29.8193V32.2682C28.7509 32.572 28.9981 32.8193 29.3019 32.8193C29.6057 32.8193 29.8529 32.572 29.8529 32.2682V29.8193C29.8529 29.3121 30.264 28.9009 30.7712 28.9009Z" fill="#459F5E"/>
</g>
<defs>
<clipPath id="clip0_7137_21749">
<rect width="56" height="56" fill="white" transform="translate(0.952148)"/>
</clipPath>
</defs>
</svg>
