<svg width="57" height="56" viewBox="0 0 57 56" fill="none" xmlns="http://www.w3.org/2000/svg">
<rect x="0.952148" width="56" height="56" rx="28" fill="#F1FAF3"/>
<g clip-path="url(#clip0_7137_21837)">
<path d="M28.9525 46.1998C18.9161 46.1998 10.7522 38.036 10.7522 27.9998C10.7522 17.9636 18.9161 9.7998 28.9525 9.7998C38.9888 9.7998 47.1527 17.9636 47.1527 27.9998C47.1527 38.036 38.9888 46.1998 28.9525 46.1998ZM28.9525 11.5326C19.8814 11.5326 12.4966 18.9172 12.4966 27.9882C12.4966 37.0591 19.8814 44.4438 28.9525 44.4438C38.0235 44.4438 45.4083 37.0591 45.4083 27.9882C45.4083 18.9172 38.0235 11.5326 28.9525 11.5326Z" fill="#459F5E"/>
<path d="M29.3944 38.548C24.8007 38.548 20.9164 35.8384 20.1605 32.117C20.114 31.8611 20.1722 31.5936 20.335 31.3959C20.4978 31.1982 20.7536 31.0703 21.0095 31.0703H37.7793C38.0468 31.0703 38.291 31.1866 38.4538 31.3959C38.6166 31.5936 38.6864 31.8611 38.6283 32.117C37.8723 35.85 33.9881 38.548 29.3944 38.548ZM22.2073 32.8147C23.2772 35.1522 26.1497 36.8036 29.3944 36.8036C32.639 36.8036 35.5115 35.1522 36.5815 32.8147H22.2073Z" fill="#459F5E"/>
<path d="M22.1955 25.1386C21.3931 25.1386 20.7302 24.4874 20.7302 23.6733C20.7302 22.8593 21.3815 22.208 22.1955 22.208C23.0096 22.208 23.6609 22.8593 23.6609 23.6733C23.6609 24.4874 23.0096 25.1386 22.1955 25.1386Z" fill="#459F5E"/>
<path d="M36.1279 25.1386C35.3255 25.1386 34.6626 24.4874 34.6626 23.6733C34.6626 22.8593 35.3139 22.208 36.1279 22.208C36.942 22.208 37.5932 22.8593 37.5932 23.6733C37.5932 24.4874 36.942 25.1386 36.1279 25.1386Z" fill="#459F5E"/>
</g>
<defs>
<clipPath id="clip0_7137_21837">
<rect width="56" height="56" fill="white" transform="translate(0.952148)"/>
</clipPath>
</defs>
</svg>
