<svg width="57" height="56" viewBox="0 0 57 56" fill="none" xmlns="http://www.w3.org/2000/svg">
<rect x="0.952148" width="56" height="56" rx="28" fill="#F1FAF3"/>
<g clip-path="url(#clip0_7137_21870)">
<path d="M46.5925 23.6084C44.4557 20.5771 42.3189 17.5445 40.1819 14.5126C39.9916 14.2127 39.6463 14 39.2917 14H18.7973C18.4795 14 18.239 14.1188 18.0738 14.2982C18.0683 14.3039 18.0628 14.3095 18.0572 14.3154C18.0552 14.3179 18.0531 14.3202 18.0509 14.3227C18.001 14.3767 17.9539 14.4375 17.9112 14.5068C16.0388 17.5405 14.1671 20.5751 12.2947 23.6084C12.0528 24.0008 12.138 24.465 12.4049 24.7806C12.4208 24.8041 12.4374 24.8273 12.4551 24.8498C17.7557 31.6136 23.0557 38.3793 28.3558 45.1429C28.5876 45.4389 28.87 45.5321 29.1372 45.4907C29.369 45.491 29.6059 45.3896 29.8075 45.1429C35.3486 38.3793 40.8905 31.6136 46.4317 24.8498C46.4603 24.8149 46.486 24.7787 46.5098 24.7417C46.7666 24.4248 46.8532 23.9785 46.5925 23.6084ZM43.652 22.7787H37.4553C38.1632 20.8853 38.871 18.9917 39.5789 17.0984C40.9366 18.9916 42.2941 20.8852 43.652 22.7787ZM29.2633 16.582C30.789 18.8193 32.3147 21.0573 33.8405 23.2951H24.5455C26.1179 21.0573 27.6903 18.8196 29.2633 16.582ZM34.3569 25.3607C32.5375 30.1801 30.718 34.9995 28.899 39.8197C27.1299 34.9845 25.3542 30.1618 23.5127 25.3607H34.3569ZM35.6314 22.2623C34.1737 20.1969 32.7161 18.1313 31.2586 16.0656H37.9717C37.1917 18.1311 36.4114 20.1968 35.6314 22.2623ZM22.7939 22.2623C22.0157 20.1921 21.2239 18.1265 20.4144 16.0656H27.1274C25.683 18.1309 24.2384 20.1966 22.7939 22.2623ZM18.7425 17.0984C19.4861 18.9878 20.2142 20.8814 20.9307 22.7787H15.2504C16.4146 20.8852 17.5787 18.9917 18.7425 17.0984ZM21.6237 25.3607C23.5083 30.3326 25.3217 35.328 27.1274 40.3361C23.1681 35.3443 19.2091 30.3525 15.2504 25.3607H21.6237ZM36.3011 25.3607H43.1356C39.0041 30.3527 34.8731 35.3444 30.7422 40.3361C32.5949 35.3442 34.4481 30.3525 36.3011 25.3607Z" fill="#459F5E" stroke="#F1FAF3" stroke-width="0.524999"/>
</g>
<defs>
<clipPath id="clip0_7137_21870">
<rect width="56" height="56" fill="white" transform="translate(0.952148)"/>
</clipPath>
</defs>
</svg>
