<svg width="57" height="56" viewBox="0 0 57 56" fill="none" xmlns="http://www.w3.org/2000/svg">
<circle cx="28.9521" cy="28" r="28" fill="#F1FAF3"/>
<path d="M7.9556 26.1953L8.01369 26.19C7.97262 25.7411 8.33348 25.3347 8.8425 25.2817C10.2756 25.165 11.7177 25.1689 13.15 25.2935L13.2207 25.2997L13.2131 25.2291C12.9742 23.022 13.1016 20.795 13.5911 18.6219C13.7067 18.1812 14.1925 17.8953 14.6952 17.9881C17.7829 18.6436 20.6994 19.8371 23.2818 21.5017L23.3395 21.5388L23.3669 21.4759C24.5157 18.8415 26.1824 16.4166 28.2865 14.3185L28.2873 14.3178C28.4552 14.1443 28.703 14.0483 28.9607 14.0592L28.9631 14.0592C29.2168 14.0595 29.4587 14.1519 29.6348 14.3141C31.757 16.3941 33.4438 18.805 34.6135 21.4294L34.6411 21.4913L34.6983 21.4548C37.2628 19.8142 40.1532 18.6359 43.2112 17.9844C43.7146 17.8918 44.2006 18.1787 44.3152 18.6201C44.8067 20.7951 44.9352 23.0243 44.6963 25.2336L44.6886 25.3044L44.7595 25.298C46.1901 25.1694 47.6309 25.1631 49.0628 25.279C49.5711 25.3324 49.9313 25.7381 49.8907 26.1864L49.8906 26.1872C49.8734 26.3573 49.6729 28.3363 48.7582 30.8097C47.8407 33.2906 46.2063 36.2647 43.3217 38.4115C39.1744 41.4863 33.5909 41.9308 30.7173 41.9308C30.0498 41.9308 29.5528 41.9074 29.2323 41.8876L29.2213 41.8869L29.2108 41.8903C29.1287 41.9168 29.0428 41.9326 28.9556 41.9371C28.8766 41.9318 28.7986 41.9175 28.7237 41.8946L28.7134 41.8914L28.7027 41.8921C28.3494 41.9155 27.8066 41.9417 27.1092 41.9417C24.193 41.9417 18.7151 41.4801 14.5796 38.4088C11.6931 36.2646 10.0587 33.2917 9.14209 30.8115C8.2256 28.3316 8.02839 26.3486 8.01368 26.1899L7.9556 26.1953ZM7.9556 26.1953C7.91113 25.7092 8.30142 25.2791 8.83715 25.2236M7.9556 26.1953L8.83715 25.2236M8.83715 25.2236C10.254 25.1082 11.6795 25.1104 13.0959 25.2303C13.0963 25.2341 13.0967 25.2379 13.0971 25.2417L13.1551 25.2354L13.1601 25.1773C13.1563 25.1769 13.1526 25.1766 13.1488 25.1763C12.9178 22.9818 13.0477 20.7683 13.5345 18.6081L8.83715 25.2236ZM47.8065 27.0182C47.4164 29.1088 46.0994 34.0796 42.0877 37.0614L47.8065 27.0182ZM47.8065 27.0182C47.8096 27.0183 47.8126 27.0184 47.8156 27.0185L47.8173 26.9602M47.8065 27.0182L47.8173 26.9602M47.8173 26.9602L47.7599 26.9497C47.7593 26.9526 47.7588 26.9556 47.7583 26.9585L47.8173 26.9602ZM42.7143 25.5497L42.7587 25.5438L42.7645 25.4994C43.0054 23.6442 42.9741 21.7702 42.6714 19.9225L42.661 19.8596L42.5993 19.8754C39.7588 20.6047 37.1094 21.8439 34.8092 23.5194L34.8084 23.5201C33.778 24.2985 32.8812 25.2114 32.1476 26.2289L32.1464 26.2306C30.7368 28.3375 29.9612 30.7419 29.8972 33.2048L29.8971 33.2048L29.8973 33.2092C29.9132 33.5373 29.9232 33.8595 29.9232 34.1726L30.0339 34.1982C30.9622 32.2982 32.3036 30.5861 33.9788 29.1638L33.979 29.164L33.9831 29.1596C33.9944 29.1479 34.0068 29.1366 34.0211 29.1237L34.0211 29.1238L34.0228 29.1221L34.0339 29.1112L34.0542 29.0928C34.2105 28.9613 34.3658 28.8406 34.534 28.7198C36.9105 27.0399 39.7294 25.9474 42.7143 25.5497ZM29.0131 16.2362L28.9698 16.1889L28.9268 16.2365C27.1942 18.1565 25.8313 20.3271 24.8956 22.6572L24.8797 22.6968L24.9127 22.724C26.7475 24.2347 28.1189 26.1483 28.8944 28.2787L28.9494 28.4297L29.004 28.2785C29.7864 26.1148 31.1883 24.1763 33.0681 22.6602L33.1021 22.6329L33.0854 22.5926C32.1315 20.282 30.7548 18.1332 29.0131 16.2362ZM15.3121 19.8754L15.2503 19.8596L15.24 19.9225C14.9366 21.7669 14.9026 23.6395 15.1389 25.492L15.1445 25.5363L15.1887 25.5424C18.1784 25.9566 21 27.058 23.3835 28.7406C23.4853 28.8134 23.5783 28.8918 23.6737 28.9723C23.7236 29.0144 23.7741 29.057 23.8269 29.0996L23.8267 29.0999L23.8318 29.1033C23.8876 29.1393 23.9384 29.181 23.9833 29.2275L23.9831 29.2277L23.9873 29.2313C25.6284 30.6355 26.949 32.3167 27.8746 34.1796L27.9852 34.154C27.9872 33.8468 27.9952 33.5299 28.0121 33.2022L28.0123 33.2022L28.0121 33.1975C27.9419 30.7377 27.1641 28.3374 25.756 26.2333L25.756 26.2333L25.7549 26.2318C25.0432 25.2372 24.1736 24.3431 23.1742 23.5781L23.1733 23.5774C20.8586 21.872 18.1835 20.6123 15.3121 19.8754ZM10.0834 26.9037L10.0154 26.9056L10.0277 26.9726C10.4087 29.0353 11.7248 34.0945 15.7799 37.1055C19.8454 40.1244 25.589 40.3056 27.8807 40.2351L27.9486 40.233L27.9363 40.1662C27.5554 38.1035 26.2512 33.0534 22.1841 30.0333C18.1186 27.0144 12.381 26.8368 10.0834 26.9037ZM47.8746 26.9707L47.8869 26.9038L47.8189 26.9018C46.4502 26.8626 45.0804 26.9319 43.7251 27.109C40.8182 27.42 38.0555 28.4281 35.723 30.0293L35.723 30.0293L35.721 30.0308C35.614 30.1112 35.5138 30.1874 35.4135 30.2663L35.4131 30.2659L35.4076 30.2717C35.3806 30.2996 35.3519 30.3261 35.3216 30.3512L35.3215 30.3511L35.3199 30.3526C32.7669 32.6227 31.0159 35.5281 30.29 38.7009L30.2898 38.7019C30.2884 38.7088 30.2866 38.7135 30.2828 38.7269C30.2803 38.7358 30.2769 38.7486 30.2759 38.763C30.1346 39.3057 30.0349 39.7828 29.967 40.1657L29.9552 40.232L30.0226 40.2342C32.3034 40.3074 38.0259 40.1452 42.1224 37.1082L42.1225 37.1082C46.1905 34.0845 47.4977 29.029 47.8746 26.9707ZM35.4495 30.3122C35.5494 30.2336 35.6492 30.1578 35.756 30.0774L30.3469 38.7139C31.0699 35.5536 32.8143 32.6586 35.3587 30.3962C35.3907 30.3697 35.421 30.3417 35.4495 30.3122Z" fill="#459F5E" stroke="#F1FAF3" stroke-width="0.116667"/>
</svg>
