<svg width="25" height="25" viewBox="0 0 25 25" fill="none" xmlns="http://www.w3.org/2000/svg">
<g clip-path="url(#clip0_7667_30620)">
<path d="M12.9522 6.66699C12.2105 6.66699 11.4854 6.88693 10.8688 7.29898C10.2521 7.71104 9.77143 8.29671 9.4876 8.98193C9.20377 9.66715 9.12951 10.4212 9.27421 11.1486C9.4189 11.876 9.77605 12.5442 10.3005 13.0686C10.8249 13.5931 11.4931 13.9502 12.2206 14.0949C12.948 14.2396 13.702 14.1654 14.3872 13.8815C15.0724 13.5977 15.6581 13.1171 16.0702 12.5004C16.4822 11.8837 16.7022 11.1587 16.7022 10.417C16.7022 9.42243 16.3071 8.4686 15.6038 7.76534C14.9005 7.06208 13.9467 6.66699 12.9522 6.66699Z" fill="#459F5E"/>
<path d="M12.9522 2.16699C10.8754 2.16699 8.84538 2.78281 7.11867 3.93656C5.39195 5.09032 4.04614 6.73019 3.25142 8.64882C2.4567 10.5674 2.24876 12.6786 2.65391 14.7154C3.05905 16.7522 4.05908 18.6232 5.52753 20.0916C6.99598 21.5601 8.8669 22.5601 10.9037 22.9652C12.9405 23.3704 15.0517 23.1624 16.9703 22.3677C18.889 21.573 20.5288 20.2272 21.6826 18.5005C22.8363 16.7738 23.4522 14.7437 23.4522 12.667C23.449 9.88318 22.3418 7.21429 20.3733 5.24584C18.4049 3.27738 15.736 2.17013 12.9522 2.16699ZM18.9465 19.3613C18.9316 18.3775 18.5308 17.439 17.8304 16.7479C17.13 16.0569 16.1861 15.6687 15.2022 15.667H10.7022C9.71823 15.6687 8.77435 16.0569 8.07395 16.7479C7.37354 17.439 6.97269 18.3775 6.95778 19.3613C5.5977 18.1469 4.63858 16.548 4.2074 14.7763C3.77623 13.0047 3.89335 11.1439 4.54326 9.44024C5.19316 7.73662 6.34519 6.27059 7.84681 5.23627C9.34842 4.20194 11.1288 3.64811 12.9522 3.64811C14.7755 3.64811 16.5559 4.20194 18.0575 5.23627C19.5591 6.27059 20.7111 7.73662 21.361 9.44024C22.011 11.1439 22.1281 13.0047 21.6969 14.7763C21.2657 16.548 20.3066 18.1469 18.9465 19.3613Z" fill="#459F5E"/>
</g>
<defs>
<clipPath id="clip0_7667_30620">
<rect width="24" height="24" fill="white" transform="translate(0.952148 0.666992)"/>
</clipPath>
</defs>
</svg>
