<svg width="57" height="56" viewBox="0 0 57 56" fill="none" xmlns="http://www.w3.org/2000/svg">
<circle cx="28.5" cy="28" r="28" fill="#F1FAF3"/>
<g clip-path="url(#clip0_515_87509)">
<path d="M33.6041 13.709C32.1694 13.7086 30.7546 14.0443 29.473 14.6892C28.1915 15.3341 27.0788 16.2702 26.2241 17.4225C25.3695 18.5749 24.7967 19.9114 24.5516 21.325C24.3065 22.7386 24.396 24.1899 24.8128 25.5627L14.2083 36.1673V42.2923H20.3333L30.9378 31.6877C32.2015 32.0714 33.5331 32.1781 34.8418 32.0006C36.1505 31.8231 37.4056 31.3656 38.5214 30.6591C39.6373 29.9527 40.5877 29.014 41.308 27.907C42.0282 26.8 42.5013 25.5507 42.6951 24.2443C42.8888 22.9379 42.7987 21.6051 42.4307 20.3367C42.0627 19.0683 41.4256 17.8941 40.5628 16.8943C39.7 15.8944 38.6318 15.0922 37.4309 14.5426C36.23 13.9929 34.9248 13.7086 33.6041 13.709ZM33.6041 30.0423C32.9012 30.0419 32.2022 29.9379 31.5295 29.7338L30.3589 29.3788L29.494 30.2436L26.2466 33.4911L24.8393 32.084L23.3958 33.5275L24.8032 34.9349L23.1842 36.5539L21.7768 35.1465L20.3333 36.59L21.7407 37.9974L19.4876 40.2507H16.2499V37.013L26.2564 27.0065L27.1213 26.1414L26.7667 24.9708C26.3304 23.5324 26.3588 21.9931 26.8478 20.5718C27.3368 19.1505 28.2615 17.9195 29.4904 17.054C30.7193 16.1886 32.1899 15.7327 33.6929 15.7512C35.1958 15.7697 36.6547 16.2617 37.862 17.1571C39.0692 18.0526 39.9634 19.3059 40.4172 20.7389C40.871 22.1718 40.8615 23.7114 40.3899 25.1386C39.9183 26.5658 39.0086 27.8079 37.7903 28.6883C36.5721 29.5687 35.1072 30.0425 33.6041 30.0423Z" fill="#459F5E"/>
<path d="M34.6249 23.9173C35.7525 23.9173 36.6666 23.0032 36.6666 21.8757C36.6666 20.7481 35.7525 19.834 34.6249 19.834C33.4973 19.834 32.5833 20.7481 32.5833 21.8757C32.5833 23.0032 33.4973 23.9173 34.6249 23.9173Z" fill="#459F5E"/>
</g>
<defs>
<clipPath id="clip0_515_87509">
<rect width="32.6667" height="32.6667" fill="white" transform="translate(12.1666 11.667)"/>
</clipPath>
</defs>
</svg>
