<svg width="57" height="56" viewBox="0 0 57 56" fill="none" xmlns="http://www.w3.org/2000/svg">
<g clip-path="url(#clip0_10662_45331)">
<rect x="0.952148" width="56" height="56" rx="28" fill="#F1FAF3"/>
<g clip-path="url(#clip1_10662_45331)">
<path d="M42.4857 13.666H34.5736C35.1753 14.1452 35.7103 14.7136 36.156 15.3376H42.4857C43.823 15.3376 44.9039 16.4186 44.9039 17.7559V40.512C44.9039 41.8493 43.823 42.9303 42.4857 42.9303H16.2419C14.9046 42.9303 13.8237 41.8493 13.8237 40.512V17.7559C13.8237 16.4186 14.9046 15.3376 16.2419 15.3376H22.5716C23.0174 14.7136 23.5523 14.1452 24.1541 13.666H16.2419C13.9908 13.666 12.1521 15.5048 12.1521 17.7559V40.512C12.1521 42.7631 13.9908 44.6019 16.2419 44.6019H42.4857C44.7368 44.6019 46.5755 42.7631 46.5755 40.512V17.7559C46.5755 15.5048 44.7368 13.666 42.4857 13.666Z" fill="#459F5E"/>
<path d="M37.7274 21.0306H21.0116C20.5547 21.0306 20.1758 20.6517 20.1758 20.1948C20.1758 15.1243 24.299 11.001 29.3695 11.001C34.4399 11.001 38.5632 15.1243 38.5632 20.1948C38.5632 20.6517 38.1843 21.0306 37.7274 21.0306ZM21.8919 19.359H36.847C36.4236 15.6035 33.2364 12.6726 29.3695 12.6726C25.5026 12.6726 22.3154 15.6035 21.8919 19.359Z" fill="#459F5E"/>
<path d="M22.9062 41.1687C22.5831 41.1687 22.2599 41.1241 21.9367 41.035C20.2651 40.5446 19.3402 38.7393 19.5074 36.321L19.5297 36.0313C19.6299 34.7274 19.7302 33.3679 18.939 31.908C18.4598 31.0388 16.9888 28.041 17.9472 26.1131C18.6159 24.7758 20.644 23.1711 22.5942 22.9036C24.0429 22.703 25.2242 23.2045 25.9151 24.3189C26.8958 25.8791 26.6506 28.2639 25.8148 29.5232C24.9121 30.8827 24.9456 33.2453 25.9039 36.0201C26.6952 38.3047 25.9039 39.5862 25.369 40.1434C24.745 40.7898 23.8312 41.1576 22.9062 41.1576V41.1687ZM22.8171 24.5641C21.4687 24.7424 19.8974 25.9459 19.4405 26.8597C19.0616 27.6175 19.4516 29.3671 20.41 31.1056C21.4464 33.0001 21.3127 34.7497 21.2012 36.1539L21.1789 36.4325C21.0675 38.0038 21.5467 39.1739 22.4048 39.4302C22.9285 39.5862 23.6975 39.4859 24.1544 39.0068C24.7561 38.3715 24.5778 37.3351 24.3215 36.5773C23.1737 33.2564 23.2071 30.4258 24.4218 28.5982C24.9344 27.8293 25.0793 26.1465 24.4998 25.2104C24.1655 24.6644 23.6083 24.4638 22.8171 24.5641Z" fill="#459F5E"/>
<path d="M35.833 41.1697C34.908 41.1697 33.9942 40.8019 33.3702 40.1555C32.8353 39.5983 32.0552 38.3056 32.8353 36.0322C33.7936 33.2574 33.8271 30.8837 32.9244 29.5353C32.0886 28.2871 31.8435 25.8912 32.8241 24.331C33.515 23.2277 34.6963 22.7151 36.1561 22.9157C38.1063 23.1832 40.1345 24.7879 40.8031 26.1252C41.7615 28.0531 40.2905 31.0509 39.8113 31.9201C39.009 33.38 39.1204 34.7284 39.2207 36.0434L39.243 36.3331C39.4213 38.7514 38.4852 40.5567 36.8136 41.0471C36.5016 41.1362 36.1784 41.1808 35.8553 41.1808L35.833 41.1697ZM35.5432 24.5427C34.9526 24.5427 34.518 24.7656 34.2394 25.2114C33.6488 26.1475 33.8048 27.8302 34.3174 28.5992C35.5321 30.4156 35.5655 33.2574 34.4177 36.5783C34.1614 37.3361 33.9719 38.3725 34.5849 39.0077C35.0418 39.4869 35.8107 39.5872 36.3344 39.4312C37.1925 39.1749 37.6829 38.0047 37.5603 36.4334L37.538 36.1548C37.4265 34.7507 37.2928 33.0011 38.3292 31.1066C39.2764 29.3681 39.6776 27.6296 39.2987 26.8607C38.8418 25.9469 37.2705 24.7433 35.9221 24.565C35.7884 24.5427 35.6658 24.5427 35.5432 24.5427Z" fill="#459F5E"/>
<path d="M29.5811 17.8996C30.0612 17.8996 30.4504 17.5104 30.4504 17.0304C30.4504 16.5503 30.0612 16.1611 29.5811 16.1611C29.1011 16.1611 28.7119 16.5503 28.7119 17.0304C28.7119 17.5104 29.1011 17.8996 29.5811 17.8996Z" fill="#459F5E"/>
<path d="M29.5923 18.1218C29.2357 18.1218 28.8791 17.9435 28.6786 17.6203C28.5225 17.3752 28.4668 17.0854 28.5225 16.7957C28.5783 16.5059 28.7566 16.2608 28.9906 16.1047C29.5032 15.7816 30.1718 15.9153 30.5061 16.4279C30.8293 16.9294 30.6956 17.6092 30.183 17.9435C29.9935 18.0661 29.7929 18.1218 29.5923 18.1218ZM29.5923 16.3833C29.4698 16.3833 29.3472 16.4168 29.2357 16.4836C28.9349 16.6731 28.8569 17.0854 29.0463 17.3752C29.2357 17.6761 29.6369 17.7652 29.9378 17.5646C30.2387 17.3752 30.3167 16.9628 30.1273 16.6731C30.0047 16.4836 29.7929 16.3722 29.5812 16.3722L29.5923 16.3833Z" fill="#459F5E"/>
<path d="M27.7359 14.1834C27.9041 14.0742 28.1353 14.1233 28.2446 14.2915L29.562 16.3194L28.9452 16.7201L27.6278 14.6922C27.5186 14.524 27.5677 14.2927 27.7359 14.1834Z" fill="#459F5E"/>
<path d="M28.879 17.029L27.4414 14.8114C27.3522 14.6776 27.33 14.5216 27.3634 14.3656C27.3968 14.2096 27.486 14.0759 27.6197 13.9979C27.8872 13.8196 28.2549 13.8976 28.4332 14.1762L29.8708 16.3938L28.879 17.0402V17.029ZM27.9317 14.3545C27.9317 14.3545 27.876 14.3545 27.8537 14.3768C27.8203 14.399 27.798 14.4325 27.7869 14.4659C27.7869 14.4993 27.7869 14.5439 27.8091 14.5774L29.0015 16.4161L29.2467 16.2601L28.0543 14.4213C28.0543 14.4213 27.9763 14.3545 27.9317 14.3545Z" fill="#459F5E"/>
</g>
</g>
<defs>
<clipPath id="clip0_10662_45331">
<rect x="0.952148" width="56" height="56" rx="28" fill="white"/>
</clipPath>
<clipPath id="clip1_10662_45331">
<rect width="56" height="56" fill="white" transform="translate(0.952148)"/>
</clipPath>
</defs>
</svg>
